QalamBadi-Bold.ufo
<glyph name="exclam" format="2">
  <advance width="434"/>
  <unicode hex="0021"/>
  <outline>
    <contour>
      <point x="152.0" y="1303.0" type="line" smooth="yes"/>
      <point x="111.02908645520328" y="1301.1813463980704"/>
      <point x="74.79408813202694" y="1261.305300610954"/>
      <point x="77.08002874369626" y="1216.6685734042164" type="curve" smooth="yes"/>
      <point x="125.0777650102674" y="509.70174559690156" type="line" smooth="yes"/>
      <point x="130.58947550600286" y="465.7947377530014"/>
      <point x="173.12362547679425" y="431.46606039414576"/>
      <point x="217.0" y="430.0" type="curve" smooth="yes"/>
      <point x="262.04041320887484" y="431.51631020658135"/>
      <point x="302.90820397840565" y="466.8337398432307"/>
      <point x="307.9191044870952" y="509.65599684438774" type="curve" smooth="yes"/>
      <point x="356.916813727168" y="1216.6230804396055" type="line" smooth="yes"/>
      <point x="359.20591186797304" y="1261.305300610954"/>
      <point x="322.9709135447967" y="1301.1813463980704"/>
      <point x="282.0" y="1303.0" type="curve" smooth="yes"/>
    </contour>
    <contour>
      <point x="58.0" y="207.0" type="curve" smooth="yes"/>
      <point x="58.0" y="53.0" type="line" smooth="yes"/>
      <point x="62.68228074320272" y="-9.218343055579357"/>
      <point x="124.15398568025908" y="-43.652877220423015"/>
      <point x="217.0" y="-44.0" type="curve" smooth="yes"/>
      <point x="309.8460143197409" y="-43.652877220423015"/>
      <point x="371.31771925679726" y="-9.218343055579357"/>
      <point x="376.0" y="53.0" type="curve" smooth="yes"/>
      <point x="376.0" y="207.0" type="line" smooth="yes"/>
      <point x="371.31771925679726" y="269.21834305557934"/>
      <point x="309.8460143197409" y="303.652877220423"/>
      <point x="217.0" y="304.0" type="curve" smooth="yes"/>
      <point x="124.15398568025908" y="303.652877220423"/>
      <point x="62.68228074320272" y="269.21834305557934"/>
    </contour>
  </outline>
</glyph>
<glyph name="numbersign" format="2">
  <advance width="1292"/>
  <unicode hex="0023"/>
  <outline>
    <contour>
      <point x="895.0942011493341" y="1184.556190858058" type="curve" smooth="yes"/>
      <point x="826.3262209681054" y="920.0099965420668" type="line" smooth="yes"/>
      <point x="825.5743777067261" y="907.156940108947"/>
      <point x="811.7852851619969" y="896.4940141059521"/>
      <point x="799.156494140625" y="899.0" type="curve" smooth="yes"/>
      <point x="633.9946899414062" y="899.0" type="line" smooth="yes"/>
      <point x="624.1426839863332" y="895.2161288330475"/>
      <point x="624.83640980029" y="894.3190158380376"/>
      <point x="630.9771973247639" y="902.9021639158791" type="curve" smooth="yes"/>
      <point x="690.9039716562645" y="1133.4367851105005" type="line" smooth="yes"/>
      <point x="699.8571256249649" y="1198.277177527969"/>
      <point x="637.0270993791507" y="1241.4878019884484"/>
      <point x="588.0" y="1243.0" type="curve" smooth="yes"/>
      <point x="557.065555360192" y="1242.2853342710787"/>
      <point x="514.8420375045379" y="1221.8708749958746"/>
      <point x="501.09420114933414" y="1184.556190858058" type="curve" smooth="yes"/>
      <point x="432.3262209681054" y="920.0099965420668" type="line" smooth="yes"/>
      <point x="431.5743777067262" y="907.156940108947"/>
      <point x="417.78528516199674" y="896.4940141059521"/>
      <point x="405.156494140625" y="899.0" type="curve" smooth="yes"/>
      <point x="225.0" y="899.0" type="line" smooth="yes"/>
      <point x="169.71230949748747" y="897.4062250829145"/>
      <point x="129.0151549950587" y="853.2462112512353"/>
      <point x="128.0" y="793.0" type="curve" smooth="yes"/>
      <point x="129.0151549950587" y="732.7537887487647"/>
      <point x="169.71230949748747" y="688.5937749170855"/>
      <point x="225.0" y="687.0" type="curve" smooth="yes"/>
      <point x="367.7241516113281" y="687.0" type="line" smooth="yes"/>
      <point x="377.5761575106572" y="690.7838711957099"/>
      <point x="376.8824312475652" y="691.6809847879313"/>
      <point x="370.74164355743744" y="683.0978368799133" type="curve" smooth="yes"/>
      <point x="331.2068678757872" y="531.009996979699" type="line" smooth="yes"/>
      <point x="330.45502424501456" y="518.1569404291098"/>
      <point x="316.66593106792556" y="507.4940141685868"/>
      <point x="304.0371398925781" y="510.0" type="curve" smooth="yes"/>
      <point x="155.0" y="510.0" type="line" smooth="yes"/>
      <point x="99.71230949748747" y="508.40622508291443"/>
      <point x="59.015154995058715" y="464.2462112512353"/>
      <point x="58.0" y="404.0" type="curve" smooth="yes"/>
      <point x="59.015154995058715" y="343.7537887487647"/>
      <point x="99.71230949748747" y="299.59377491708557"/>
      <point x="155.0" y="298.0" type="curve" smooth="yes"/>
      <point x="266.6047668457031" y="298.0" type="line" smooth="yes"/>
      <point x="276.45677293333813" y="301.78387109856607"/>
      <point x="275.76304818744677" y="302.68098267337786"/>
      <point x="269.6222610569057" y="294.0978341916876" type="curve" smooth="yes"/>
      <point x="207.0959423999205" y="53.56288464541298" type="line" smooth="yes"/>
      <point x="198.14287437503515" y="-11.277177527968814"/>
      <point x="260.97290062084926" y="-54.487801988448446"/>
      <point x="310.0" y="-56.0" type="curve" smooth="yes"/>
      <point x="340.934444639808" y="-55.285334271078575"/>
      <point x="383.1579624954621" y="-34.87087499587463"/>
      <point x="396.9058190238625" y="2.4438867253401675" type="curve" smooth="yes"/>
      <point x="468.2732378824837" y="276.99000423929743" type="line" smooth="yes"/>
      <point x="469.0250804843345" y="289.84306046268347"/>
      <point x="482.81417190002634" y="300.50598600587784"/>
      <point x="495.4429626464844" y="298.0" type="curve" smooth="yes"/>
      <point x="660.6047973632812" y="298.0" type="line" smooth="yes"/>
      <point x="670.4568031370732" y="301.78387126047244"/>
      <point x="669.763075862514" y="302.68098619763373"/>
      <point x="663.6222877993285" y="294.0978386720638" type="curve" smooth="yes"/>
      <point x="601.0959431259125" y="53.562887435136496" type="line" smooth="yes"/>
      <point x="592.1428743750351" y="-11.277177527968814"/>
      <point x="654.9729006208493" y="-54.487801988448446"/>
      <point x="704.0" y="-56.0" type="curve" smooth="yes"/>
      <point x="734.934444639808" y="-55.285334271078575"/>
      <point x="777.1579624954621" y="-34.87087499587463"/>
      <point x="790.9058183208409" y="2.4438840216011215" type="curve" smooth="yes"/>
      <point x="862.2732635012663" y="276.99000238430284" type="line" smooth="yes"/>
      <point x="863.0251076688679" y="289.84305910560676"/>
      <point x="876.8142017649466" y="300.5059857403882"/>
      <point x="889.4429931640625" y="298.0" type="curve" smooth="yes"/>
      <point x="1067.0" y="298.0" type="line" smooth="yes"/>
      <point x="1122.2876905025125" y="299.59377491708557"/>
      <point x="1162.9848450049412" y="343.7537887487647"/>
      <point x="1164.0" y="404.0" type="curve" smooth="yes"/>
      <point x="1162.9848450049412" y="464.2462112512353"/>
      <point x="1122.2876905025125" y="508.40622508291443"/>
      <point x="1067.0" y="510.0" type="curve" smooth="yes"/>
      <point x="926.8753051757812" y="510.0" type="line" smooth="yes"/>
      <point x="917.0232992764521" y="506.21612880429007"/>
      <point x="917.7170255395442" y="505.3190152120686"/>
      <point x="923.8578132296719" y="513.9021631200867" type="curve" smooth="yes"/>
      <point x="963.3925889113222" y="665.990003020301" type="line" smooth="yes"/>
      <point x="964.1444325420948" y="678.8430595708901"/>
      <point x="977.9335257191838" y="689.5059858314132"/>
      <point x="990.5623168945312" y="687.0" type="curve" smooth="yes"/>
      <point x="1137.0" y="687.0" type="line" smooth="yes"/>
      <point x="1192.2876905025125" y="688.5937749170855"/>
      <point x="1232.9848450049412" y="732.7537887487647"/>
      <point x="1234.0" y="793.0" type="curve" smooth="yes"/>
      <point x="1232.9848450049412" y="853.2462112512353"/>
      <point x="1192.2876905025125" y="897.4062250829145"/>
      <point x="1137.0" y="899.0" type="curve" smooth="yes"/>
      <point x="1027.9946899414062" y="899.0" type="line" smooth="yes"/>
      <point x="1018.1426839863332" y="895.2161288330475"/>
      <point x="1018.83640980029" y="894.3190158380376"/>
      <point x="1024.977197324764" y="902.9021639158791" type="curve" smooth="yes"/>
      <point x="1084.9039716562645" y="1133.4367851105005" type="line" smooth="yes"/>
      <point x="1093.8571256249647" y="1198.277177527969"/>
      <point x="1031.0270993791507" y="1241.4878019884484"/>
      <point x="982.0" y="1243.0" type="curve" smooth="yes"/>
      <point x="951.065555360192" y="1242.2853342710787"/>
      <point x="908.8420375045379" y="1221.8708749958746"/>
    </contour>
    <contour>
      <point x="569.3925953297439" y="665.9900054507227" type="line" smooth="yes"/>
      <point x="570.1444369090639" y="678.8430613489378"/>
      <point x="583.9335265742986" y="689.5059861792589"/>
      <point x="596.5623168945312" y="687.0" type="curve" smooth="yes"/>
      <point x="761.72412109375" y="687.0" type="line" smooth="yes"/>
      <point x="771.5761269930791" y="690.7838711957099"/>
      <point x="770.882400729987" y="691.6809847879313"/>
      <point x="764.7416130398593" y="683.0978368799133" type="curve" smooth="yes"/>
      <point x="725.2068373582091" y="531.009996979699" type="line" smooth="yes"/>
      <point x="724.4549937274364" y="518.1569404291098"/>
      <point x="710.6659005503475" y="507.4940141685868"/>
      <point x="698.037109375" y="510.0" type="curve" smooth="yes"/>
      <point x="532.8753356933594" y="510.0" type="line" smooth="yes"/>
      <point x="523.0233294263853" y="506.21612899395194"/>
      <point x="523.7170527273236" y="505.31901934048255"/>
      <point x="529.8578393249248" y="513.9021683685273" type="curve" smooth="yes"/>
    </contour>
  </outline>
</glyph>
<glyph name="dollar" format="2">
  <advance width="1040"/>
  <unicode hex="0024"/>
  <outline>
    <contour>
      <point x="57.685869776738" y="817.0" type="curve" smooth="yes"/>
      <point x="59.49977297103311" y="683.0430308746537"/>
      <point x="136.91110184467834" y="600.6537817496354"/>
      <point x="232.68590882404382" y="560.5834276976557" type="curve" smooth="yes"/>
      <point x="382.95859657088556" y="499.3302377787245"/>
      <point x="591.2407303021809" y="509.17499424980315"/>
      <point x="699.9488864005284" y="468.0900764459302" type="curve" smooth="yes"/>
      <point x="751.851363740866" y="449.460206389885"/>
      <point x="773.0699685826935" y="434.4926105166418"/>
      <point x="770.685869776738" y="388.0" type="curve" smooth="yes"/>
      <point x="774.2753452827408" y="304.2052622469986"/>
      <point x="711.9959079868277" y="252.8707250313999"/>
      <point x="543.685869776738" y="254.0" type="curve" smooth="yes"/>
      <point x="417.36673780191137" y="253.67624495888623"/>
      <point x="297.75322668275203" y="287.3885995783636"/>
      <point x="196.85801381466032" y="346.34480310277866" type="curve" smooth="yes"/>
      <point x="157.9320810279733" y="367.9848450049413"/>
      <point x="96.08526037687412" y="356.4747060443033"/>
      <point x="63.27534528274086" y="296.2052622469986" type="curve" smooth="yes"/>
      <point x="36.11547844973021" y="237.38784058334693"/>
      <point x="55.7206194553724" y="176.91891951420916"/>
      <point x="101.99076318216319" y="149.38119827211463" type="curve" smooth="yes"/>
      <point x="202.17584311954073" y="92.73917379701243"/>
      <point x="318.6386327717692" y="58.057502903229995"/>
      <point x="393.50665048402453" y="50.25200076338867" type="curve" smooth="yes"/>
      <point x="405.3236478810064" y="52.02523572118284"/>
      <point x="413.63982758983616" y="42.82503743886632"/>
      <point x="410.685869776738" y="31.246612548828125" type="curve" smooth="yes"/>
      <point x="410.685869776738" y="-160.0" type="line" smooth="yes"/>
      <point x="412.33247131892136" y="-216.45263642483306"/>
      <point x="456.7795482998025" y="-257.8127633360782"/>
      <point x="514.685869776738" y="-259.0" type="curve" smooth="yes"/>
      <point x="572.5921912536735" y="-257.8127633360782"/>
      <point x="617.0392682345546" y="-216.45263642483306"/>
      <point x="618.685869776738" y="-160.0" type="curve" smooth="yes"/>
      <point x="618.685869776738" y="26.695083618164062" type="line" smooth="yes"/>
      <point x="615.5676189693993" y="37.91124564096671"/>
      <point x="622.7222049204458" y="45.36983206993898"/>
      <point x="634.0583460050351" y="42.72074091833305" type="curve" smooth="yes"/>
      <point x="845.0517721621222" y="53.496255260220096"/>
      <point x="990.0642139937277" y="195.92558388152855"/>
      <point x="992.685869776738" y="388.0" type="curve" smooth="yes"/>
      <point x="990.7222341205601" y="540.3873332975671"/>
      <point x="901.5875803534065" y="627.9055143256298"/>
      <point x="794.8056248641813" y="669.7665159660355" type="curve" smooth="yes"/>
      <point x="639.1039312451352" y="727.7117299001618"/>
      <point x="435.04752219532145" y="717.8334049870336"/>
      <point x="334.6462796440799" y="756.8268533758081" type="curve" smooth="yes"/>
      <point x="291.84118243276015" y="772.3546461003045"/>
      <point x="277.3418086265175" y="782.4057057654542"/>
      <point x="279.685869776738" y="817.0" type="curve" smooth="yes"/>
      <point x="275.38946441280075" y="902.4562257723195"/>
      <point x="341.6312821455239" y="941.9414092513014"/>
      <point x="478.685869776738" y="941.0" type="curve" smooth="yes"/>
      <point x="597.330386317465" y="941.280128057242"/>
      <point x="706.307147042016" y="912.3334999809439"/>
      <point x="805.685869776738" y="859.0" type="curve" smooth="yes"/>
      <point x="846.7085650706301" y="838.7236237093321"/>
      <point x="908.3798453702701" y="852.6289159561213"/>
      <point x="937.679819510965" y="914.0223363943682" type="curve" smooth="yes"/>
      <point x="963.3840185403564" y="973.4795166292707"/>
      <point x="942.1941939834011" y="1033.5656963525607"/>
      <point x="895.4273405328146" y="1060.1364579610076" type="curve" smooth="yes"/>
      <point x="802.0602451435257" y="1108.5300540697726"/>
      <point x="696.6944543813507" y="1137.636726512504"/>
      <point x="632.3318247468505" y="1144.5663330383" type="curve" smooth="yes"/>
      <point x="622.4147367997285" y="1142.6462048136582"/>
      <point x="615.7421296892077" y="1150.0549677828021"/>
      <point x="618.685869776738" y="1159.7177789703956" type="curve" smooth="yes"/>
      <point x="618.685869776738" y="1347.0" type="line" smooth="yes"/>
      <point x="617.0392682345546" y="1403.4526364248331"/>
      <point x="572.5921912536735" y="1444.8127633360782"/>
      <point x="514.685869776738" y="1446.0" type="curve" smooth="yes"/>
      <point x="456.7795482998025" y="1444.8127633360782"/>
      <point x="412.33247131892136" y="1403.4526364248331"/>
      <point x="410.685869776738" y="1347.0" type="curve" smooth="yes"/>
      <point x="410.685869776738" y="1168.3218994140625" type="line" smooth="yes"/>
      <point x="413.79295964753715" y="1157.0814805258108"/>
      <point x="406.55319196185576" y="1149.5030162951634"/>
      <point x="395.1825498675156" y="1152.093290915934" type="curve" smooth="yes"/>
      <point x="228.20065906214506" y="1142.8376284019614"/>
      <point x="61.33182264883816" y="1020.2519615352388"/>
    </contour>
  </outline>
</glyph>
<glyph name="percent" format="2">
  <advance width="1312"/>
  <unicode hex="0025"/>
  <outline>
    <contour>
      <point x="638.0" y="252.0" type="curve" smooth="yes"/>
      <point x="640.9819726599933" y="87.07584904079988"/>
      <point x="781.0758490407999" y="-53.01802734000675"/>
      <point x="946.0" y="-56.0" type="curve" smooth="yes"/>
      <point x="1110.9241509592" y="-53.01802734000675"/>
      <point x="1251.0180273400067" y="87.07584904079988"/>
      <point x="1254.0" y="252.0" type="curve" smooth="yes"/>
      <point x="1251.0180273400067" y="416.9241509592001"/>
      <point x="1110.9241509592" y="557.0180273400067"/>
      <point x="946.0" y="560.0" type="curve" smooth="yes"/>
      <point x="781.0758490407999" y="557.0180273400067"/>
      <point x="640.9819726599933" y="416.9241509592001"/>
    </contour>
    <contour>
      <point x="58.0" y="935.0" type="curve" smooth="yes"/>
      <point x="60.98197265999325" y="770.0758490407999"/>
      <point x="201.07584904079988" y="629.9819726599933"/>
      <point x="366.0" y="627.0" type="curve" smooth="yes"/>
      <point x="530.9241509592001" y="629.9819726599933"/>
      <point x="671.0180273400067" y="770.0758490407999"/>
      <point x="674.0" y="935.0" type="curve" smooth="yes"/>
      <point x="671.0180273400067" y="1099.9241509592"/>
      <point x="530.9241509592001" y="1240.0180273400067"/>
      <point x="366.0" y="1243.0" type="curve" smooth="yes"/>
      <point x="201.07584904079988" y="1240.0180273400067"/>
      <point x="60.98197265999325" y="1099.9241509592"/>
    </contour>
    <contour>
      <point x="147.59180862460317" y="253.6588032258826" type="line" smooth="yes"/>
      <point x="107.58947550600286" y="213.20526224699856"/>
      <point x="109.97406553844803" y="151.04872231730053"/>
      <point x="147.40591149911856" y="110.52382461279498" type="curve" smooth="yes"/>
      <point x="185.92739240885888" y="71.59717581525696"/>
      <point x="247.62784035667008" y="66.85065061332557"/>
      <point x="290.4081913753968" y="104.3411967741174" type="curve" smooth="yes"/>
      <point x="1164.4081913753969" y="934.3411967741174" type="line" smooth="yes"/>
      <point x="1204.4105244939972" y="974.7947377530014"/>
      <point x="1202.025934461552" y="1036.9512776826996"/>
      <point x="1164.5940885008815" y="1077.476175387205" type="curve" smooth="yes"/>
      <point x="1126.0726075911411" y="1116.402824184743"/>
      <point x="1064.37215964333" y="1121.1493493866744"/>
      <point x="1021.5918086246032" y="1083.6588032258826" type="curve" smooth="yes"/>
    </contour>
    <contour>
      <point x="1056.0" y="252.0" type="curve" smooth="yes"/>
      <point x="1059.010796138343" y="186.98818229866455"/>
      <point x="1011.0118177013354" y="138.98920386165685"/>
      <point x="946.0" y="142.0" type="curve" smooth="yes"/>
      <point x="880.9881822986646" y="138.98920386165685"/>
      <point x="832.9892038616568" y="186.98818229866455"/>
      <point x="836.0" y="252.0" type="curve" smooth="yes"/>
      <point x="832.9892038616568" y="317.0118177013355"/>
      <point x="880.9881822986646" y="365.01079613834315"/>
      <point x="946.0" y="362.0" type="curve" smooth="yes"/>
      <point x="1011.0118177013354" y="365.01079613834315"/>
      <point x="1059.010796138343" y="317.0118177013355"/>
    </contour>
    <contour>
      <point x="476.0" y="935.0" type="curve" smooth="yes"/>
      <point x="479.01079613834315" y="869.9881822986646"/>
      <point x="431.0118177013355" y="821.9892038616568"/>
      <point x="366.0" y="825.0" type="curve" smooth="yes"/>
      <point x="300.9881822986645" y="821.9892038616568"/>
      <point x="252.98920386165685" y="869.9881822986646"/>
      <point x="256.0" y="935.0" type="curve" smooth="yes"/>
      <point x="252.98920386165685" y="1000.0118177013354"/>
      <point x="300.9881822986645" y="1048.010796138343"/>
      <point x="366.0" y="1045.0" type="curve" smooth="yes"/>
      <point x="431.0118177013355" y="1048.010796138343"/>
      <point x="479.01079613834315" y="1000.0118177013354"/>
    </contour>
  </outline>
</glyph>
<glyph name="ampersand" format="2">
  <advance width="1119"/>
  <unicode hex="0026"/>
  <outline>
    <contour>
      <point x="165.0" y="920.0" type="curve" smooth="yes"/>
      <point x="165.54540961135731" y="808.8213942981298"/>
      <point x="202.86821644436807" y="718.9147568016867"/>
      <point x="248.1019669139926" y="660.883602515639" type="curve" smooth="yes"/>
      <point x="250.16284821030354" y="663.6527129773244"/>
      <point x="251.12349206236433" y="670.5532864134657"/>
      <point x="249.89730209923485" y="673.7799972218309" type="curve" smooth="yes"/>
      <point x="150.05026435532443" y="600.9969360476682"/>
      <point x="59.60564787496443" y="482.8201634628968"/>
      <point x="58.0" y="320.0" type="curve" smooth="yes"/>
      <point x="60.2495302116637" y="123.83827034423376"/>
      <point x="209.30398222632684" y="-53.11943278954854"/>
      <point x="451.0" y="-56.0" type="curve" smooth="yes"/>
      <point x="588.2182940224585" y="-54.92483659344546"/>
      <point x="705.3821572537206" y="11.559167325563969"/>
      <point x="777.2694502204749" y="94.05852281176618" type="curve" smooth="yes"/>
      <point x="773.7644528996159" y="95.38401968924796"/>
      <point x="764.3944264698812" y="95.2510414473704"/>
      <point x="760.9284557383298" y="93.82661346411791" type="curve" smooth="yes"/>
      <point x="863.9314878421883" y="-18.968885436469208" type="line" smooth="yes"/>
      <point x="898.8806060168095" y="-53.936017397353964"/>
      <point x="952.1697012480033" y="-56.112891088009405"/>
      <point x="1000.622438405824" y="-29.65964499862713" type="curve" smooth="yes"/>
      <point x="1056.2572374607203" y="3.1759274939353617"/>
      <point x="1070.7725829875849" y="68.10384113812759"/>
      <point x="1033.1121977601274" y="112.92111523587488" type="curve" smooth="yes"/>
      <point x="896.6853095687021" y="262.3527272995049" type="line" smooth="yes"/>
      <point x="894.0216514348019" y="261.80265598428286"/>
      <point x="893.7529251706085" y="264.24052695869614"/>
      <point x="896.4724429338387" y="264.28384256325546" type="curve" smooth="yes"/>
      <point x="940.0535898057723" y="340.6173324878038"/>
      <point x="985.3227273228308" y="458.3508070233068"/>
      <point x="1020.693813471006" y="581.6664818678557" type="curve" smooth="yes"/>
      <point x="1034.920527215897" y="634.6766762180893"/>
      <point x="1008.9081824942471" y="694.0487891558001"/>
      <point x="938.01472427366" y="706.6281510116029" type="curve" smooth="yes"/>
      <point x="879.0" y="715.0"/>
      <point x="827.8746324966493" y="692.1040232098231"/>
      <point x="810.2292590515095" y="637.0597206185914" type="curve" smooth="yes"/>
      <point x="786.0582164238073" y="547.5557341129987"/>
      <point x="756.5891014741642" y="461.7525495794574"/>
      <point x="731.28448650982" y="410.6223325429708" type="curve" smooth="yes"/>
      <point x="735.7421358230368" y="410.7653579460576"/>
      <point x="753.5507244773041" y="413.2945551958442"/>
      <point x="757.871929378498" y="414.3983132614769" type="curve" smooth="yes"/>
      <point x="477.1394863716906" y="721.8911822536011" type="line" smooth="yes"/>
      <point x="416.2736452990988" y="789.3014352226375"/>
      <point x="386.07305975267974" y="839.884967888056"/>
      <point x="387.0" y="920.0" type="curve" smooth="yes"/>
      <point x="384.9576159832184" y="1016.393502652861"/>
      <point x="440.3950509630213" y="1090.197686649019"/>
      <point x="552.0" y="1087.0" type="curve" smooth="yes"/>
      <point x="630.5795425654411" y="1087.4348597321546"/>
      <point x="698.0479730795146" y="1064.4641703736565"/>
      <point x="762.2754410535822" y="1021.6205903468356" type="curve" smooth="yes"/>
      <point x="799.7356820403903" y="998.5863643380748"/>
      <point x="863.1999471503617" y="1005.2480613055803"/>
      <point x="897.9835486390684" y="1064.9691918167357" type="curve" smooth="yes"/>
      <point x="928.1503900810919" y="1124.4467465638018"/>
      <point x="911.2720009724037" y="1182.7448008751633"/>
      <point x="867.9774194173162" y="1210.8584890646391" type="curve" smooth="yes"/>
      <point x="778.405293702648" y="1266.7975244677302"/>
      <point x="669.253670374204" y="1302.5916499683956"/>
      <point x="553.0" y="1303.0" type="curve" smooth="yes"/>
      <point x="322.5110433469263" y="1300.2097428443667"/>
      <point x="167.35114361836517" y="1128.4237631068308"/>
    </contour>
    <contour>
      <point x="627.3290355676851" y="240.12740745112887" type="line" smooth="yes"/>
      <point x="629.5572140181761" y="241.8770224486593"/>
      <point x="629.5096224254742" y="243.60133223101167"/>
      <point x="627.1883296216653" y="245.22538012618037" type="curve" smooth="yes"/>
      <point x="588.7466948199537" y="197.28335525487347"/>
      <point x="529.4478627899862" y="158.70577487407564"/>
      <point x="451.0" y="160.0" type="curve" smooth="yes"/>
      <point x="343.0909480417551" y="157.7774916482025"/>
      <point x="277.14197644296974" y="217.64468040027023"/>
      <point x="280.0" y="320.0" type="curve" smooth="yes"/>
      <point x="278.71551183135307" y="408.5443693713676"/>
      <point x="317.2741357174155" y="462.28005122061745"/>
      <point x="385.3210965846783" y="511.97272769999574" type="curve" smooth="yes"/>
      <point x="383.5237188642636" y="514.3058516025716"/>
      <point x="380.68833690619823" y="514.5829951107061"/>
      <point x="378.47319399140406" y="512.6420737620547" type="curve" smooth="yes"/>
    </contour>
  </outline>
</glyph>
<glyph name="quotesingle" format="2">
  <advance width="409"/>
  <unicode hex="0027"/>
  <outline>
    <contour>
      <point x="122.63632365591434" y="1303.0" type="line" smooth="yes"/>
      <point x="81.88457961134185" y="1301.2552321337175"/>
      <point x="44.43041178794128" y="1261.305300610954"/>
      <point x="47.88514157006631" y="1214.8941860967732" type="curve" smooth="yes"/>
      <point x="102.88615948875153" y="764.8858270953252" type="line" smooth="yes"/>
      <point x="110.68251305975197" y="718.9136943094684"/>
      <point x="155.49497388929214" y="682.547680746809"/>
      <point x="204.63632365591434" y="681.0" type="curve" smooth="yes"/>
      <point x="254.77767342253654" y="682.547680746809"/>
      <point x="298.8199777251779" y="719.34921640853"/>
      <point x="306.3864878230771" y="764.8858270953252" type="curve" smooth="yes"/>
      <point x="361.38750574176237" y="1214.8941860967732" type="line" smooth="yes"/>
      <point x="364.8422355238874" y="1261.305300610954"/>
      <point x="327.38806770048683" y="1301.2552321337175"/>
      <point x="286.63632365591434" y="1303.0" type="curve" smooth="yes"/>
    </contour>
  </outline>
</glyph>
<glyph name="parenright" format="2">
  <advance width="709"/>
  <unicode hex="0029"/>
  <outline>
    <contour>
      <point x="68.75540483402656" y="1358.492855684536" type="curve" smooth="yes"/>
      <point x="47.94368306988842" y="1322.5820584196974"/>
      <point x="40.03767835451506" y="1263.3167018235408"/>
      <point x="75.23035135344203" y="1229.5911177978915" type="curve" smooth="yes"/>
      <point x="269.03928931237846" y="1102.842037504538"/>
      <point x="468.74016449900284" y="876.9958593123841"/>
      <point x="466.91016430825306" y="517.0" type="curve" smooth="yes"/>
      <point x="468.7624208786731" y="157.06899238349624"/>
      <point x="269.1756608116257" y="-64.71873518271215"/>
      <point x="75.23035135344203" y="-191.59111779789157" type="curve" smooth="yes"/>
      <point x="40.03767835451506" y="-225.3167018235409"/>
      <point x="47.94368306988842" y="-284.5820584196973"/>
      <point x="68.75540483402656" y="-320.4928556845359" type="curve" smooth="yes"/>
      <point x="91.15136455669776" y="-356.3023997661697"/>
      <point x="143.61035889320215" y="-387.922129872001"/>
      <point x="192.33509206594846" y="-366.19540875958234" type="curve" smooth="yes"/>
      <point x="421.7836807112738" y="-228.15556096295091"/>
      <point x="681.0290688922358" y="82.847602575006"/>
      <point x="682.9101643082531" y="517.0" type="curve" smooth="yes"/>
      <point x="681.0481255089376" y="951.0973622930541"/>
      <point x="421.8991566795904" y="1266.050074446009"/>
      <point x="192.33509206594846" y="1404.1954087595823" type="curve" smooth="yes"/>
      <point x="143.61035889320215" y="1425.922129872001"/>
      <point x="91.15136455669776" y="1394.3023997661696"/>
    </contour>
  </outline>
</glyph>
<glyph name="asterisk" format="2">
  <advance width="1200"/>
  <unicode hex="002A"/>
  <outline>
    <contour>
      <point x="1042.941921376579" y="613.6996815044462" type="line" smooth="yes"/>
      <point x="1112.3117092135167" y="631.3016154047843"/>
      <point x="1155.0044896613279" y="698.7383536421917"/>
      <point x="1133.45927681722" y="775.3715529956538" type="curve" smooth="yes"/>
      <point x="1106.6917798794555" y="850.161337935261"/>
      <point x="1033.364808442778" y="881.9567198582167"/>
      <point x="967.0145591467145" y="854.954307620198" type="curve" smooth="yes"/>
      <point x="660.7735305621877" y="715.2654259861943" type="line" smooth="yes"/>
      <point x="664.4020263759963" y="712.550609227945"/>
      <point x="684.3331355422881" y="698.0227943525782"/>
      <point x="688.0282724833392" y="695.3994043913681" type="curve" smooth="yes"/>
      <point x="726.8570623764273" y="1026.1146221674642" type="line" smooth="yes"/>
      <point x="731.9205165634694" y="1097.8026678247518"/>
      <point x="679.2635949235957" y="1158.7420069028915"/>
      <point x="600.0797942942031" y="1161.0" type="curve" smooth="yes"/>
      <point x="521.0023904330017" y="1158.7826417400038"/>
      <point x="467.2390720249369" y="1097.8026678247518"/>
      <point x="473.30579273611244" y="1026.0863292481242" type="curve" smooth="yes"/>
      <point x="511.4536068019561" y="695.4719998456537" type="line" smooth="yes"/>
      <point x="515.1544186237148" y="698.0891351800593"/>
      <point x="535.0672763282056" y="712.5605960156519"/>
      <point x="538.6992345401914" y="715.2724745241868" type="curve" smooth="yes"/>
      <point x="233.16678577190643" y="854.944412599161" type="line" smooth="yes"/>
      <point x="166.77767327029545" y="881.9575795218467"/>
      <point x="92.46780870895067" y="850.161337935261"/>
      <point x="66.7003117711864" y="775.3715529956538" type="curve" smooth="yes"/>
      <point x="44.13516892378792" y="699.0603071216906"/>
      <point x="86.84787937488963" y="631.3016154047843"/>
      <point x="156.228955733553" y="613.6973572968163" type="curve" smooth="yes"/>
      <point x="484.0539674404487" y="547.327704019489" type="line" smooth="yes"/>
      <point x="482.70491890299513" y="551.6614134177732"/>
      <point x="475.1145218041267" y="574.7466834836753"/>
      <point x="473.6285414170124" y="579.0353699252671" type="curve" smooth="yes"/>
      <point x="239.88085276399963" y="320.8257167632779" type="line" smooth="yes"/>
      <point x="193.46389310015869" y="266.5073894833582"/>
      <point x="200.94025190002324" y="187.9168620545217"/>
      <point x="264.2465161326799" y="139.3840430662335" type="curve" smooth="yes"/>
      <point x="331.2924569475345" y="94.90381627665842"/>
      <point x="408.041830504053" y="117.04486629745011"/>
      <point x="446.542826978118" y="177.03150846225384" type="curve" smooth="yes"/>
      <point x="616.3655893862876" y="474.72823255059615" type="line" smooth="yes"/>
      <point x="611.8247748790749" y="474.80315198522106"/>
      <point x="587.6745913257191" y="474.7824660140022"/>
      <point x="583.1339118267819" y="474.6997677762382" type="curve" smooth="yes"/>
      <point x="753.6049306110166" y="177.05206765243696" type="line" smooth="yes"/>
      <point x="790.9256692002672" y="117.20863048765662"/>
      <point x="868.7954380003773" y="93.88702909433565"/>
      <point x="936.0325527590488" y="139.47024464976982" type="curve" smooth="yes"/>
      <point x="998.3695043016897" y="187.1401933283422"/>
      <point x="1005.7420488041987" y="266.38957785173744"/>
      <point x="959.2787332591168" y="320.82571959528445" type="curve" smooth="yes"/>
      <point x="725.643107772376" y="578.911589976961" type="line" smooth="yes"/>
      <point x="724.157212401987" y="574.6225661493022"/>
      <point x="716.5764915992169" y="551.5512364776014"/>
      <point x="715.228901294972" y="547.2167687112114" type="curve" smooth="yes"/>
    </contour>
  </outline>
</glyph>
<glyph name="plus" format="2">
  <advance width="1132"/>
  <unicode hex="002B"/>
  <outline>
    <contour>
      <point x="185.0" y="688.0" type="line" smooth="yes"/>
      <point x="129.71230949748747" y="686.4062250829145"/>
      <point x="89.01515499505871" y="642.2462112512353"/>
      <point x="88.0" y="582.0" type="curve" smooth="yes"/>
      <point x="89.01515499505871" y="521.7537887487647"/>
      <point x="129.71230949748747" y="477.59377491708557"/>
      <point x="185.0" y="476.0" type="curve" smooth="yes"/>
      <point x="468.0" y="476.0" type="line" smooth="yes"/>
      <point x="467.3177212460376" y="479.2291941405057"/>
      <point x="463.2291941405057" y="483.3177212460376"/>
      <point x="460.0" y="484.0" type="curve" smooth="yes"/>
      <point x="460.0" y="201.0" type="line" smooth="yes"/>
      <point x="461.59377491708557" y="145.71230949748747"/>
      <point x="505.7537887487647" y="105.01515499505871"/>
      <point x="566.0" y="104.0" type="curve" smooth="yes"/>
      <point x="626.2462112512353" y="105.01515499505871"/>
      <point x="670.4062250829145" y="145.71230949748747"/>
      <point x="672.0" y="201.0" type="curve" smooth="yes"/>
      <point x="672.0" y="484.0" type="line" smooth="yes"/>
      <point x="668.7708058594943" y="483.3177212460376"/>
      <point x="664.6822787539624" y="479.2291941405057"/>
      <point x="664.0" y="476.0" type="curve" smooth="yes"/>
      <point x="947.0" y="476.0" type="line" smooth="yes"/>
      <point x="1002.2876905025125" y="477.59377491708557"/>
      <point x="1042.9848450049412" y="521.7537887487647"/>
      <point x="1044.0" y="582.0" type="curve" smooth="yes"/>
      <point x="1042.9848450049412" y="642.2462112512353"/>
      <point x="1002.2876905025125" y="686.4062250829145"/>
      <point x="947.0" y="688.0" type="curve" smooth="yes"/>
      <point x="664.0" y="688.0" type="line" smooth="yes"/>
      <point x="664.6822787539624" y="684.7708058594943"/>
      <point x="668.7708058594943" y="680.6822787539624"/>
      <point x="672.0" y="680.0" type="curve" smooth="yes"/>
      <point x="672.0" y="963.0" type="line" smooth="yes"/>
      <point x="670.4062250829145" y="1018.2876905025125"/>
      <point x="626.2462112512353" y="1058.9848450049412"/>
      <point x="566.0" y="1060.0" type="curve" smooth="yes"/>
      <point x="505.7537887487647" y="1058.9848450049412"/>
      <point x="461.59377491708557" y="1018.2876905025125"/>
      <point x="460.0" y="963.0" type="curve" smooth="yes"/>
      <point x="460.0" y="680.0" type="line" smooth="yes"/>
      <point x="463.2291941405057" y="680.6822787539624"/>
      <point x="467.3177212460376" y="684.7708058594943"/>
      <point x="468.0" y="688.0" type="curve" smooth="yes"/>
    </contour>
  </outline>
</glyph>
<glyph name="comma" format="2">
  <advance width="560"/>
  <unicode hex="002C"/>
  <outline>
    <contour>
      <point x="239.5906427363833" y="328.0" type="line" smooth="yes"/>
      <point x="201.8844387919777" y="326.58511324193313"/>
      <point x="163.4358832621568" y="297.4928556845359"/>
      <point x="154.2184576368176" y="260.50363449775" type="curve" smooth="yes"/>
      <point x="60.21704607416809" y="-221.5036128634619" type="line" smooth="yes"/>
      <point x="52.3306824829003" y="-277.05514308407214"/>
      <point x="97.59172387590752" y="-326.4964862965463"/>
      <point x="163.5906427363833" y="-328.0" type="curve" smooth="yes"/>
      <point x="215.47352688892022" y="-327.48718671444095"/>
      <point x="261.9272289812085" y="-304.74301097056116"/>
      <point x="280.73999212305773" y="-266.62784035667005" type="curve" smooth="yes"/>
      <point x="492.7413694874542" y="217.3753083381636" type="line" smooth="yes"/>
      <point x="510.48406608397875" y="263.31004576606387"/>
      <point x="485.143530565256" y="322.4919348800545"/>
      <point x="433.5906427363833" y="328.0" type="curve" smooth="yes"/>
    </contour>
  </outline>
</glyph>
<glyph name="hyphen" format="2">
  <advance width="1072"/>
  <unicode hex="002D"/>
  <outline>
    <contour>
      <point x="155.0" y="688.0" type="line" smooth="yes"/>
      <point x="99.71230949748747" y="686.4062250829145"/>
      <point x="59.015154995058715" y="642.2462112512353"/>
      <point x="58.0" y="582.0" type="curve" smooth="yes"/>
      <point x="59.015154995058715" y="521.7537887487647"/>
      <point x="99.71230949748747" y="477.59377491708557"/>
      <point x="155.0" y="476.0" type="curve" smooth="yes"/>
      <point x="917.0" y="476.0" type="line" smooth="yes"/>
      <point x="972.2876905025125" y="477.59377491708557"/>
      <point x="1012.9848450049412" y="521.7537887487647"/>
      <point x="1014.0" y="582.0" type="curve" smooth="yes"/>
      <point x="1012.9848450049412" y="642.2462112512353"/>
      <point x="972.2876905025125" y="686.4062250829145"/>
      <point x="917.0" y="688.0" type="curve" smooth="yes"/>
    </contour>
  </outline>
</glyph>
<glyph name="period" format="2">
  <advance width="454"/>
  <unicode hex="002E"/>
  <outline>
    <contour>
      <point x="58.0" y="237.0" type="curve" smooth="yes"/>
      <point x="58.0" y="53.0" type="line" smooth="yes"/>
      <point x="63.29676428157467" y="-10.22427664661926"/>
      <point x="127.50643351690539" y="-43.70174862320958"/>
      <point x="227.0" y="-44.0" type="curve" smooth="yes"/>
      <point x="326.4935664830946" y="-43.70174862320958"/>
      <point x="390.70323571842533" y="-10.22427664661926"/>
      <point x="396.0" y="53.0" type="curve" smooth="yes"/>
      <point x="396.0" y="237.0" type="line" smooth="yes"/>
      <point x="390.70323571842533" y="300.2242766466193"/>
      <point x="326.4935664830946" y="333.7017486232096"/>
      <point x="227.0" y="334.0" type="curve" smooth="yes"/>
      <point x="127.50643351690539" y="333.7017486232096"/>
      <point x="63.29676428157467" y="300.2242766466193"/>
    </contour>
  </outline>
</glyph>
<glyph name="zero" format="2">
  <advance width="1080"/>
  <unicode hex="0030"/>
  <outline>
    <contour>
      <point x="82.0" y="593.0" type="curve" smooth="yes"/>
      <point x="83.14801205355762" y="214.2394698809487"/>
      <point x="262.98940493048286" y="-51.43874412030717"/>
      <point x="540.0" y="-56.0" type="curve" smooth="yes"/>
      <point x="817.0105950695171" y="-51.43874412030717"/>
      <point x="996.8519879464424" y="214.2394698809487"/>
      <point x="998.0" y="593.0" type="curve" smooth="yes"/>
      <point x="996.8555263013156" y="971.7472505087918"/>
      <point x="817.0625669342286" y="1238.4086519516786"/>
      <point x="540.0" y="1243.0" type="curve" smooth="yes"/>
      <point x="262.9374330657714" y="1238.4086519516786"/>
      <point x="83.1444736986844" y="971.7472505087918"/>
    </contour>
    <contour>
      <point x="276.0172829962575" y="452.6154814299856" type="line" smooth="yes"/>
      <point x="281.35767583842846" y="452.7741468036827"/>
      <point x="310.58878347374633" y="444.77151893592696"/>
      <point x="315.10364393398163" y="441.91477158375795" type="curve" smooth="yes"/>
      <point x="309.36629975207376" y="470.5757422097535"/>
      <point x="303.9663346406743" y="527.902787067552"/>
      <point x="304.0" y="593.0" type="curve" smooth="yes"/>
      <point x="303.0502395718469" y="883.0199207871395"/>
      <point x="401.1156511693287" y="1032.2280834369485"/>
      <point x="540.0" y="1027.0" type="curve" smooth="yes"/>
      <point x="613.2778881811728" y="1028.5299438909183"/>
      <point x="669.4521290364593" y="989.8857365831577"/>
      <point x="700.2809384035561" y="930.2783222604158" type="curve" smooth="yes"/>
      <point x="703.0368000000558" y="929.8580898098776"/>
      <point x="702.644634987215" y="926.5435494759477"/>
      <point x="699.8667976659087" y="926.7780452496951" type="curve" smooth="yes"/>
    </contour>
    <contour>
      <point x="776.0" y="593.0" type="curve" smooth="yes"/>
      <point x="776.9536625616014" y="302.99622297759964"/>
      <point x="678.9608507225594" y="154.81994263259753"/>
      <point x="540.0" y="160.0" type="curve" smooth="yes"/>
      <point x="466.8229890339332" y="158.49326243697226"/>
      <point x="410.7593764588464" y="196.725494365703"/>
      <point x="380.0440785203264" y="255.73270618659933" type="curve" smooth="yes"/>
      <point x="377.28994499565465" y="256.1229693566221"/>
      <point x="377.66964361932514" y="259.3759164963678"/>
      <point x="380.4396198564907" y="259.1213807245491" type="curve" smooth="yes"/>
      <point x="804.0436095669143" y="733.2469461493598" type="line" smooth="yes"/>
      <point x="798.706717381126" y="733.0887976244164"/>
      <point x="769.4413109561965" y="741.1071179290099"/>
      <point x="764.930343764139" y="743.9634449675067" type="curve" smooth="yes"/>
      <point x="770.6508402667355" y="715.28642272773"/>
      <point x="776.033521882093" y="657.9897203636775"/>
    </contour>
  </outline>
</glyph>
<glyph name="one" format="2">
  <advance width="1080"/>
  <unicode hex="0031"/>
  <outline>
    <contour>
      <point x="327.4861486329656" y="988.2785534276635" type="line" smooth="yes"/>
      <point x="311.2429556152" y="959.6362288939272"/>
      <point x="305.172781657918" y="912.9909468609164"/>
      <point x="315.30905922235615" y="863.0172295417132" type="curve" smooth="yes"/>
      <point x="327.589824109328" y="808.6635834505829"/>
      <point x="390.7436633413872" y="795.7278271021413"/>
      <point x="409.2467810260771" y="821.8121632309374" type="curve" smooth="yes"/>
      <point x="486.82684806065254" y="954.3878265452022" type="line" smooth="yes"/>
      <point x="485.3243244473653" y="956.6219092955419"/>
      <point x="439.0385518602214" y="969.1693454986101"/>
      <point x="436.6134056690132" y="968.0" type="curve" smooth="yes"/>
      <point x="436.6134056690132" y="170.0" type="line" smooth="yes"/>
      <point x="439.8425998095189" y="170.68227875396235"/>
      <point x="443.93112691505087" y="174.77080585949432"/>
      <point x="444.6134056690132" y="178.0" type="curve" smooth="yes"/>
      <point x="372.6258463135559" y="178.0" type="line" smooth="yes"/>
      <point x="333.89547403702414" y="169.63192977045503"/>
      <point x="315.81719902787626" y="127.08350166194113"/>
      <point x="315.67708705930374" y="72.0" type="curve" smooth="yes"/>
      <point x="315.81719902787626" y="16.916498338058865"/>
      <point x="333.89547403702414" y="-25.631929770455027"/>
      <point x="372.6258463135559" y="-34.0" type="curve" smooth="yes"/>
      <point x="713.5012407457479" y="-34.0" type="line" smooth="yes"/>
      <point x="752.2316130222796" y="-25.631929770455052"/>
      <point x="770.3098880314275" y="16.91649833805884"/>
      <point x="770.45" y="72.0" type="curve" smooth="yes"/>
      <point x="770.3098880314275" y="127.08350166194116"/>
      <point x="752.2316130222796" y="169.63192977045506"/>
      <point x="713.5012407457479" y="178.0" type="curve" smooth="yes"/>
      <point x="646.6134056690132" y="178.0" type="line" smooth="yes"/>
      <point x="647.2956844229756" y="174.77080585949432"/>
      <point x="651.3842115285075" y="170.68227875396235"/>
      <point x="654.6134056690132" y="170.0" type="curve" smooth="yes"/>
      <point x="654.6134056690132" y="1157.0" type="line" smooth="yes"/>
      <point x="647.6673506297905" y="1231.5933013880542"/>
      <point x="565.5332168294573" y="1257.7542894908715"/>
      <point x="503.5692516558755" y="1221.8563959000555" type="curve" smooth="yes"/>
    </contour>
  </outline>
</glyph>
<glyph name="two" format="2">
  <advance width="1080"/>
  <unicode hex="0032"/>
  <outline>
    <contour>
      <point x="154.37638230733728" y="1122.7653314162142" type="curve" smooth="yes"/>
      <point x="115.10747282575748" y="1092.8036530970555"/>
      <point x="100.01515499505871" y="1033.7537887487647"/>
      <point x="132.09768215561357" y="978.0931291616301" type="curve" smooth="yes"/>
      <point x="168.86363277482366" y="923.3681772962778"/>
      <point x="232.85778245413022" y="913.1741003170469"/>
      <point x="272.76209858644927" y="939.333061978971" type="curve" smooth="yes"/>
      <point x="351.6023146091537" y="995.7912632035534"/>
      <point x="441.22286556936086" y="1027.5743220845761"/>
      <point x="524.0" y="1027.0" type="curve" smooth="yes"/>
      <point x="660.7430177570112" y="1028.917600607482"/>
      <point x="720.3888070503228" y="968.4807156634942"/>
      <point x="718.0" y="859.0" type="curve" smooth="yes"/>
      <point x="719.3515092288753" y="769.4908403404432"/>
      <point x="676.3462889522306" y="709.3133840884244"/>
      <point x="560.7875650702008" y="591.8696039927402" type="curve" smooth="yes"/>
      <point x="120.77354362319787" y="145.85537279991456" type="line" smooth="yes"/>
      <point x="105.02968101902141" y="127.05552802552424"/>
      <point x="96.22754906975737" y="97.92702917793518"/>
      <point x="96.0" y="68.0" type="curve" smooth="yes"/>
      <point x="97.1320222527086" y="9.299652949246394"/>
      <point x="138.65948165148916" y="-32.691814219787986"/>
      <point x="193.0" y="-34.0" type="curve" smooth="yes"/>
      <point x="887.0" y="-34.0" type="line" smooth="yes"/>
      <point x="942.2876905025125" y="-32.40622508291445"/>
      <point x="982.9848450049412" y="11.753788748764679"/>
      <point x="984.0" y="72.0" type="curve" smooth="yes"/>
      <point x="982.9848450049412" y="132.2462112512353"/>
      <point x="942.2876905025125" y="176.40622508291446"/>
      <point x="887.0" y="178.0" type="curve" smooth="yes"/>
      <point x="421.8826904296875" y="178.0" type="line" smooth="yes"/>
      <point x="411.6379266786282" y="174.41553542745677"/>
      <point x="422.0470613374221" y="149.54581234936546"/>
      <point x="431.7907543399243" y="154.3274456748961" type="curve" smooth="yes"/>
      <point x="726.2207605256494" y="453.13884412776395" type="line" smooth="yes"/>
      <point x="856.7686189215268" y="585.8194166245086"/>
      <point x="938.5767905474298" y="704.2658992388158"/>
      <point x="940.0" y="859.0" type="curve" smooth="yes"/>
      <point x="937.250931020614" y="1093.3932561516917"/>
      <point x="766.8526462304203" y="1241.2214225290775"/>
      <point x="523.0" y="1243.0" type="curve" smooth="yes"/>
      <point x="398.19150285752085" y="1242.5001695659262"/>
      <point x="259.9007894242874" y="1196.4633195825782"/>
    </contour>
  </outline>
</glyph>
<glyph name="three" format="2">
  <advance width="1080"/>
  <unicode hex="0033"/>
  <outline>
    <contour>
      <point x="179.90679107574314" y="1142.24651822342" type="curve" smooth="yes"/>
      <point x="138.7215387328256" y="1115.4613484263289"/>
      <point x="119.84259182250186" y="1056.657619021703"/>
      <point x="149.34987144594893" y="997.8063729496145" type="curve" smooth="yes"/>
      <point x="182.79437547446753" y="941.4670093263443"/>
      <point x="244.73466793697713" y="929.835005929698"/>
      <point x="284.8463810190116" y="951.9101480196297" type="curve" smooth="yes"/>
      <point x="370.249126159612" y="1004.0176371287494"/>
      <point x="449.2423819146742" y="1027.3691488025725"/>
      <point x="531.2457983081993" y="1027.0" type="curve" smooth="yes"/>
      <point x="666.1863068406082" y="1028.5222132617776"/>
      <point x="726.1832477671837" y="977.1754582757019"/>
      <point x="723.2457983081993" y="879.0" type="curve" smooth="yes"/>
      <point x="725.9007882599691" y="770.1715733713307"/>
      <point x="668.9425204063995" y="723.7024314123871"/>
      <point x="525.2457983081993" y="725.0" type="curve" smooth="yes"/>
      <point x="470.24579830819926" y="725.0" type="line" smooth="yes"/>
      <point x="415.9052799596884" y="723.691814219788"/>
      <point x="374.3778205609078" y="681.7003470507536"/>
      <point x="373.24579830819926" y="623.0" type="curve" smooth="yes"/>
      <point x="374.3778205609078" y="564.2996529492464"/>
      <point x="415.9052799596884" y="522.308185780212"/>
      <point x="470.24579830819926" y="521.0" type="curve" smooth="yes"/>
      <point x="543.2457983081993" y="521.0" type="line" smooth="yes"/>
      <point x="688.9913884311629" y="522.2837059276603"/>
      <point x="763.3236661382821" y="469.864168150895"/>
      <point x="760.2457983081993" y="345.0" type="curve" smooth="yes"/>
      <point x="762.6478273826376" y="225.55261858686697"/>
      <point x="696.3056142427794" y="158.19180598560342"/>
      <point x="538.2457983081993" y="160.0" type="curve" smooth="yes"/>
      <point x="438.82337114230825" y="159.35769080155268"/>
      <point x="341.6786238314547" y="197.76511792891546"/>
      <point x="260.7219084539439" y="259.14275065831265" type="curve" smooth="yes"/>
      <point x="220.10358076232947" y="286.82589968295315"/>
      <point x="155.85305853348845" y="275.4263256040545"/>
      <point x="119.34348046381281" y="220.90687083836985" type="curve" smooth="yes"/>
      <point x="87.26095330325796" y="165.2462112512353"/>
      <point x="102.35327113395674" y="106.19634690294447"/>
      <point x="141.23594456710617" y="76.51171607284182" type="curve" smooth="yes"/>
      <point x="249.64563183894805" y="-2.20984617854997"/>
      <point x="399.12057690406965" y="-55.443708866547574"/>
      <point x="538.2457983081993" y="-56.0" type="curve" smooth="yes"/>
      <point x="811.9275703711594" y="-53.93017697209092"/>
      <point x="979.7783276920184" y="115.28388460816015"/>
      <point x="982.2457983081993" y="345.0" type="curve" smooth="yes"/>
      <point x="980.777693265705" y="493.8831073288625"/>
      <point x="898.5778817318264" y="607.6374345432642"/>
      <point x="811.8798004699493" y="645.5431431304717" type="curve" smooth="yes"/>
      <point x="803.3021975124723" y="645.0135156971166"/>
      <point x="804.3076527317347" y="620.7646056005069"/>
      <point x="812.8996575803878" y="620.9468976601346" type="curve" smooth="yes"/>
      <point x="874.7309017919229" y="654.4144368712288"/>
      <point x="943.8118920057184" y="750.2301718907443"/>
      <point x="945.2457983081993" y="879.0" type="curve" smooth="yes"/>
      <point x="942.1982585419278" y="1094.0693001062402"/>
      <point x="772.1495683708753" y="1241.2041580920895"/>
      <point x="530.2457983081993" y="1243.0" type="curve" smooth="yes"/>
      <point x="411.33329052956265" y="1242.6432350900568"/>
      <point x="290.5955840676979" y="1207.1395512361437"/>
    </contour>
  </outline>
</glyph>
<glyph name="four" format="2">
  <advance width="1080"/>
  <unicode hex="0034"/>
  <outline>
    <contour>
      <point x="548.7387769059568" y="1166.9024672788692" type="curve" smooth="yes"/>
      <point x="64.7518606347821" y="443.92201422690584" type="line" smooth="yes"/>
      <point x="54.74906897938604" y="428.3932561516917"/>
      <point x="47.27602340068108" y="401.3235867435024"/>
      <point x="47.0" y="376.0" type="curve" smooth="yes"/>
      <point x="48.177644637038945" y="317.12909314514565"/>
      <point x="89.2232811861886" y="270.1047198792608"/>
      <point x="146.0" y="268.0" type="curve" smooth="yes"/>
      <point x="576.0" y="268.0" type="line" smooth="yes"/>
      <point x="586.9777212460377" y="271.2291941405057"/>
      <point x="593.2291941405057" y="264.9777212460377"/>
      <point x="590.0" y="254.0" type="curve" smooth="yes"/>
      <point x="590.0" y="55.0" type="line" smooth="yes"/>
      <point x="591.2331792561819" y="-0.07388882136500641"/>
      <point x="633.5445315899165" y="-42.931824334009775"/>
      <point x="698.0" y="-44.0" type="curve" smooth="yes"/>
      <point x="700.0" y="-44.0" type="line" smooth="yes"/>
      <point x="764.4554684100835" y="-42.931824334009775"/>
      <point x="806.7668207438181" y="-0.07388882136500641"/>
      <point x="808.0" y="55.0" type="curve" smooth="yes"/>
      <point x="808.0" y="254.0" type="line" smooth="yes"/>
      <point x="804.7708058594943" y="264.9777212460377"/>
      <point x="811.0222787539623" y="271.2291941405057"/>
      <point x="822.0" y="268.0" type="curve" smooth="yes"/>
      <point x="936.0" y="268.0" type="line" smooth="yes"/>
      <point x="991.2876905025125" y="269.59377491708557"/>
      <point x="1031.9848450049412" y="313.7537887487647"/>
      <point x="1033.0" y="374.0" type="curve" smooth="yes"/>
      <point x="1031.9848450049412" y="434.2462112512353"/>
      <point x="991.2876905025125" y="478.40622508291443"/>
      <point x="936.0" y="480.0" type="curve" smooth="yes"/>
      <point x="822.0" y="480.0" type="line" smooth="yes"/>
      <point x="811.0222787539623" y="476.7708058594943"/>
      <point x="804.7708058594943" y="483.0222787539623"/>
      <point x="808.0" y="494.0" type="curve" smooth="yes"/>
      <point x="808.0" y="1131.0" type="line" smooth="yes"/>
      <point x="806.3775977934305" y="1188.377435190202"/>
      <point x="760.4121138410559" y="1241.0275452958665"/>
      <point x="687.0" y="1243.0" type="curve" smooth="yes"/>
      <point x="627.0351988507756" y="1242.0539247692814"/>
      <point x="579.3601065908877" y="1212.4280953725986"/>
    </contour>
    <contour>
      <point x="590.9144299869474" y="494.4790727788207" type="line" smooth="yes"/>
      <point x="593.9484123366947" y="483.3769880536869"/>
      <point x="587.2855594435443" y="476.8083047201457"/>
      <point x="576.227783203125" y="480.0" type="curve" smooth="yes"/>
      <point x="326.0" y="480.0" type="line" smooth="yes"/>
      <point x="316.4781887916157" y="476.04348957086177"/>
      <point x="324.14148072057327" y="461.941958323577"/>
      <point x="332.6413045652999" y="467.77906874506215" type="curve" smooth="yes"/>
      <point x="634.4157984806122" y="933.2278644449509" type="line" smooth="yes"/>
      <point x="638.9787507506736" y="945.0460075521547"/>
      <point x="600.0970484936528" y="956.8491528691555"/>
      <point x="597.3202416017634" y="944.4887975584711" type="curve" smooth="yes"/>
    </contour>
  </outline>
</glyph>
<glyph name="five" format="2">
  <advance width="1080"/>
  <unicode hex="0035"/>
  <outline>
    <contour>
      <point x="293.0344128065026" y="1221.0" type="line" smooth="yes"/>
      <point x="228.47041820614587" y="1219.9037687276862"/>
      <point x="187.4000416535372" y="1177.539277721636"/>
      <point x="184.0619792394936" y="1123.3688526345682" type="curve" smooth="yes"/>
      <point x="164.0619792394936" y="623.3688526345682" type="line" smooth="yes"/>
      <point x="163.4000416535372" y="566.460722278364"/>
      <point x="208.88911072825243" y="523.9900915776179"/>
      <point x="273.0344128065026" y="523.0" type="curve" smooth="yes"/>
      <point x="298.64209376858366" y="523.1001474929462"/>
      <point x="323.8431009045048" y="528.1165421353941"/>
      <point x="342.23366593663025" y="538.9395531175057" type="curve" smooth="yes"/>
      <point x="404.1402777990387" y="582.0567017040173"/>
      <point x="460.4222533898495" y="604.4296086729922"/>
      <point x="550.0344128065026" y="604.0" type="curve" smooth="yes"/>
      <point x="687.794959389257" y="606.683600570746"/>
      <point x="764.220021898504" y="522.0064796180164"/>
      <point x="762.0344128065026" y="386.0" type="curve" smooth="yes"/>
      <point x="764.341681005956" y="242.31140735328924"/>
      <point x="682.6538125588559" y="157.66576601801967"/>
      <point x="530.0344128065026" y="160.0" type="curve" smooth="yes"/>
      <point x="433.4552241906068" y="159.388219197342"/>
      <point x="337.9352890225688" y="196.05265604836518"/>
      <point x="258.0032799720798" y="253.51807304524667" type="curve" smooth="yes"/>
      <point x="217.89219526063277" y="280.82589968295315"/>
      <point x="153.64167303179175" y="269.4263256040545"/>
      <point x="117.13209496211611" y="214.90687083836985" type="curve" smooth="yes"/>
      <point x="84.8339388652164" y="158.32997476625798"/>
      <point x="102.43688789187055" y="98.82048941983007"/>
      <point x="141.46763699656572" y="69.19458174377394" type="curve" smooth="yes"/>
      <point x="248.88011072119647" y="-5.435951246959355"/>
      <point x="394.11853109617334" y="-55.481373083990924"/>
      <point x="530.0344128065026" y="-56.0" type="curve" smooth="yes"/>
      <point x="801.047583951015" y="-53.411102762616125"/>
      <point x="981.6345674573666" y="139.45287977098042"/>
      <point x="984.0344128065026" y="386.0" type="curve" smooth="yes"/>
      <point x="982.0500145205153" y="630.4455776127595"/>
      <point x="820.5055110631947" y="817.217455241556"/>
      <point x="563.0344128065026" y="820.0" type="curve" smooth="yes"/>
      <point x="479.57009030208235" y="819.7056349083729"/>
      <point x="400.1064486921183" y="797.839027499061"/>
      <point x="358.24553065899556" y="774.7535682622347" type="curve" smooth="yes"/>
      <point x="359.8448830316149" y="771.0964346774417"/>
      <point x="379.2700823514108" y="759.2016625933661"/>
      <point x="383.25454349377844" y="759.4396194671604" type="curve" smooth="yes"/>
      <point x="392.74025525518084" y="993.6634940512845" type="line" smooth="yes"/>
      <point x="390.07510906037265" y="1004.9901600887583"/>
      <point x="397.50089531115526" y="1012.121300378322"/>
      <point x="408.7104381971276" y="1009.0" type="curve" smooth="yes"/>
      <point x="827.0344128065026" y="1009.0" type="line" smooth="yes"/>
      <point x="882.3221033090151" y="1010.5937749170855"/>
      <point x="923.0192578114438" y="1054.7537887487647"/>
      <point x="924.0344128065026" y="1115.0" type="curve" smooth="yes"/>
      <point x="923.0192578114438" y="1175.2462112512353"/>
      <point x="882.3221033090151" y="1219.4062250829145"/>
      <point x="827.0344128065026" y="1221.0" type="curve" smooth="yes"/>
    </contour>
  </outline>
</glyph>
<glyph name="six" format="2">
  <advance width="1080"/>
  <unicode hex="0036"/>
  <outline>
    <contour>
      <point x="90.5" y="512.0" type="curve" smooth="yes"/>
      <point x="90.67812758174856" y="364.5242344550414"/>
      <point x="118.82099623617395" y="246.65331135358574"/>
      <point x="171.13151736945326" y="155.86838513218106" type="curve" smooth="yes"/>
      <point x="253.06673195608457" y="18.365025902550432"/>
      <point x="397.56993395242745" y="-55.06227536757168"/>
      <point x="547.5" y="-56.0" type="curve" smooth="yes"/>
      <point x="806.7781595627506" y="-53.70562722533076"/>
      <point x="986.7423059830511" y="122.58663663127672"/>
      <point x="989.5" y="353.0" type="curve" smooth="yes"/>
      <point x="986.6606903797152" y="594.6018886578122"/>
      <point x="802.8152484735109" y="762.6912394051682"/>
      <point x="569.5" y="765.0" type="curve" smooth="yes"/>
      <point x="447.9648824779751" y="764.1545170969097"/>
      <point x="328.9793658601151" y="708.1091050109919"/>
      <point x="268.1853920444556" y="630.2792883515732" type="curve" smooth="yes"/>
      <point x="269.2661318463425" y="627.7950308732214"/>
      <point x="314.1000324330162" y="609.3131541980777"/>
      <point x="316.61748873838883" y="610.3141274687841" type="curve" smooth="yes"/>
      <point x="346.0384740419915" y="846.053374856289"/>
      <point x="504.28386209582806" y="1011.1073583078086"/>
      <point x="861.2280436567941" y="1028.0439421439971" type="curve" smooth="yes"/>
      <point x="900.9997795733924" y="1032.7385255948054"/>
      <point x="934.2308380713749" y="1078.7302736618512"/>
      <point x="929.3699406142736" y="1144.9710474223048" type="curve" smooth="yes"/>
      <point x="921.9390553481403" y="1209.945493378646"/>
      <point x="875.1452232277578" y="1243.129300653617"/>
      <point x="836.9644977731998" y="1242.965309256821" type="curve" smooth="yes"/>
      <point x="298.69069029527594" y="1215.1009256777947"/>
      <point x="91.77899198514851" y="843.2377288600621"/>
    </contour>
    <contour>
      <point x="767.5" y="353.0" type="curve" smooth="yes"/>
      <point x="770.4360530580673" y="229.8214037054414"/>
      <point x="689.1445260518753" y="158.04767092026287"/>
      <point x="547.5" y="160.0" type="curve" smooth="yes"/>
      <point x="406.0629195258665" y="157.59387682742658"/>
      <point x="324.9228961347215" y="239.98466782426507"/>
      <point x="327.5" y="368.0" type="curve" smooth="yes"/>
      <point x="323.9951509231459" y="479.9651814053327"/>
      <point x="410.630447117287" y="550.8734821841944"/>
      <point x="547.5" y="549.0" type="curve" smooth="yes"/>
      <point x="693.0326367907304" y="550.9921949983025"/>
      <point x="770.1720943322042" y="478.7877963053209"/>
    </contour>
  </outline>
</glyph>
<glyph name="seven" format="2">
  <advance width="1080"/>
  <unicode hex="0037"/>
  <outline>
    <contour>
      <point x="227.74020144634846" y="1221.0" type="line" smooth="yes"/>
      <point x="177.4954981450196" y="1218.8648362979097"/>
      <point x="140.7477105850922" y="1174.0912092528151"/>
      <point x="140.0" y="1115.0" type="curve" smooth="yes"/>
      <point x="140.7477105850922" y="1055.9087907471849"/>
      <point x="177.4954981450196" y="1011.1351637020902"/>
      <point x="227.74020144634846" y="1009.0" type="curve" smooth="yes"/>
      <point x="726.7772761193539" y="1009.0" type="line" smooth="yes"/>
      <point x="724.7079776892881" y="1012.9201107170469"/>
      <point x="714.7854255730982" y="1027.210619210945"/>
      <point x="711.8354762653188" y="1030.5192538399288" type="curve" smooth="yes"/>
      <point x="352.82184923119314" y="67.8345668327676" type="line" smooth="yes"/>
      <point x="337.21733262366854" y="11.604976805328107"/>
      <point x="374.14213920475913" y="-41.22353017341074"/>
      <point x="423.04193451322425" y="-53.29997646677663" type="curve" smooth="yes"/>
      <point x="472.4898423363651" y="-61.83503130096874"/>
      <point x="526.5736635259996" y="-35.065350954725375"/>
      <point x="545.4283375910065" y="12.308858311381632" type="curve" smooth="yes"/>
      <point x="932.504915901513" y="1067.2987122558775" type="line" smooth="yes"/>
      <point x="936.3291614403929" y="1079.61473475772"/>
      <point x="939.5917988296878" y="1099.2896546183235"/>
      <point x="939.7" y="1119.0" type="curve" smooth="yes"/>
      <point x="938.8650459854183" y="1176.488639715268"/>
      <point x="901.1441466788112" y="1219.2396125103437"/>
      <point x="851.9597985536516" y="1221.0" type="curve" smooth="yes"/>
    </contour>
  </outline>
</glyph>
<glyph name="eight" format="2">
  <advance width="1080"/>
  <unicode hex="0038"/>
  <outline>
    <contour>
      <point x="139.0" y="879.0" type="curve" smooth="yes"/>
      <point x="140.92644433895447" y="754.7178447423458"/>
      <point x="221.21798074027163" y="653.8936092695902"/>
      <point x="302.8870290943356" y="637.7156437061742" type="curve"/>
      <point x="198.25681760685958" y="603.9391979131693"/>
      <point x="103.91092731557274" y="487.23794528610745"/>
      <point x="102.0" y="340.0" type="curve" smooth="yes"/>
      <point x="105.22461383609073" y="116.54747058600947"/>
      <point x="293.9583655950421" y="-53.79621110851628"/>
      <point x="540.0" y="-56.0" type="curve" smooth="yes"/>
      <point x="786.0416344049579" y="-53.79621110851628"/>
      <point x="974.7753861639093" y="116.54747058600947"/>
      <point x="978.0" y="340.0" type="curve" smooth="yes"/>
      <point x="976.0890726844273" y="487.23794528610745"/>
      <point x="881.6782147356884" y="603.9890984537232"/>
      <point x="776.0406765883787" y="638.0195816962084" type="curve"/>
      <point x="857.7034195662138" y="653.8282293466245"/>
      <point x="939.0228640709323" y="754.5747570400191"/>
      <point x="941.0" y="879.0" type="curve" smooth="yes"/>
      <point x="937.7743949023562" y="1078.4546400298946"/>
      <point x="764.4934703008919" y="1240.621404140878"/>
      <point x="540.0" y="1243.0" type="curve" smooth="yes"/>
      <point x="315.50652969910817" y="1240.621404140878"/>
      <point x="142.22560509764378" y="1078.4546400298946"/>
    </contour>
    <contour>
      <point x="756.0" y="341.0" type="curve" smooth="yes"/>
      <point x="759.3370972585357" y="229.6896696854457"/>
      <point x="675.5970339909996" y="158.03080339606834"/>
      <point x="540.0" y="160.0" type="curve" smooth="yes"/>
      <point x="404.40296600900035" y="158.03080339606834"/>
      <point x="320.6629027414643" y="229.6896696854457"/>
      <point x="324.0" y="341.0" type="curve" smooth="yes"/>
      <point x="320.6090486460465" y="452.19844126505734"/>
      <point x="404.17468294584626" y="521.8888421096372"/>
      <point x="540.0" y="520.0" type="curve" smooth="yes"/>
      <point x="675.8253170541537" y="521.8888421096372"/>
      <point x="759.3909513539535" y="452.19844126505734"/>
    </contour>
    <contour>
      <point x="721.0" y="876.0" type="curve" smooth="yes"/>
      <point x="724.62274717663" y="788.2716243702188"/>
      <point x="651.1430537912718" y="724.8655429359571"/>
      <point x="540.0" y="727.0" type="curve" smooth="yes"/>
      <point x="428.85694620872823" y="724.8655429359571"/>
      <point x="355.37725282337" y="788.2716243702188"/>
      <point x="359.0" y="876.0" type="curve" smooth="yes"/>
      <point x="355.44336500248386" y="974.8605968636297"/>
      <point x="427.6616040372733" y="1028.7148610138906"/>
      <point x="540.0" y="1027.0" type="curve" smooth="yes"/>
      <point x="652.3383959627267" y="1028.7148610138906"/>
      <point x="724.5566349975161" y="974.8605968636297"/>
    </contour>
  </outline>
</glyph>
<glyph name="nine" format="2">
  <advance width="1080"/>
  <unicode hex="0039"/>
  <outline>
    <contour>
      <point x="90.5" y="834.0" type="curve" smooth="yes"/>
      <point x="93.33930962028474" y="592.3981113421878"/>
      <point x="277.18475152648904" y="424.3087605948318"/>
      <point x="510.5" y="422.0" type="curve" smooth="yes"/>
      <point x="632.035117522025" y="422.8454829030904"/>
      <point x="751.8494602386894" y="479.5386971689484"/>
      <point x="767.0907805435464" y="591.6893696582255" type="curve"/>
      <point x="733.7192833732768" y="340.44117321914547"/>
      <point x="575.7161379041719" y="175.8926416921914"/>
      <point x="218.77195634320597" y="158.95605785600287" type="curve" smooth="yes"/>
      <point x="179.00022042660763" y="154.2614744051946"/>
      <point x="145.76916192862504" y="108.26972633814873"/>
      <point x="150.63005938572644" y="42.0289525776953" type="curve" smooth="yes"/>
      <point x="158.06094465185964" y="-22.945493378646027"/>
      <point x="204.85477677224222" y="-56.12930065361707"/>
      <point x="243.03550222680022" y="-55.965309256821016" type="curve" smooth="yes"/>
      <point x="781.3093097047241" y="-28.10092567779465"/>
      <point x="988.2210080148515" y="343.7622711399379"/>
      <point x="989.5" y="675.0" type="curve" smooth="yes"/>
      <point x="989.3218724182515" y="822.4757655449587"/>
      <point x="961.179003763826" y="940.3466886464142"/>
      <point x="908.8684826305467" y="1031.1316148678188" type="curve" smooth="yes"/>
      <point x="826.9332680439154" y="1168.6349740974495"/>
      <point x="682.4300660475725" y="1242.0622753675716"/>
      <point x="532.5" y="1243.0" type="curve" smooth="yes"/>
      <point x="273.22184043724934" y="1240.7056272253308"/>
      <point x="93.25769401694888" y="1064.4133633687234"/>
    </contour>
    <contour>
      <point x="752.5" y="819.0" type="curve" smooth="yes"/>
      <point x="756.004849076854" y="707.0348185946673"/>
      <point x="669.369552882713" y="636.1265178158056"/>
      <point x="532.5" y="638.0" type="curve" smooth="yes"/>
      <point x="386.9673632092696" y="636.0078050016975"/>
      <point x="309.82790566779573" y="708.212203694679"/>
      <point x="312.5" y="834.0" type="curve" smooth="yes"/>
      <point x="309.5639469419327" y="957.1785962945586"/>
      <point x="390.85547394812465" y="1028.9523290797372"/>
      <point x="532.5" y="1027.0" type="curve" smooth="yes"/>
      <point x="673.9370804741335" y="1029.4061231725734"/>
      <point x="755.0771038652786" y="947.0153321757349"/>
    </contour>
  </outline>
</glyph>
<glyph name="less" format="2">
  <advance width="1172"/>
  <unicode hex="003C"/>
  <outline>
    <contour>
      <point x="371.0" y="583.0" type="line"/>
      <point x="1023.6877200815754" y="874.3361633384652" type="line" smooth="yes"/>
      <point x="1074.3172389809013" y="900.2551749590436"/>
      <point x="1094.5004726935879" y="959.8067486002219"/>
      <point x="1068.4105244939972" y="1015.2052622469986" type="curve" smooth="yes"/>
      <point x="1041.5329906736556" y="1066.4514228337318"/>
      <point x="984.0963611942212" y="1091.8757860674195"/>
      <point x="931.0340646059501" y="1068.5290153424758" type="curve" smooth="yes"/>
      <point x="154.0215338435948" y="687.5228693212389" type="line" smooth="yes"/>
      <point x="117.07192725802344" y="668.54762996685"/>
      <point x="89.08300500520556" y="631.5130159469296"/>
      <point x="88.0" y="583.0" type="curve" smooth="yes"/>
      <point x="89.08300500520556" y="534.4869840530704"/>
      <point x="117.07192725802344" y="497.45237003315003"/>
      <point x="154.0215338435948" y="478.47713067876117" type="curve" smooth="yes"/>
      <point x="931.0340646059501" y="97.47098465752417" type="line" smooth="yes"/>
      <point x="984.0963611942212" y="74.12421393258046"/>
      <point x="1041.5329906736556" y="99.54857716626826"/>
      <point x="1068.4105244939972" y="150.79473775300144" type="curve" smooth="yes"/>
      <point x="1094.5004726935879" y="206.19325139977812"/>
      <point x="1074.3172389809013" y="265.74482504095636"/>
      <point x="1023.6877200815754" y="291.6638366615348" type="curve" smooth="yes"/>
    </contour>
  </outline>
</glyph>
<glyph name="greater" format="2">
  <advance width="1172"/>
  <unicode hex="003E"/>
  <outline>
    <contour>
      <point x="801.0653866290609" y="583.0" type="line"/>
      <point x="148.37766654748532" y="291.6638366615348" type="line" smooth="yes"/>
      <point x="97.7481476481596" y="265.74482504095636"/>
      <point x="77.56491393547302" y="206.19325139977812"/>
      <point x="103.65486213506367" y="150.79473775300144" type="curve" smooth="yes"/>
      <point x="130.5323959554051" y="99.54857716626826"/>
      <point x="187.96902543483964" y="74.12421393258046"/>
      <point x="241.0313220231107" y="97.47098465752417" type="curve" smooth="yes"/>
      <point x="1018.0438527854661" y="478.47713067876117" type="line" smooth="yes"/>
      <point x="1054.9934593710375" y="497.45237003315003"/>
      <point x="1082.9823816238554" y="534.4869840530704"/>
      <point x="1084.0653866290609" y="583.0" type="curve" smooth="yes"/>
      <point x="1082.9823816238554" y="631.5130159469296"/>
      <point x="1054.9934593710375" y="668.54762996685"/>
      <point x="1018.0438527854661" y="687.5228693212389" type="curve" smooth="yes"/>
      <point x="241.0313220231107" y="1068.5290153424758" type="line" smooth="yes"/>
      <point x="187.96902543483964" y="1091.8757860674195"/>
      <point x="130.5323959554051" y="1066.4514228337318"/>
      <point x="103.65486213506367" y="1015.2052622469986" type="curve" smooth="yes"/>
      <point x="77.56491393547302" y="959.8067486002219"/>
      <point x="97.7481476481596" y="900.2551749590436"/>
      <point x="148.37766654748532" y="874.3361633384652" type="curve" smooth="yes"/>
    </contour>
  </outline>
</glyph>
<glyph name="question" format="2">
  <advance width="888"/>
  <unicode hex="003F"/>
  <outline>
    <contour>
      <point x="113.98984645368175" y="1220.9075164428766" type="curve" smooth="yes"/>
      <point x="69.87511875061053" y="1195.7733407426683"/>
      <point x="46.478978493978616" y="1139.3685764237232"/>
      <point x="73.1291383978564" y="1077.1090736134236" type="curve" smooth="yes"/>
      <point x="103.34615668831724" y="1014.7347409912891"/>
      <point x="166.28085517138985" y="1004.9835624344706"/>
      <point x="203.99743776502783" y="1023.9127804390126" type="curve" smooth="yes"/>
      <point x="284.6287735445097" y="1066.3680378465003"/>
      <point x="362.54330363926823" y="1087.2834655422926"/>
      <point x="449.1620590487187" y="1087.0" type="curve" smooth="yes"/>
      <point x="562.8635590164997" y="1088.9321984379667"/>
      <point x="610.7269507544812" y="1040.0449250666172"/>
      <point x="608.1620590487187" y="956.0" type="curve" smooth="yes"/>
      <point x="611.0413479463447" y="869.6931128850446"/>
      <point x="560.6247661206612" y="836.242230877826"/>
      <point x="411.33849097778256" y="775.488983818632" type="curve" smooth="yes"/>
      <point x="342.47568180385866" y="747.5445055818141" type="line" smooth="yes"/>
      <point x="310.8184757082661" y="733.4660433421612"/>
      <point x="290.62466563842577" y="696.5895655683821"/>
      <point x="291.1946623680607" y="663.5113889900907" type="curve" smooth="yes"/>
      <point x="301.1993511201442" y="438.40799806584806" type="line" smooth="yes"/>
      <point x="307.1132698929186" y="393.0918175057529"/>
      <point x="352.4368511515118" y="356.42055354435706"/>
      <point x="404.1620590487187" y="355.0" type="curve" smooth="yes"/>
      <point x="455.88726694592555" y="356.42055354435706"/>
      <point x="501.21084820451875" y="393.0918175057529"/>
      <point x="507.1016430203306" y="437.9740089255126" type="curve" smooth="yes"/>
      <point x="514.3018401725491" y="561.0969536845702" type="line" smooth="yes"/>
      <point x="513.194590979655" y="575.3177846525782"/>
      <point x="526.6300386072564" y="594.0970943509398"/>
      <point x="540.4467086132348" y="597.6407738146781" type="curve" smooth="yes"/>
      <point x="705.8154182115733" y="665.3577054094497"/>
      <point x="827.621046874829" y="767.1030203164988"/>
      <point x="830.1620590487187" y="956.0" type="curve" smooth="yes"/>
      <point x="827.6322568982494" y="1153.8696016764854"/>
      <point x="679.8990424249282" y="1300.9099235540698"/>
      <point x="448.1620590487187" y="1303.0" type="curve" smooth="yes"/>
      <point x="329.32312965521294" y="1302.7825786628505"/>
      <point x="215.96724765945396" y="1275.7377783592403"/>
    </contour>
    <contour>
      <point x="255.16205904871867" y="167.0" type="curve" smooth="yes"/>
      <point x="255.16205904871867" y="53.0" type="line" smooth="yes"/>
      <point x="259.2413051779499" y="-8.147708438192648"/>
      <point x="317.90433485102426" y="-43.59101570749206"/>
      <point x="404.1620590487187" y="-44.0" type="curve" smooth="yes"/>
      <point x="490.4197832464131" y="-43.59101570749206"/>
      <point x="549.0828129194874" y="-8.147708438192648"/>
      <point x="553.1620590487187" y="53.0" type="curve" smooth="yes"/>
      <point x="553.1620590487187" y="167.0" type="line" smooth="yes"/>
      <point x="549.0828129194874" y="228.14770843819264"/>
      <point x="490.4197832464131" y="263.59101570749203"/>
      <point x="404.1620590487187" y="264.0" type="curve" smooth="yes"/>
      <point x="317.90433485102426" y="263.59101570749203"/>
      <point x="259.2413051779499" y="228.14770843819264"/>
    </contour>
  </outline>
</glyph>
<glyph name="at" format="2">
  <advance width="1304"/>
  <unicode hex="0040"/>
  <outline>
    <contour>
      <point x="58.0" y="389.0" type="curve" smooth="yes"/>
      <point x="59.951449747346174" y="42.647008028580196"/>
      <point x="271.2560421440767" y="-184.52128706392634"/>
      <point x="604.0" y="-187.0" type="curve" smooth="yes"/>
      <point x="717.2900431180622" y="-186.84044350006795"/>
      <point x="829.6337687945917" y="-164.6066020740026"/>
      <point x="903.6816494483068" y="-132.12575249489797" type="curve" smooth="yes"/>
      <point x="934.6307512928141" y="-116.4456047856698"/>
      <point x="953.9783370478167" y="-70.78648796257798"/>
      <point x="941.5159534157456" y="-26.06456978963331" type="curve" smooth="yes"/>
      <point x="927.4110604349013" y="17.05841505224276"/>
      <point x="885.7220797383287" y="47.51503846735385"/>
      <point x="846.8997372103677" y="39.46513039524667" type="curve" smooth="yes"/>
      <point x="782.2939462407574" y="19.115203992421094"/>
      <point x="695.1168057663828" y="3.877532245003266"/>
      <point x="602.0" y="4.0" type="curve" smooth="yes"/>
      <point x="366.19755759773795" y="1.33407846824905"/>
      <point x="247.2935614185363" y="143.63606557460147"/>
      <point x="249.0" y="389.0" type="curve" smooth="yes"/>
      <point x="246.96779184401746" y="698.4215594911244"/>
      <point x="435.4061525927165" y="924.6907528584107"/>
      <point x="697.0" y="921.0" type="curve" smooth="yes"/>
      <point x="927.002386757509" y="923.5824563341017"/>
      <point x="1058.9705334185767" y="780.5932795901064"/>
      <point x="1057.0" y="531.0" type="curve" smooth="yes"/>
      <point x="1057.82133322867" y="379.4280597249246"/>
      <point x="1011.9388970899947" y="291.15447310560415"/>
      <point x="930.0" y="297.0" type="curve" smooth="yes"/>
      <point x="887.7293003214352" y="292.0115823441666"/>
      <point x="873.9454061567637" y="319.9259804911639"/>
      <point x="894.9445008359997" y="395.59405777638153" type="curve" smooth="yes"/>
      <point x="971.9484142280766" y="697.6094100412972" type="line" smooth="yes"/>
      <point x="975.5091351195957" y="738.7739736971334"/>
      <point x="941.2967966123058" y="772.2715019592868"/>
      <point x="911.9381970140054" y="783.8351920373475" type="curve" smooth="yes"/>
      <point x="882.4208113841042" y="794.388219197342"/>
      <point x="836.1616579934766" y="793.872459248332"/>
      <point x="810.5106949666613" y="763.0466700164529" type="curve" smooth="yes"/>
      <point x="807.5776003004111" y="718.913595794245" type="line"/>
      <point x="813.6372276224914" y="762.3278256783944"/>
      <point x="758.5743872861646" y="816.5893144018281"/>
      <point x="682.0" y="819.0" type="curve" smooth="yes"/>
      <point x="480.997792507644" y="811.7377501007102"/>
      <point x="332.6184575767155" y="546.3651198878271"/>
      <point x="331.0" y="357.0" type="curve" smooth="yes"/>
      <point x="332.8755692510467" y="202.8635306736962"/>
      <point x="428.64106947082604" y="101.18083203494365"/>
      <point x="541.0" y="98.0" type="curve" smooth="yes"/>
      <point x="642.8437485297954" y="100.1295494107321"/>
      <point x="714.422381376605" y="164.42340758346273"/>
      <point x="748.1548968317474" y="232.0501017041508" type="curve"/>
      <point x="753.5214074909752" y="161.9768395670672"/>
      <point x="834.2301718907443" y="104.43390630248085"/>
      <point x="931.0" y="103.0" type="curve" smooth="yes"/>
      <point x="1115.743824902863" y="107.40871196412255"/>
      <point x="1244.6824071013211" y="286.6266192831236"/>
      <point x="1246.0" y="531.0" type="curve" smooth="yes"/>
      <point x="1243.932473474321" y="863.6754930436274"/>
      <point x="1025.7747685145105" y="1109.0846546123912"/>
      <point x="702.0" y="1112.0" type="curve" smooth="yes"/>
      <point x="336.11630940694624" y="1108.5691961675516"/>
      <point x="60.174309352654035" y="792.9635034508891"/>
    </contour>
    <contour>
      <point x="720.0" y="561.0" type="curve" smooth="yes"/>
      <point x="721.3291635494795" y="439.4136308416754"/>
      <point x="646.649462432349" y="291.6213479434049"/>
      <point x="566.0" y="300.0" type="curve" smooth="yes"/>
      <point x="541.2786947931097" y="297.2997805837587"/>
      <point x="532.556442926732" y="303.8019398058978"/>
      <point x="534.0" y="359.0" type="curve" smooth="yes"/>
      <point x="532.0794580636527" y="496.7346384726303"/>
      <point x="626.9096098884227" y="632.0005962657384"/>
      <point x="678.0" y="624.0" type="curve" smooth="yes"/>
      <point x="710.7777953844004" y="627.1174985489838"/>
      <point x="721.4246779024966" y="613.2609861770351"/>
    </contour>
  </outline>
</glyph>
<glyph name="A" format="2">
  <advance width="1133"/>
  <unicode hex="0041"/>
  <outline>
    <contour>
      <point x="422.5140942948826" y="1155.834004327631" type="curve" smooth="yes"/>
      <point x="28.515166656260526" y="95.83689225767401" type="line" smooth="yes"/>
      <point x="10.421204357339768" y="41.498542352406346"/>
      <point x="39.32956789352071" y="-12.807761006277222"/>
      <point x="100.54611204513654" y="-34.22498878079436" type="curve" smooth="yes"/>
      <point x="161.78048338313582" y="-53.89985250705377"/>
      <point x="216.82150023043425" y="-28.085120915962733"/>
      <point x="237.27720188282532" y="24.20638796106138" type="curve" smooth="yes"/>
      <point x="337.25451328853444" y="293.80033032348837" type="line" smooth="yes"/>
      <point x="335.7914725018877" y="296.19512379418995"/>
      <point x="338.6796398671605" y="298.204434236319"/>
      <point x="340.4163015522481" y="296.0" type="curve" smooth="yes"/>
      <point x="792.3600271381856" y="296.0" type="line" smooth="yes"/>
      <point x="794.0966888232732" y="298.204434236319"/>
      <point x="796.9848561885459" y="296.19512379418995"/>
      <point x="795.5218154018993" y="293.80033032348837" type="curve" smooth="yes"/>
      <point x="895.4991268076084" y="24.20638796106138" type="line" smooth="yes"/>
      <point x="915.9548284599995" y="-28.085120915962733"/>
      <point x="970.9958453072979" y="-53.89985250705377"/>
      <point x="1032.230216645297" y="-34.22498878079436" type="curve" smooth="yes"/>
      <point x="1093.446760796913" y="-12.807761006277222"/>
      <point x="1122.355124333094" y="41.498542352406346"/>
      <point x="1104.2611620341731" y="95.83689225767401" type="curve" smooth="yes"/>
      <point x="710.2622343955511" y="1155.834004327631" type="line" smooth="yes"/>
      <point x="688.5379595454468" y="1211.466768689404"/>
      <point x="635.7176561553044" y="1242.4056512199063"/>
      <point x="566.3881643452169" y="1243.0" type="curve" smooth="yes"/>
      <point x="497.05867253512935" y="1242.4056512199063"/>
      <point x="444.23836914498696" y="1211.466768689404"/>
    </contour>
    <contour>
      <point x="392.6436880268575" y="508.0" type="line" smooth="yes"/>
      <point x="394.6667891245393" y="504.104185683995"/>
      <point x="404.27877876434326" y="490.5878309615379"/>
      <point x="407.29457566624785" y="487.3979600734463" type="curve" smooth="yes"/>
      <point x="596.4303227933776" y="1031.6289806093314" type="line"/>
      <point x="536.340040233487" y="1031.6458051399864" type="line"/>
      <point x="725.1524918211728" y="487.4194013887327" type="line" smooth="yes"/>
      <point x="728.1697756896182" y="490.6063841656381"/>
      <point x="737.7743665416692" y="504.1047952261039"/>
      <point x="739.7963064350606" y="508.0" type="curve" smooth="yes"/>
    </contour>
  </outline>
</glyph>
<glyph name="B" format="2">
  <advance width="1009"/>
  <unicode hex="0042"/>
  <outline>
    <contour>
      <point x="133.0" y="1221.0" type="line" smooth="yes"/>
      <point x="78.65948165148914" y="1219.691814219788"/>
      <point x="37.132022252708595" y="1177.7003470507536"/>
      <point x="36.0" y="1119.0" type="curve" smooth="yes"/>
      <point x="36.0" y="68.0" type="line" smooth="yes"/>
      <point x="37.132022252708595" y="9.299652949246394"/>
      <point x="78.65948165148914" y="-32.691814219787986"/>
      <point x="133.0" y="-34.0" type="curve" smooth="yes"/>
      <point x="555.0" y="-34.0" type="line" smooth="yes"/>
      <point x="811.6001942085086" y="-32.30535377831204"/>
      <point x="970.4506738248674" y="113.0827589647866"/>
      <point x="973.0" y="336.0" type="curve" smooth="yes"/>
      <point x="971.4906265599144" y="490.01794318930695"/>
      <point x="886.1505043624858" y="602.6205966351708"/>
      <point x="788.6129741118219" y="640.7819571414311" type="curve" smooth="yes"/>
      <point x="781.9243184087336" y="639.2195838653702"/>
      <point x="784.0258209813744" y="614.1542407576651"/>
      <point x="790.8812528959196" y="613.7274168674724" type="curve" smooth="yes"/>
      <point x="846.9229532750354" y="647.8732535783695"/>
      <point x="905.8019699220829" y="741.0540082030683"/>
      <point x="907.0" y="858.0" type="curve" smooth="yes"/>
      <point x="904.7832832571186" y="1063.0757155232213"/>
      <point x="759.8998327241153" y="1218.8495522910146"/>
      <point x="509.0" y="1221.0" type="curve" smooth="yes"/>
    </contour>
    <contour>
      <point x="751.0" y="336.0" type="curve" smooth="yes"/>
      <point x="754.5262536145123" y="222.07815576365277"/>
      <point x="681.6917435386905" y="176.969271671863"/>
      <point x="535.0" y="178.0" type="curve" smooth="yes"/>
      <point x="268.0" y="178.0" type="line" smooth="yes"/>
      <point x="257.0222787539623" y="174.77080585949432"/>
      <point x="250.77080585949432" y="181.02227875396233"/>
      <point x="254.0" y="192.0" type="curve" smooth="yes"/>
      <point x="254.0" y="483.0" type="line" smooth="yes"/>
      <point x="250.77080585949432" y="493.9777212460377"/>
      <point x="257.0222787539623" y="500.2291941405057"/>
      <point x="268.0" y="497.0" type="curve" smooth="yes"/>
      <point x="530.0" y="497.0" type="line" smooth="yes"/>
      <point x="688.7233634467638" y="498.02277623319947"/>
      <point x="754.0095547057707" y="453.01456827747603"/>
    </contour>
    <contour>
      <point x="685.0" y="858.0" type="curve" smooth="yes"/>
      <point x="687.6001765730425" y="755.0403638275889"/>
      <point x="633.5665396742396" y="707.6651163518868"/>
      <point x="487.0" y="709.0" type="curve" smooth="yes"/>
      <point x="268.0" y="709.0" type="line" smooth="yes"/>
      <point x="257.0222787539623" y="705.7708058594943"/>
      <point x="250.77080585949432" y="712.0222787539623"/>
      <point x="254.0" y="723.0" type="curve" smooth="yes"/>
      <point x="254.0" y="995.0" type="line" smooth="yes"/>
      <point x="250.77080585949432" y="1005.9777212460377"/>
      <point x="257.0222787539623" y="1012.2291941405057"/>
      <point x="268.0" y="1009.0" type="curve" smooth="yes"/>
      <point x="487.0" y="1009.0" type="line" smooth="yes"/>
      <point x="634.9584140637223" y="1010.2242509809935"/>
      <point x="687.4908648804043" y="966.2260263028666"/>
    </contour>
  </outline>
</glyph>
<glyph name="C" format="2">
  <advance width="1060"/>
  <unicode hex="0043"/>
  <outline>
    <contour>
      <point x="34.0" y="594.0" type="curve" smooth="yes"/>
      <point x="35.73953460416039" y="213.26396849651442"/>
      <point x="258.3220685589283" y="-52.6685234175237"/>
      <point x="582.0" y="-56.0" type="curve" smooth="yes"/>
      <point x="719.2830662594909" y="-55.729146793490216"/>
      <point x="847.1881002912547" y="-21.338060098031065"/>
      <point x="971.888706672988" y="49.491160868075966" type="curve" smooth="yes"/>
      <point x="1018.6463604606589" y="78.67816774720428"/>
      <point x="1035.5150384673539" y="138.72207973832872"/>
      <point x="1009.8794737845876" y="197.22877713603546" type="curve" smooth="yes"/>
      <point x="977.1999471503617" y="260.7519386944196"/>
      <point x="911.182778952305" y="265.5518382107784"/>
      <point x="874.6095487678988" y="245.21595806993002" type="curve" smooth="yes"/>
      <point x="780.9893693384206" y="188.97906112949215"/>
      <point x="687.9487057628628" y="159.62267726594456"/>
      <point x="582.0" y="160.0" type="curve" smooth="yes"/>
      <point x="380.2052622469986" y="156.41052449399714"/>
      <point x="254.5159534157455" y="315.9354302103667"/>
      <point x="256.0" y="594.0" type="curve" smooth="yes"/>
      <point x="254.51000309136035" y="872.0451168264143"/>
      <point x="380.1375706725708" y="1030.5557237870084"/>
      <point x="582.0" y="1027.0" type="curve" smooth="yes"/>
      <point x="687.9487057628628" y="1027.3773227340555"/>
      <point x="780.9893693384206" y="998.0209388705078"/>
      <point x="874.6095487678988" y="941.78404193007" type="curve" smooth="yes"/>
      <point x="911.182778952305" y="921.4481617892216"/>
      <point x="977.1999471503617" y="926.2480613055803"/>
      <point x="1009.8794737845876" y="989.7712228639646" type="curve" smooth="yes"/>
      <point x="1035.5150384673539" y="1048.2779202616714"/>
      <point x="1018.6463604606589" y="1108.3218322527957"/>
      <point x="971.888706672988" y="1137.508839131924" type="curve" smooth="yes"/>
      <point x="847.1881002912547" y="1208.338060098031"/>
      <point x="719.2830662594909" y="1242.7291467934901"/>
      <point x="582.0" y="1243.0" type="curve" smooth="yes"/>
      <point x="258.3706701904979" y="1239.691736824833"/>
      <point x="35.74476786628253" y="974.7517440445724"/>
    </contour>
  </outline>
</glyph>
<glyph name="D" format="2">
  <advance width="1083"/>
  <unicode hex="0044"/>
  <outline>
    <contour>
      <point x="142.0" y="1221.0" type="line" smooth="yes"/>
      <point x="87.65948165148914" y="1219.691814219788"/>
      <point x="46.132022252708595" y="1177.7003470507536"/>
      <point x="45.0" y="1119.0" type="curve" smooth="yes"/>
      <point x="45.0" y="68.0" type="line" smooth="yes"/>
      <point x="46.132022252708595" y="9.299652949246394"/>
      <point x="87.65948165148914" y="-32.691814219787986"/>
      <point x="142.0" y="-34.0" type="curve" smooth="yes"/>
      <point x="478.0" y="-34.0" type="line" smooth="yes"/>
      <point x="806.2710528496075" y="-31.303021519701975"/>
      <point x="1036.032646250775" y="211.60221187367023"/>
      <point x="1038.0" y="593.0" type="curve" smooth="yes"/>
      <point x="1036.0387031052558" y="974.3807514397457"/>
      <point x="806.321445795835" y="1218.2816093241481"/>
      <point x="478.0" y="1221.0" type="curve" smooth="yes"/>
    </contour>
    <contour>
      <point x="816.0" y="593.0" type="curve" smooth="yes"/>
      <point x="817.8390937574644" y="306.03068944621486"/>
      <point x="683.7512370202822" y="175.71699553026258"/>
      <point x="459.0" y="178.0" type="curve" smooth="yes"/>
      <point x="277.0" y="178.0" type="line" smooth="yes"/>
      <point x="266.0222787539623" y="174.77080585949432"/>
      <point x="259.7708058594943" y="181.02227875396233"/>
      <point x="263.0" y="192.0" type="curve" smooth="yes"/>
      <point x="263.0" y="995.0" type="line" smooth="yes"/>
      <point x="259.7708058594943" y="1005.9777212460377"/>
      <point x="266.0222787539623" y="1012.2291941405057"/>
      <point x="277.0" y="1009.0" type="curve" smooth="yes"/>
      <point x="459.0" y="1009.0" type="line" smooth="yes"/>
      <point x="683.6807383672256" y="1011.3103204051658"/>
      <point x="817.8315769631745" y="879.991250782953"/>
    </contour>
  </outline>
</glyph>
<glyph name="E" format="2">
  <advance width="831"/>
  <unicode hex="0045"/>
  <outline>
    <contour>
      <point x="133.0" y="1221.0" type="line" smooth="yes"/>
      <point x="78.65948165148914" y="1219.691814219788"/>
      <point x="37.132022252708595" y="1177.7003470507536"/>
      <point x="36.0" y="1119.0" type="curve" smooth="yes"/>
      <point x="36.0" y="68.0" type="line" smooth="yes"/>
      <point x="37.132022252708595" y="9.299652949246394"/>
      <point x="78.65948165148914" y="-32.691814219787986"/>
      <point x="133.0" y="-34.0" type="curve" smooth="yes"/>
      <point x="709.7926315789473" y="-34.0" type="line" smooth="yes"/>
      <point x="758.7639400411507" y="-31.674240800711235"/>
      <point x="794.3677656608429" y="13.223091311729686"/>
      <point x="795.05" y="72.0" type="curve" smooth="yes"/>
      <point x="794.3677656608429" y="130.7769086882703"/>
      <point x="758.7639400411507" y="175.67424080071123"/>
      <point x="709.7926315789473" y="178.0" type="curve" smooth="yes"/>
      <point x="241.37646973771177" y="170.43948829975145" type="line"/>
      <point x="244.78647715794176" y="516.7270425149954" type="line"/>
      <point x="591.8193233082707" y="506.0" type="line" smooth="yes"/>
      <point x="640.790631770474" y="508.32575919928877"/>
      <point x="676.3944573901663" y="553.2230913117296"/>
      <point x="677.0766917293233" y="612.0" type="curve" smooth="yes"/>
      <point x="676.3944573901663" y="670.7769086882704"/>
      <point x="640.790631770474" y="715.6742408007112"/>
      <point x="591.8193233082707" y="718.0" type="curve" smooth="yes"/>
      <point x="243.61628266888553" y="708.4595828440163" type="line"/>
      <point x="240.5410621715966" y="1015.9063704007269" type="line"/>
      <point x="693.5204511278196" y="1009.0" type="line" smooth="yes"/>
      <point x="742.4917595900229" y="1011.3257591992888"/>
      <point x="778.0955852097151" y="1056.2230913117296"/>
      <point x="778.7778195488721" y="1115.0" type="curve" smooth="yes"/>
      <point x="778.0955852097151" y="1173.7769086882704"/>
      <point x="742.4917595900229" y="1218.6742408007112"/>
      <point x="693.5204511278196" y="1221.0" type="curve" smooth="yes"/>
    </contour>
  </outline>
</glyph>
<glyph name="F" format="2">
  <advance width="849"/>
  <unicode hex="0046"/>
  <outline>
    <contour>
      <point x="142.0" y="1221.0" type="line" smooth="yes"/>
      <point x="90.65948165148914" y="1219.691814219788"/>
      <point x="46.51386049982429" y="1179.0324842574073"/>
      <point x="45.0" y="1119.0" type="curve" smooth="yes"/>
      <point x="45.0" y="55.0" type="line" smooth="yes"/>
      <point x="46.23317925618192" y="-0.07388882136500641"/>
      <point x="88.5445315899164" y="-42.931824334009775"/>
      <point x="153.0" y="-44.0" type="curve" smooth="yes"/>
      <point x="155.0" y="-44.0" type="line" smooth="yes"/>
      <point x="219.4554684100836" y="-42.931824334009775"/>
      <point x="261.7668207438181" y="-0.07388882136500641"/>
      <point x="263.0" y="55.0" type="curve" smooth="yes"/>
      <point x="263.0" y="452.0" type="line" smooth="yes"/>
      <point x="259.7708058594943" y="462.9777212460377"/>
      <point x="266.0222787539623" y="469.2291941405057"/>
      <point x="277.0" y="466.0" type="curve" smooth="yes"/>
      <point x="620.736976744186" y="466.0" type="line" smooth="yes"/>
      <point x="670.5190534860917" y="468.2010509494272"/>
      <point x="706.8598841179145" y="513.0216790338391"/>
      <point x="707.5837209302325" y="572.0" type="curve" smooth="yes"/>
      <point x="706.8598841179145" y="630.9783209661609"/>
      <point x="670.5190534860917" y="675.7989490505728"/>
      <point x="620.736976744186" y="678.0" type="curve" smooth="yes"/>
      <point x="277.0" y="678.0" type="line" smooth="yes"/>
      <point x="266.0222787539623" y="674.7708058594943"/>
      <point x="259.7708058594943" y="681.0222787539623"/>
      <point x="263.0" y="692.0" type="curve" smooth="yes"/>
      <point x="263.0" y="995.0" type="line" smooth="yes"/>
      <point x="259.7708058594943" y="1005.9777212460377"/>
      <point x="266.0222787539623" y="1012.2291941405057"/>
      <point x="277.0" y="1009.0" type="curve" smooth="yes"/>
      <point x="717.2032558139534" y="1009.0" type="line" smooth="yes"/>
      <point x="766.9853325558591" y="1011.2010509494272"/>
      <point x="803.3261631876819" y="1056.021679033839"/>
      <point x="804.05" y="1115.0" type="curve" smooth="yes"/>
      <point x="803.3261631876819" y="1173.978320966161"/>
      <point x="766.9853325558591" y="1218.798949050573"/>
      <point x="717.2032558139534" y="1221.0" type="curve" smooth="yes"/>
    </contour>
  </outline>
</glyph>
<glyph name="G" format="2">
  <advance width="1109"/>
  <unicode hex="0047"/>
  <outline>
    <contour>
      <point x="34.0" y="594.0" type="curve" smooth="yes"/>
      <point x="35.80272418928719" y="213.07592427850815"/>
      <point x="262.55119285598704" y="-52.77713391651537"/>
      <point x="592.0" y="-56.0" type="curve" smooth="yes"/>
      <point x="749.6812022163689" y="-55.800129441204824"/>
      <point x="906.8167056943928" y="-20.880487237997237"/>
      <point x="1021.8687239041324" y="44.47973316776839" type="curve" smooth="yes"/>
      <point x="1052.3686816509096" y="63.28993136668258"/>
      <point x="1074.119304808274" y="103.31158995522212"/>
      <point x="1075.0" y="143.0" type="curve" smooth="yes"/>
      <point x="1075.0" y="526.0" type="line" smooth="yes"/>
      <point x="1073.8679777472914" y="584.7003470507536"/>
      <point x="1032.3405183485108" y="626.691814219788"/>
      <point x="978.0" y="628.0" type="curve" smooth="yes"/>
      <point x="624.0" y="628.0" type="line" smooth="yes"/>
      <point x="568.7123094974875" y="626.4062250829145"/>
      <point x="528.0151549950588" y="582.2462112512353"/>
      <point x="527.0" y="522.0" type="curve" smooth="yes"/>
      <point x="528.0151549950588" y="461.7537887487647"/>
      <point x="568.7123094974875" y="417.59377491708557"/>
      <point x="624.0" y="416.0" type="curve" smooth="yes"/>
      <point x="843.0" y="416.0" type="line" smooth="yes"/>
      <point x="853.9777212460377" y="419.2291941405057"/>
      <point x="860.2291941405057" y="412.9777212460377"/>
      <point x="857.0" y="402.0" type="curve" smooth="yes"/>
      <point x="857.0" y="222.92402301575527" type="line" smooth="yes"/>
      <point x="858.97791225514" y="213.02001098788486"/>
      <point x="850.0488412760494" y="199.08254053840048"/>
      <point x="840.2248088772117" y="196.7394702100022" type="curve" smooth="yes"/>
      <point x="795.1819513711415" y="175.47085266242948"/>
      <point x="702.3778382223343" y="159.8959498573339"/>
      <point x="592.0" y="160.0" type="curve" smooth="yes"/>
      <point x="384.8738344408764" y="156.57399301735705"/>
      <point x="254.41762039129708" y="316.2517261066495"/>
      <point x="256.0" y="594.0" type="curve" smooth="yes"/>
      <point x="254.10081708926165" y="870.7956462836196"/>
      <point x="399.48879250005996" y="1030.2416695529455"/>
      <point x="602.0" y="1027.0" type="curve" smooth="yes"/>
      <point x="709.0365960736846" y="1027.2317985477926"/>
      <point x="802.2369994975322" y="1004.4864185124253"/>
      <point x="896.1561307726366" y="950.4655443684587" type="curve" smooth="yes"/>
      <point x="933.7946503847784" y="930.2698680347675"/>
      <point x="999.9147075757553" y="936.8819551573451"/>
      <point x="1031.2666108901556" y="1001.643389522652" type="curve" smooth="yes"/>
      <point x="1054.6416761805594" y="1060.0768278760156"/>
      <point x="1037.2009486998522" y="1119.8235007093"/>
      <point x="989.1636930996382" y="1147.9121217131235" type="curve" smooth="yes"/>
      <point x="863.1426738530641" y="1215.757762384937"/>
      <point x="738.396577973236" y="1242.8299166134316"/>
      <point x="602.0" y="1243.0" type="curve" smooth="yes"/>
      <point x="278.82178492281787" y="1239.902721841695"/>
      <point x="36.06982302790908" y="975.6817720629601"/>
    </contour>
  </outline>
</glyph>
<glyph name="H" format="2">
  <advance width="1030"/>
  <unicode hex="0048"/>
  <outline>
    <contour>
      <point x="878.0" y="1231.0" type="line" smooth="yes"/>
      <point x="813.5445315899165" y="1229.93182433401"/>
      <point x="771.2331792561819" y="1187.073888821365"/>
      <point x="770.0" y="1132.0" type="curve" smooth="yes"/>
      <point x="783.1711110649277" y="710.872986170696" type="line"/>
      <point x="246.82888893507237" y="710.872986170696" type="line"/>
      <point x="260.0" y="1132.0" type="line" smooth="yes"/>
      <point x="258.7668207438181" y="1187.073888821365"/>
      <point x="216.4554684100836" y="1229.93182433401"/>
      <point x="152.0" y="1231.0" type="curve" smooth="yes"/>
      <point x="150.0" y="1231.0" type="line" smooth="yes"/>
      <point x="85.5445315899164" y="1229.93182433401"/>
      <point x="43.23317925618192" y="1187.073888821365"/>
      <point x="42.0" y="1132.0" type="curve" smooth="yes"/>
      <point x="42.0" y="55.0" type="line" smooth="yes"/>
      <point x="43.23317925618192" y="-0.07388882136500641"/>
      <point x="85.5445315899164" y="-42.931824334009775"/>
      <point x="150.0" y="-44.0" type="curve" smooth="yes"/>
      <point x="152.0" y="-44.0" type="line" smooth="yes"/>
      <point x="216.4554684100836" y="-42.931824334009775"/>
      <point x="258.7668207438181" y="-0.07388882136500641"/>
      <point x="260.0" y="55.0" type="curve" smooth="yes"/>
      <point x="247.85478965509964" y="513.9544981017575" type="line"/>
      <point x="782.1452103449004" y="513.9544981017575" type="line"/>
      <point x="770.0" y="55.0" type="line" smooth="yes"/>
      <point x="771.2331792561819" y="-0.07388882136500641"/>
      <point x="813.5445315899165" y="-42.931824334009775"/>
      <point x="878.0" y="-44.0" type="curve" smooth="yes"/>
      <point x="880.0" y="-44.0" type="line" smooth="yes"/>
      <point x="944.4554684100835" y="-42.931824334009775"/>
      <point x="986.7668207438181" y="-0.07388882136500641"/>
      <point x="988.0" y="55.0" type="curve" smooth="yes"/>
      <point x="988.0" y="1132.0" type="line" smooth="yes"/>
      <point x="986.7668207438181" y="1187.073888821365"/>
      <point x="944.4554684100835" y="1229.93182433401"/>
      <point x="880.0" y="1231.0" type="curve" smooth="yes"/>
    </contour>
  </outline>
</glyph>
<glyph name="I" format="2">
  <advance width="504"/>
  <unicode hex="0049"/>
  <outline>
    <contour>
      <point x="94.79778761061942" y="178.0" type="line" smooth="yes"/>
      <point x="56.59608809662239" y="167.2854852966568"/>
      <point x="42.094200564672015" y="126.52918260537125"/>
      <point x="42.0" y="72.0" type="curve" smooth="yes"/>
      <point x="42.094200564672015" y="17.470817394628757"/>
      <point x="56.59608809662239" y="-23.285485296656777"/>
      <point x="94.79778761061942" y="-34.0" type="curve" smooth="yes"/>
      <point x="409.5022123893805" y="-34.0" type="line" smooth="yes"/>
      <point x="447.70391190337756" y="-23.285485296656816"/>
      <point x="462.20579943532795" y="17.470817394628757"/>
      <point x="462.29999999999995" y="72.0" type="curve" smooth="yes"/>
      <point x="462.20579943532795" y="126.52918260537125"/>
      <point x="447.70391190337756" y="167.28548529665682"/>
      <point x="409.5022123893805" y="178.0" type="curve" smooth="yes"/>
      <point x="361.7379292035398" y="178.0" type="line" smooth="yes"/>
      <point x="357.868605479626" y="174.77080585949432"/>
      <point x="357.9208058594943" y="174.71860547962604"/>
      <point x="361.15" y="178.5879292035398" type="curve" smooth="yes"/>
      <point x="361.15" y="1010.918442477876" type="line" smooth="yes"/>
      <point x="357.9208058594943" y="1013.4593892106394"/>
      <point x="356.69061078936056" y="1012.2291941405057"/>
      <point x="359.2315575221239" y="1009.0" type="curve" smooth="yes"/>
      <point x="403.5346607669617" y="1009.0" type="line" smooth="yes"/>
      <point x="441.7363602809587" y="1019.7145147033433"/>
      <point x="456.23824781290904" y="1060.4708173946287"/>
      <point x="456.33244837758104" y="1115.0" type="curve" smooth="yes"/>
      <point x="456.23824781290904" y="1169.5291826053713"/>
      <point x="441.7363602809587" y="1210.2854852966568"/>
      <point x="403.5346607669617" y="1221.0" type="curve" smooth="yes"/>
      <point x="100.76533923303833" y="1221.0" type="line" smooth="yes"/>
      <point x="62.56363971904133" y="1210.2854852966568"/>
      <point x="48.061752187090875" y="1169.5291826053713"/>
      <point x="47.96755162241885" y="1115.0" type="curve" smooth="yes"/>
      <point x="48.061752187090875" y="1060.4708173946287"/>
      <point x="62.56363971904133" y="1019.7145147033432"/>
      <point x="100.76533923303833" y="1009.0" type="curve" smooth="yes"/>
      <point x="145.0684424778761" y="1009.0" type="line" smooth="yes"/>
      <point x="147.60938921063936" y="1012.2291941405057"/>
      <point x="146.3791941405057" y="1013.4593892106394"/>
      <point x="143.14999999999998" y="1010.9184424778762" type="curve" smooth="yes"/>
      <point x="143.14999999999998" y="178.58792920353983" type="line" smooth="yes"/>
      <point x="146.37919414050566" y="174.71860547962604"/>
      <point x="146.43139452037394" y="174.77080585949432"/>
      <point x="142.56207079646015" y="178.0" type="curve" smooth="yes"/>
    </contour>
  </outline>
</glyph>
<glyph name="J" format="2">
  <advance width="683"/>
  <unicode hex="004A"/>
  <outline>
    <contour>
      <point x="236.5958436526215" y="1221.0" type="line" smooth="yes"/>
      <point x="193.98075482646755" y="1216.9192029881992"/>
      <point x="165.90715964706868" y="1171.9456832752771"/>
      <point x="165.54553381914548" y="1115.0" type="curve" smooth="yes"/>
      <point x="165.90715964706868" y="1058.0543167247229"/>
      <point x="193.98075482646755" y="1013.0807970118008"/>
      <point x="236.5958436526215" y="1009.0" type="curve" smooth="yes"/>
      <point x="400.9" y="1009.0" type="line" smooth="yes"/>
      <point x="411.8777212460377" y="1012.2291941405057"/>
      <point x="418.12919414050566" y="1005.9777212460377"/>
      <point x="414.9" y="995.0" type="curve" smooth="yes"/>
      <point x="414.9" y="363.0" type="line" smooth="yes"/>
      <point x="415.4015989827754" y="215.81868793536896"/>
      <point x="389.33643024480807" y="154.593121956988"/>
      <point x="318.34176534870346" y="160.0" type="curve" smooth="yes"/>
      <point x="266.4079254994475" y="158.72359054151406"/>
      <point x="220.345034330493" y="185.43373518287527"/>
      <point x="175.75534262262408" y="242.94009513539402" type="curve" smooth="yes"/>
      <point x="152.79986084110666" y="270.1134582681171"/>
      <point x="87.9370585149582" y="268.2070051616666"/>
      <point x="63.05601922447013" y="209.01128884509885" type="curve" smooth="yes"/>
      <point x="44.29647611340295" y="156.7379479406298"/>
      <point x="49.864273213885056" y="105.13756880060808"/>
      <point x="75.26634107117394" y="70.89232209116851" type="curve" smooth="yes"/>
      <point x="139.68402659643513" y="-9.228360632635514"/>
      <point x="231.8998023464781" y="-54.99022976549528"/>
      <point x="317.7536651926166" y="-56.0" type="curve" smooth="yes"/>
      <point x="475.8050414139019" y="-53.026598641773035"/>
      <point x="630.6199129769133" y="91.75879414693767"/>
      <point x="632.9" y="333.0" type="curve" smooth="yes"/>
      <point x="632.9" y="1119.0" type="line" smooth="yes"/>
      <point x="631.3861395001757" y="1179.0324842574073"/>
      <point x="587.2405183485108" y="1219.691814219788"/>
      <point x="535.9" y="1221.0" type="curve" smooth="yes"/>
    </contour>
  </outline>
</glyph>
<glyph name="K" format="2">
  <advance width="1004"/>
  <unicode hex="004B"/>
  <outline>
    <contour>
      <point x="136.0" y="1231.0" type="line" smooth="yes"/>
      <point x="71.5445315899164" y="1229.93182433401"/>
      <point x="29.23317925618192" y="1187.073888821365"/>
      <point x="28.0" y="1132.0" type="curve" smooth="yes"/>
      <point x="28.0" y="55.0" type="line" smooth="yes"/>
      <point x="29.23317925618192" y="-0.07388882136500641"/>
      <point x="71.5445315899164" y="-42.931824334009775"/>
      <point x="136.0" y="-44.0" type="curve" smooth="yes"/>
      <point x="138.0" y="-44.0" type="line" smooth="yes"/>
      <point x="202.4554684100836" y="-42.931824334009775"/>
      <point x="244.76682074381807" y="-0.07388882136500641"/>
      <point x="246.0" y="55.0" type="curve" smooth="yes"/>
      <point x="246.0" y="317.58740234375" type="line" smooth="yes"/>
      <point x="245.0571235023685" y="335.0758876610524"/>
      <point x="256.9828670364913" y="365.0700865208161"/>
      <point x="269.67683622738826" y="377.13653922920753" type="curve" smooth="yes"/>
      <point x="377.7160865529076" y="491.52192409544426" type="line" smooth="yes"/>
      <point x="382.0810077666214" y="501.4077375586394"/>
      <point x="384.6923849012418" y="501.26908308646034"/>
      <point x="387.98591497712926" y="490.9766341713457" type="curve" smooth="yes"/>
      <point x="772.9461499633934" y="-14.593426091760477" type="line" smooth="yes"/>
      <point x="808.3055558454406" y="-56.61917511292805"/>
      <point x="866.6539134469987" y="-56.940355373255684"/>
      <point x="915.834506035872" y="-29.539793610114984" type="curve" smooth="yes"/>
      <point x="972.2611749925303" y="4.179937280061136"/>
      <point x="984.9965403535225" y="66.49875668954715"/>
      <point x="952.0375029545249" y="112.61488379749092" type="curve" smooth="yes"/>
      <point x="547.120678438023" y="643.408037542841" type="line" smooth="yes"/>
      <point x="537.6460285077952" y="651.2483321723254"/>
      <point x="538.4067023130754" y="665.6967103957018"/>
      <point x="548.6522391046464" y="672.4987826556861" type="curve" smooth="yes"/>
      <point x="924.6937515187963" y="1070.6286792001831" type="line" smooth="yes"/>
      <point x="962.6054145481274" y="1112.1909284444544"/>
      <point x="956.3340923379458" y="1177.5061754093224"/>
      <point x="901.6328927485697" y="1215.4396784057117" type="curve" smooth="yes"/>
      <point x="854.9834696583126" y="1244.8181780582784"/>
      <point x="794.2953419286137" y="1247.9217947401446"/>
      <point x="758.2227096441749" y="1214.2827378678526" type="curve" smooth="yes"/>
      <point x="220.11905336025657" y="642.1610243124212" type="line" smooth="yes"/>
      <point x="215.4565786752889" y="632.147747748322"/>
      <point x="242.53600567187092" y="621.4139501003718"/>
      <point x="246.0" y="631.9022827148438" type="curve" smooth="yes"/>
      <point x="246.0" y="1132.0" type="line" smooth="yes"/>
      <point x="244.76682074381807" y="1187.073888821365"/>
      <point x="202.4554684100836" y="1229.93182433401"/>
      <point x="138.0" y="1231.0" type="curve" smooth="yes"/>
    </contour>
  </outline>
</glyph>
<glyph name="L" format="2">
  <advance width="849"/>
  <unicode hex="004C"/>
  <outline>
    <contour>
      <point x="153.0" y="1231.0" type="line" smooth="yes"/>
      <point x="88.5445315899164" y="1229.93182433401"/>
      <point x="46.23317925618192" y="1187.073888821365"/>
      <point x="45.0" y="1132.0" type="curve" smooth="yes"/>
      <point x="45.0" y="68.0" type="line" smooth="yes"/>
      <point x="46.015154995058715" y="9.753788748764679"/>
      <point x="86.65948165148914" y="-32.691814219787986"/>
      <point x="142.0" y="-34.0" type="curve" smooth="yes"/>
      <point x="717.2032558139534" y="-34.0" type="line" smooth="yes"/>
      <point x="766.9853325558591" y="-31.79894905057281"/>
      <point x="803.3261631876819" y="13.021679033839034"/>
      <point x="804.05" y="72.0" type="curve" smooth="yes"/>
      <point x="803.3261631876819" y="130.97832096616096"/>
      <point x="766.9853325558591" y="175.79894905057282"/>
      <point x="717.2032558139534" y="178.0" type="curve" smooth="yes"/>
      <point x="277.0" y="178.0" type="line" smooth="yes"/>
      <point x="266.0222787539623" y="174.77080585949432"/>
      <point x="259.7708058594943" y="181.02227875396233"/>
      <point x="263.0" y="192.0" type="curve" smooth="yes"/>
      <point x="263.0" y="1132.0" type="line" smooth="yes"/>
      <point x="261.7668207438181" y="1187.073888821365"/>
      <point x="219.4554684100836" y="1229.93182433401"/>
      <point x="155.0" y="1231.0" type="curve" smooth="yes"/>
    </contour>
  </outline>
</glyph>
<glyph name="M" format="2">
  <advance width="1090"/>
  <unicode hex="004D"/>
  <outline>
    <contour>
      <point x="907.0391340834062" y="1231.0" type="line" smooth="yes"/>
      <point x="851.3863619078984" y="1229.88053426693"/>
      <point x="804.0899184538498" y="1197.7301658688896"/>
      <point x="779.2097247581639" y="1146.336928564259" type="curve" smooth="yes"/>
      <point x="545.0391340834062" y="596.0" type="line"/>
      <point x="310.8685434086484" y="1146.336928564259" type="line" smooth="yes"/>
      <point x="286.18892928363607" y="1197.466768689404"/>
      <point x="239.79966420245748" y="1229.8519879464425"/>
      <point x="184.03913408340617" y="1231.0" type="curve" smooth="yes"/>
      <point x="182.03913408340617" y="1231.0" type="line" smooth="yes"/>
      <point x="128.3711854887079" y="1230.3397429734912"/>
      <point x="75.98927160816253" y="1195.853015565878"/>
      <point x="72.05198926206435" y="1132.9348726614567" type="curve" smooth="yes"/>
      <point x="42.05208095017246" y="55.93820004196816" type="line" smooth="yes"/>
      <point x="42.1455273122478" y="0.3970566906201185"/>
      <point x="84.58366567332257" y="-42.931824334009775"/>
      <point x="149.03913408340617" y="-44.0" type="curve" smooth="yes"/>
      <point x="151.03913408340617" y="-44.0" type="line" smooth="yes"/>
      <point x="215.60312868376286" y="-42.90376872768622"/>
      <point x="256.80595482722424" y="-0.07388882136500641"/>
      <point x="259.02798871653414" y="54.129505469233045" type="curve" smooth="yes"/>
      <point x="274.9196021634545" y="850.0579108385531" type="line"/>
      <point x="422.2033893147658" y="407.6767027342421" type="line" smooth="yes"/>
      <point x="447.63498348059244" y="354.87507690105866"/>
      <point x="492.015224927981" y="324.9603740658965"/>
      <point x="545.0391340834062" y="324.0" type="curve" smooth="yes"/>
      <point x="598.0630432388314" y="324.96037406589653"/>
      <point x="642.44328468622" y="354.87507690105866"/>
      <point x="667.8748788520465" y="407.6767027342421" type="curve" smooth="yes"/>
      <point x="815.1586660033579" y="850.0579108385531" type="line"/>
      <point x="831.0502794502783" y="54.129505469233045" type="line" smooth="yes"/>
      <point x="833.2723133395881" y="-0.07388882136500641"/>
      <point x="874.4751394830496" y="-42.90376872768622"/>
      <point x="939.0391340834062" y="-44.0" type="curve" smooth="yes"/>
      <point x="941.0391340834062" y="-44.0" type="line" smooth="yes"/>
      <point x="1005.4946024934898" y="-42.931824334009775"/>
      <point x="1047.9327408545646" y="0.3970566906201185"/>
      <point x="1048.02618721664" y="55.93820004196816" type="curve" smooth="yes"/>
      <point x="1018.026278904748" y="1132.9348726614567" type="line" smooth="yes"/>
      <point x="1014.2651630209805" y="1195.4512124654166"/>
      <point x="962.793656628445" y="1230.322311222191"/>
      <point x="909.0391340834062" y="1231.0" type="curve" smooth="yes"/>
    </contour>
  </outline>
</glyph>
<glyph name="N" format="2">
  <advance width="1030"/>
  <unicode hex="004E"/>
  <outline>
    <contour>
      <point x="880.0" y="1231.0" type="line" smooth="yes"/>
      <point x="817.3247551181454" y="1229.87461218387"/>
      <point x="775.2331792561819" y="1187.073888821365"/>
      <point x="774.0" y="1132.0" type="curve" smooth="yes"/>
      <point x="774.0003809326407" y="287.1609449423307" type="line"/>
      <point x="832.5853166703662" y="305.4086846584671" type="line"/>
      <point x="268.63722762249137" y="1187.3278256783944" type="line" smooth="yes"/>
      <point x="249.99723323863327" y="1212.925310602675"/>
      <point x="213.66794859469826" y="1230.3397429734912"/>
      <point x="178.0" y="1231.0" type="curve" smooth="yes"/>
      <point x="151.0" y="1231.0" type="line" smooth="yes"/>
      <point x="86.65042900602104" y="1229.9588328709697"/>
      <point x="43.36562884703463" y="1187.539277721636"/>
      <point x="42.0" y="1132.0" type="curve" smooth="yes"/>
      <point x="42.0" y="55.0" type="line" smooth="yes"/>
      <point x="43.23317925618192" y="-0.07388882136500641"/>
      <point x="85.3247551181454" y="-42.87461218387003"/>
      <point x="148.0" y="-44.0" type="curve" smooth="yes"/>
      <point x="150.0" y="-44.0" type="line" smooth="yes"/>
      <point x="212.67524488185458" y="-42.87461218387003"/>
      <point x="254.76682074381807" y="-0.07388882136500641"/>
      <point x="256.0" y="55.0" type="curve" smooth="yes"/>
      <point x="255.99963731785888" y="920.8429577952986" type="line"/>
      <point x="197.4313323516274" y="902.5654881052731" type="line"/>
      <point x="766.3757476099257" y="14.651916309616183" type="line" smooth="yes"/>
      <point x="790.9193864148181" y="-22.81287681669761"/>
      <point x="830.0925608548667" y="-54.20291557134565"/>
      <point x="879.0" y="-56.0" type="curve" smooth="yes"/>
      <point x="941.3623747215287" y="-54.38242100477702"/>
      <point x="985.6780720590215" y="-10.349078938262618"/>
      <point x="988.0" y="37.0" type="curve" smooth="yes"/>
      <point x="988.0" y="1132.0" type="line" smooth="yes"/>
      <point x="986.7668207438181" y="1187.073888821365"/>
      <point x="944.6752448818546" y="1229.87461218387"/>
      <point x="882.0" y="1231.0" type="curve" smooth="yes"/>
    </contour>
  </outline>
</glyph>
<glyph name="O" format="2">
  <advance width="1184"/>
  <unicode hex="004F"/>
  <outline>
    <contour>
      <point x="34.0" y="593.0" type="curve" smooth="yes"/>
      <point x="35.80813172134604" y="212.05999923538425"/>
      <point x="262.5993735792882" y="-52.799707120216226"/>
      <point x="592.0" y="-56.0" type="curve" smooth="yes"/>
      <point x="921.4006264207118" y="-52.799707120216226"/>
      <point x="1148.191868278654" y="212.05999923538425"/>
      <point x="1150.0" y="593.0" type="curve" smooth="yes"/>
      <point x="1148.1972758107129" y="973.9240757214918"/>
      <point x="921.4488071440129" y="1239.7771339165154"/>
      <point x="592.0" y="1243.0" type="curve" smooth="yes"/>
      <point x="262.55119285598704" y="1239.7771339165154"/>
      <point x="35.80272418928719" y="973.9240757214918"/>
    </contour>
    <contour>
      <point x="928.0" y="593.0" type="curve" smooth="yes"/>
      <point x="929.5489174363979" y="313.145306326094"/>
      <point x="801.3275799500385" y="156.67116055641665"/>
      <point x="592.0" y="160.0" type="curve" smooth="yes"/>
      <point x="382.6724200499615" y="156.67116055641665"/>
      <point x="254.45108256360206" y="313.145306326094"/>
      <point x="256.0" y="593.0" type="curve" smooth="yes"/>
      <point x="254.4572515728326" y="872.8744471589026"/>
      <point x="382.7397712031995" y="1030.3611497461584"/>
      <point x="592.0" y="1027.0" type="curve" smooth="yes"/>
      <point x="801.2602287968006" y="1030.3611497461584"/>
      <point x="929.5427484271673" y="872.8744471589026"/>
    </contour>
  </outline>
</glyph>
<glyph name="P" format="2">
  <advance width="885"/>
  <unicode hex="0050"/>
  <outline>
    <contour>
      <point x="133.0" y="1221.0" type="line" smooth="yes"/>
      <point x="78.65948165148914" y="1219.691814219788"/>
      <point x="37.132022252708595" y="1177.7003470507536"/>
      <point x="36.0" y="1119.0" type="curve" smooth="yes"/>
      <point x="36.0" y="55.0" type="line" smooth="yes"/>
      <point x="37.23317925618192" y="-0.07388882136500641"/>
      <point x="79.5445315899164" y="-42.931824334009775"/>
      <point x="144.0" y="-44.0" type="curve" smooth="yes"/>
      <point x="146.0" y="-44.0" type="line" smooth="yes"/>
      <point x="210.4554684100836" y="-42.931824334009775"/>
      <point x="252.76682074381807" y="-0.07388882136500641"/>
      <point x="254.0" y="55.0" type="curve" smooth="yes"/>
      <point x="248.45911389467832" y="374.3968057492879" type="line"/>
      <point x="440.9443231441048" y="359.0" type="line" smooth="yes"/>
      <point x="696.9136995747249" y="361.7364806331054"/>
      <point x="847.5044119066924" y="542.2457955871475"/>
      <point x="849.25" y="788.0" type="curve" smooth="yes"/>
      <point x="847.5366480641579" y="1034.6570332072863"/>
      <point x="697.12463855137" y="1218.1725077001936"/>
      <point x="440.9443231441048" y="1221.0" type="curve" smooth="yes"/>
    </contour>
    <contour>
      <point x="251.56069762944335" y="549.6460414811454" type="line"/>
      <point x="251.56069762944335" y="1030.3539585188546" type="line"/>
      <point x="422.7489082969432" y="1009.0" type="line" smooth="yes"/>
      <point x="581.8424747471507" y="1011.0388469903903"/>
      <point x="649.6916588421266" y="937.8660354019082"/>
      <point x="647.8169577874818" y="788.0" type="curve" smooth="yes"/>
      <point x="649.7468540920906" y="640.2919639109792"/>
      <point x="582.0613165407884" y="569.0397115899847"/>
      <point x="422.7489082969432" y="571.0" type="curve" smooth="yes"/>
    </contour>
  </outline>
</glyph>
<glyph name="Q" format="2">
  <advance width="1184"/>
  <unicode hex="0051"/>
  <outline>
    <contour>
      <point x="546.3542469420615" y="281.68550214328525" type="curve" smooth="yes"/>
      <point x="677.3395207147793" y="76.70855590333471" type="line"/>
      <point x="703.4080126980481" y="35.60167773613529" type="line"/>
      <point x="825.4613625585953" y="-153.48096785853085" type="line" smooth="yes"/>
      <point x="856.7900692774105" y="-198.7433287920924"/>
      <point x="915.6189165480139" y="-211.29920450020893"/>
      <point x="970.1557617071913" y="-177.74662270305302" type="curve" smooth="yes"/>
      <point x="1024.8994146872224" y="-142.1520873407505"/>
      <point x="1037.4964862965462" y="-82.00108113952422"/>
      <point x="1008.6020327097029" y="-35.61729821617398" type="curve" smooth="yes"/>
      <point x="729.6196696239629" y="399.35523115123357" type="line" smooth="yes"/>
      <point x="698.4951356609528" y="445.4944870824131"/>
      <point x="639.3810834519861" y="458.29920450020893"/>
      <point x="584.4917309148545" y="424.52093924596187" type="curve" smooth="yes"/>
      <point x="531.1005853127778" y="388.15208734075054"/>
      <point x="517.3656288470346" y="329.46072227836396"/>
    </contour>
    <component base="O"/>
  </outline>
</glyph>
<glyph name="R" format="2">
  <advance width="972"/>
  <unicode hex="0052"/>
  <outline>
    <contour>
      <point x="142.0" y="1221.0" type="line" smooth="yes"/>
      <point x="87.65948165148914" y="1219.691814219788"/>
      <point x="46.132022252708595" y="1177.7003470507536"/>
      <point x="45.0" y="1119.0" type="curve" smooth="yes"/>
      <point x="45.0" y="55.0" type="line" smooth="yes"/>
      <point x="46.23317925618192" y="-0.07388882136500641"/>
      <point x="88.5445315899164" y="-42.931824334009775"/>
      <point x="153.0" y="-44.0" type="curve" smooth="yes"/>
      <point x="155.0" y="-44.0" type="line" smooth="yes"/>
      <point x="219.4554684100836" y="-42.931824334009775"/>
      <point x="261.7668207438181" y="-0.07388882136500641"/>
      <point x="263.0" y="55.0" type="curve" smooth="yes"/>
      <point x="263.0" y="425.0" type="line" smooth="yes"/>
      <point x="259.7708058594943" y="435.9777212460377"/>
      <point x="266.0222787539623" y="442.2291941405057"/>
      <point x="277.0" y="439.0" type="curve" smooth="yes"/>
      <point x="402.8355712890625" y="439.0" type="line" smooth="yes"/>
      <point x="418.0869781376068" y="440.5624820679185"/>
      <point x="441.42846677401735" y="427.8760672410228"/>
      <point x="448.41281627476354" y="414.22815080210006" type="curve" smooth="yes"/>
      <point x="720.458040610497" y="-5.475837036734422" type="line" smooth="yes"/>
      <point x="749.968146646719" y="-47.472256027356835"/>
      <point x="805.6527721755078" y="-54.88053426692998"/>
      <point x="859.9523990291791" y="-31.00533117595362" type="curve" smooth="yes"/>
      <point x="918.9419560717191" y="-2.972111268565513"/>
      <point x="936.7668207438181" y="58.073888821365"/>
      <point x="907.4464726673339" y="106.62251843297862" type="curve" smooth="yes"/>
      <point x="669.7422515812875" y="468.9113056073999" type="line" smooth="yes"/>
      <point x="661.1975801719558" y="474.8395543143249"/>
      <point x="659.5837999443766" y="470.6833330140287"/>
      <point x="669.8901107316899" y="469.2921104653627" type="curve" smooth="yes"/>
      <point x="806.5986016073172" y="506.5774383691319"/>
      <point x="908.5302082872138" y="647.5803365577935"/>
      <point x="910.0" y="828.0" type="curve" smooth="yes"/>
      <point x="907.6165632491857" y="1056.5057158255831"/>
      <point x="745.1485321371822" y="1219.1202464371963"/>
      <point x="464.0" y="1221.0" type="curve" smooth="yes"/>
    </contour>
    <contour>
      <point x="263.0" y="995.0" type="line" smooth="yes"/>
      <point x="259.7708058594943" y="1005.9777212460377"/>
      <point x="266.0222787539623" y="1012.2291941405057"/>
      <point x="277.0" y="1009.0" type="curve" smooth="yes"/>
      <point x="443.0" y="1009.0" type="line" smooth="yes"/>
      <point x="621.2834660741278" y="1010.1363112794818"/>
      <point x="690.741553830245" y="955.6242928017792"/>
      <point x="688.0" y="828.0" type="curve" smooth="yes"/>
      <point x="690.8337246701016" y="702.5890868736998"/>
      <point x="621.5041473532598" y="649.9214290061182"/>
      <point x="443.0" y="651.0" type="curve" smooth="yes"/>
      <point x="277.0" y="651.0" type="line" smooth="yes"/>
      <point x="266.0222787539623" y="647.7708058594943"/>
      <point x="259.7708058594943" y="654.0222787539623"/>
      <point x="263.0" y="665.0" type="curve" smooth="yes"/>
    </contour>
  </outline>
</glyph>
<glyph name="S" format="2">
  <advance width="1031"/>
  <unicode hex="0053"/>
  <outline>
    <contour>
      <point x="39.42978909692687" y="863.0" type="curve" smooth="yes"/>
      <point x="41.09911655390985" y="713.4772811062822"/>
      <point x="122.79598859561543" y="623.2418682567666"/>
      <point x="223.41080398965778" y="577.0247186201293" type="curve" smooth="yes"/>
      <point x="367.9184368766588" y="512.6293198711262"/>
      <point x="559.6672486767702" y="510.4918945939037"/>
      <point x="675.1140234813552" y="460.715972348958" type="curve" smooth="yes"/>
      <point x="742.0082356640435" y="432.4229748028347"/>
      <point x="777.4977371515038" y="402.32335413936016"/>
      <point x="775.4297890969269" y="327.0" type="curve" smooth="yes"/>
      <point x="778.4562544983681" y="223.0228440222331"/>
      <point x="708.9536391494461" y="158.65275765035565"/>
      <point x="523.4297890969269" y="160.0" type="curve" smooth="yes"/>
      <point x="398.2938813731191" y="159.49048255514248"/>
      <point x="281.13362554863073" y="201.65611184742033"/>
      <point x="189.80379058664147" y="260.6076225725936" type="curve" smooth="yes"/>
      <point x="153.39185746565008" y="282.5078020453073"/>
      <point x="87.62148735938354" y="277.08443933314004"/>
      <point x="52.264417854950636" y="214.68599304582764" type="curve" smooth="yes"/>
      <point x="24.137715197656597" y="157.90201532058043"/>
      <point x="38.74377506879037" y="95.9320941883133"/>
      <point x="84.52731269583145" y="65.09495997739802" type="curve" smooth="yes"/>
      <point x="206.92420690032966" y="-10.202551971448695"/>
      <point x="365.6525724953669" y="-55.66271233192269"/>
      <point x="523.4297890969269" y="-56.0" type="curve" smooth="yes"/>
      <point x="827.9387155564038" y="-54.33515833685224"/>
      <point x="994.7957597647242" y="107.87841914756906"/>
      <point x="997.4297890969269" y="327.0" type="curve" smooth="yes"/>
      <point x="995.5973697868251" y="514.0112103130805"/>
      <point x="892.6745431527161" y="615.6902239350578"/>
      <point x="770.138182305875" y="665.5356424073898" type="curve" smooth="yes"/>
      <point x="612.2227895802052" y="728.5028527949597"/>
      <point x="416.3068586560804" y="727.4882076766863"/>
      <point x="319.7924126144867" y="778.3313336115924" type="curve" smooth="yes"/>
      <point x="277.10910258592344" y="798.9882565873345"/>
      <point x="259.82458703683074" y="817.3236169259035"/>
      <point x="261.42978909692687" y="863.0" type="curve" smooth="yes"/>
      <point x="258.26384404215247" y="970.673065378986"/>
      <point x="329.2470101446219" y="1028.4481617892216"/>
      <point x="479.42978909692687" y="1027.0" type="curve" smooth="yes"/>
      <point x="605.8116964771734" y="1027.3150891265038"/>
      <point x="714.0013093134227" y="995.7641883296749"/>
      <point x="807.0393378648257" y="939.78404193007" type="curve" smooth="yes"/>
      <point x="844.701220294372" y="919.1395056844991"/>
      <point x="910.9106225754357" y="926.4929004763073"/>
      <point x="943.3092628815145" y="989.7712228639646" type="curve" smooth="yes"/>
      <point x="968.8877969679046" y="1047.95337207151"/>
      <point x="953.5104026821089" y="1108.8128768166976"/>
      <point x="906.3184957699149" y="1138.508839131924" type="curve" smooth="yes"/>
      <point x="780.7589114695083" y="1209.6858444975342"/>
      <point x="636.0560455741285" y="1242.8060684487498"/>
      <point x="479.42978909692687" y="1243.0" type="curve" smooth="yes"/>
      <point x="229.13404281568884" y="1241.403666590563"/>
      <point x="42.77524062961094" y="1094.7070955074405"/>
    </contour>
  </outline>
</glyph>
<glyph name="T" format="2">
  <advance width="944"/>
  <unicode hex="0054"/>
  <outline>
    <contour>
      <point x="127.03561151079134" y="1221.0" type="line" smooth="yes"/>
      <point x="79.65579925338592" y="1218.388056566274"/>
      <point x="45.601356576716555" y="1173.3663661129694"/>
      <point x="45.0" y="1115.0" type="curve" smooth="yes"/>
      <point x="45.601356576716555" y="1056.6336338870306"/>
      <point x="79.65579925338592" y="1011.6119434337261"/>
      <point x="127.03561151079134" y="1009.0" type="curve" smooth="yes"/>
      <point x="348.95" y="1009.0" type="line" smooth="yes"/>
      <point x="359.9277212460377" y="1012.2291941405057"/>
      <point x="366.1791941405057" y="1005.9777212460377"/>
      <point x="362.95" y="995.0" type="curve" smooth="yes"/>
      <point x="362.95" y="55.0" type="line" smooth="yes"/>
      <point x="364.1831792561819" y="-0.07388882136500641"/>
      <point x="406.4945315899164" y="-42.931824334009775"/>
      <point x="470.95" y="-44.0" type="curve" smooth="yes"/>
      <point x="472.95" y="-44.0" type="line" smooth="yes"/>
      <point x="537.4054684100836" y="-42.93182433400978"/>
      <point x="579.7168207438182" y="-0.07388882136500641"/>
      <point x="580.95" y="55.0" type="curve" smooth="yes"/>
      <point x="580.95" y="995.0" type="line" smooth="yes"/>
      <point x="577.7208058594944" y="1005.9777212460377"/>
      <point x="583.9722787539623" y="1012.2291941405057"/>
      <point x="594.95" y="1009.0" type="curve" smooth="yes"/>
      <point x="816.8643884892087" y="1009.0" type="line" smooth="yes"/>
      <point x="864.2442007466141" y="1011.6119434337261"/>
      <point x="898.2986434232836" y="1056.6336338870306"/>
      <point x="898.9000000000001" y="1115.0" type="curve" smooth="yes"/>
      <point x="898.2986434232836" y="1173.3663661129694"/>
      <point x="864.2442007466141" y="1218.388056566274"/>
      <point x="816.8643884892087" y="1221.0" type="curve" smooth="yes"/>
    </contour>
  </outline>
</glyph>
<glyph name="U" format="2">
  <advance width="1046"/>
  <unicode hex="0055"/>
  <outline>
    <contour>
      <point x="886.0" y="1231.0" type="line" smooth="yes"/>
      <point x="821.5445315899165" y="1229.93182433401"/>
      <point x="779.2331792561819" y="1187.073888821365"/>
      <point x="778.0" y="1132.0" type="curve" smooth="yes"/>
      <point x="778.0" y="433.0" type="line" smooth="yes"/>
      <point x="779.8941695659652" y="236.18997998840953"/>
      <point x="693.9815097219083" y="158.16508778149998"/>
      <point x="523.0" y="160.0" type="curve" smooth="yes"/>
      <point x="352.0184902780917" y="158.16508778149998"/>
      <point x="266.1058304340348" y="236.18997998840953"/>
      <point x="268.0" y="433.0" type="curve" smooth="yes"/>
      <point x="268.0" y="1132.0" type="line" smooth="yes"/>
      <point x="266.7668207438181" y="1187.073888821365"/>
      <point x="224.4554684100836" y="1229.93182433401"/>
      <point x="160.0" y="1231.0" type="curve" smooth="yes"/>
      <point x="158.0" y="1231.0" type="line" smooth="yes"/>
      <point x="93.5445315899164" y="1229.93182433401"/>
      <point x="51.23317925618192" y="1187.073888821365"/>
      <point x="50.0" y="1132.0" type="curve" smooth="yes"/>
      <point x="50.0" y="413.0" type="line" smooth="yes"/>
      <point x="52.55795162280805" y="115.06177779421296"/>
      <point x="252.0067057240075" y="-54.17370791440474"/>
      <point x="523.0" y="-56.0" type="curve" smooth="yes"/>
      <point x="793.9932942759925" y="-54.17370791440474"/>
      <point x="993.442048377192" y="115.06177779421296"/>
      <point x="996.0" y="413.0" type="curve" smooth="yes"/>
      <point x="996.0" y="1132.0" type="line" smooth="yes"/>
      <point x="994.7668207438181" y="1187.073888821365"/>
      <point x="952.4554684100835" y="1229.93182433401"/>
      <point x="888.0" y="1231.0" type="curve" smooth="yes"/>
    </contour>
  </outline>
</glyph>
<glyph name="V" format="2">
  <advance width="1150"/>
  <unicode hex="0056"/>
  <outline>
    <contour>
      <point x="903.9516618501823" y="1162.8583704275438" type="curve" smooth="yes"/>
      <point x="559.7131160160112" y="238.8496482998474" type="line" smooth="yes"/>
      <point x="559.0478086940111" y="227.5726222832015"/>
      <point x="590.5855409220285" y="227.5726222832015"/>
      <point x="589.9202336000284" y="238.8496482998474" type="curve" smooth="yes"/>
      <point x="245.68168776585733" y="1162.8583704275438" type="line" smooth="yes"/>
      <point x="225.2500106932372" y="1215.0851209159628"/>
      <point x="170.20899384593875" y="1240.8998525070538"/>
      <point x="108.97462250793946" y="1221.2249887807943" type="curve" smooth="yes"/>
      <point x="47.949916863474655" y="1199.9271319102158"/>
      <point x="17.849714820142687" y="1145.5014576475937"/>
      <point x="37.00047237059675" y="1091.0112860380725" type="curve" smooth="yes"/>
      <point x="435.99923552734884" y="31.014568943053494" type="line" smooth="yes"/>
      <point x="458.8674591784634" y="-24.730165868889543"/>
      <point x="511.0767338495461" y="-55.32526362800884"/>
      <point x="574.8166748080198" y="-56.0" type="curve" smooth="yes"/>
      <point x="638.5566157664935" y="-55.32526362800884"/>
      <point x="690.7658904375762" y="-24.730165868889543"/>
      <point x="713.6341140886907" y="31.014568943053494" type="curve" smooth="yes"/>
      <point x="1112.6328772454428" y="1091.0112860380725" type="line" smooth="yes"/>
      <point x="1131.783634795897" y="1145.5014576475937"/>
      <point x="1101.6834327525648" y="1199.9271319102158"/>
      <point x="1040.6587271081" y="1221.2249887807943" type="curve" smooth="yes"/>
      <point x="979.4243557701009" y="1240.8998525070538"/>
      <point x="924.3833389228024" y="1215.0851209159628"/>
    </contour>
  </outline>
</glyph>
<glyph name="W" format="2">
  <advance width="1195"/>
  <unicode hex="0057"/>
  <outline>
    <contour>
      <point x="956.7077195592329" y="1143.2887437416207" type="curve" smooth="yes"/>
      <point x="855.394159397107" y="283.0013380301563" type="line"/>
      <point x="703.5036066524157" y="856.2994644940231" type="line" smooth="yes"/>
      <point x="689.636144917063" y="891.4"/>
      <point x="648.595051499196" y="918.2377805599034"/>
      <point x="597.436144917063" y="919.0" type="curve" smooth="yes"/>
      <point x="546.27723833493" y="918.2377805599034"/>
      <point x="505.236144917063" y="891.4"/>
      <point x="491.36868318171025" y="856.2994644940231" type="curve" smooth="yes"/>
      <point x="339.478130437019" y="283.0013380301563" type="line"/>
      <point x="238.164570274893" y="1143.2887437416207" type="line" smooth="yes"/>
      <point x="229.8648586572522" y="1198.970580273729"/>
      <point x="182.8715983444902" y="1235.7094460484466"/>
      <point x="118.5160349877446" y="1229.7732547756661" type="curve" smooth="yes"/>
      <point x="54.78223147006431" y="1220.9403553732557"/>
      <point x="14.885315799286516" y="1174.508345079038"/>
      <point x="21.7578246427425" y="1117.3340870667905" type="curve" smooth="yes"/>
      <point x="170.75670101281995" y="38.34220456643447" type="line" smooth="yes"/>
      <point x="181.50012751970905" y="-22.119393983190594"/>
      <point x="232.68709770322627" y="-55.32342061831893"/>
      <point x="290.436144917063" y="-56.0" type="curve" smooth="yes"/>
      <point x="349.31124284546837" y="-55.07541129930247"/>
      <point x="401.5859401172929" y="-22.4667686894041"/>
      <point x="422.4931239561214" y="31.670829911711536" type="curve" smooth="yes"/>
      <point x="597.436144917063" y="595.0" type="line"/>
      <point x="772.3791658780045" y="31.670829911711532" type="line" smooth="yes"/>
      <point x="793.286349716833" y="-22.4667686894041"/>
      <point x="845.5610469886576" y="-55.07541129930247"/>
      <point x="904.436144917063" y="-56.0" type="curve" smooth="yes"/>
      <point x="962.1851921308997" y="-55.32342061831893"/>
      <point x="1013.3721623144169" y="-22.119393983190594"/>
      <point x="1024.1155888213061" y="38.34220456643446" type="curve" smooth="yes"/>
      <point x="1173.1144651913835" y="1117.3340870667905" type="line" smooth="yes"/>
      <point x="1179.9869740348395" y="1174.508345079038"/>
      <point x="1140.0900583640619" y="1220.9403553732557"/>
      <point x="1076.3562548463815" y="1229.7732547756661" type="curve" smooth="yes"/>
      <point x="1012.0006914896358" y="1235.7094460484466"/>
      <point x="965.0074311768738" y="1198.970580273729"/>
    </contour>
  </outline>
</glyph>
<glyph name="X" format="2">
  <advance width="1049"/>
  <unicode hex="0058"/>
  <outline>
    <contour>
      <point x="792.1850067703925" y="1190.7832807075163" type="curve" smooth="yes"/>
      <point x="525.2520863144259" y="758.7474975585938" type="line"/>
      <point x="256.8271582859979" y="1190.8419993902762" type="line" smooth="yes"/>
      <point x="220.61663307304912" y="1239.1341763293199"/>
      <point x="162.75575674032638" y="1242.5660936975191"/>
      <point x="107.48033906876249" y="1217.9633827440796" type="curve" smooth="yes"/>
      <point x="53.58362877786298" y="1191.9721112685654"/>
      <point x="30.429401126240528" y="1130.2126626533313"/>
      <point x="63.51899780077122" y="1078.7222646071334" type="curve" smooth="yes"/>
      <point x="396.6513580534497" y="605.4293645176831" type="line"/>
      <point x="40.675438484791016" y="108.50305995119004" type="line" smooth="yes"/>
      <point x="8.429401126240528" y="56.78733734666861"/>
      <point x="30.36145054306064" y="-4.782768479014777"/>
      <point x="84.48033906876249" y="-30.963382744079635" type="curve" smooth="yes"/>
      <point x="139.38423508295992" y="-55.452319253191014"/>
      <point x="197.61663307304912" y="-53.134176329319786"/>
      <point x="233.73468939191295" y="-3.9801586115566927" type="curve" smooth="yes"/>
      <point x="522.7753407089572" y="452.63836669921875" type="line"/>
      <point x="815.3803478005609" y="-4.07473804418818" type="line" smooth="yes"/>
      <point x="850.4345366261152" y="-53.134176329319786"/>
      <point x="909.5526842287329" y="-55.487801988448446"/>
      <point x="964.5708306304018" y="-30.963382744079635" type="curve" smooth="yes"/>
      <point x="1018.7255319999439" y="-4.751938694419611"/>
      <point x="1041.6217685729237" y="57.78733734666861"/>
      <point x="1008.3019979133736" y="108.60792893983538" type="curve" smooth="yes"/>
      <point x="651.3809517824334" y="604.8542302403393" type="line"/>
      <point x="985.5169093259121" y="1078.700109998738" type="line" smooth="yes"/>
      <point x="1018.6217685729238" y="1130.2126626533313"/>
      <point x="995.4675409213013" y="1191.9721112685654"/>
      <point x="941.5708306304018" y="1217.9633827440796" type="curve" smooth="yes"/>
      <point x="886.2954129588379" y="1242.5660936975191"/>
      <point x="828.4345366261152" y="1239.1341763293199"/>
    </contour>
  </outline>
</glyph>
<glyph name="Y" format="2">
  <advance width="894"/>
  <unicode hex="0059"/>
  <outline>
    <contour>
      <point x="696.3406475383758" y="1187.9160321737181" type="curve" smooth="yes"/>
      <point x="429.3106480318207" y="684.9270026015043" type="line" smooth="yes"/>
      <point x="433.7786863864695" y="684.9405548378023"/>
      <point x="460.49744559735126" y="684.948461701563"/>
      <point x="464.9654911904376" y="684.9375539143495" type="curve" smooth="yes"/>
      <point x="197.56831869391974" y="1187.8990951144924" type="line" smooth="yes"/>
      <point x="175.28181390172261" y="1229.1757873750573"/>
      <point x="119.42302305180178" y="1242.597650992036"/>
      <point x="73.17620314702717" y="1216.1605813550934" type="curve" smooth="yes"/>
      <point x="25.28544780077445" y="1185.5915247557286"/>
      <point x="12.094532376176225" y="1128.7597322610736"/>
      <point x="34.924092847009426" y="1080.719894594129" type="curve" smooth="yes"/>
      <point x="329.8907022736275" y="494.68087395553744" type="line" smooth="yes"/>
      <point x="334.16669533527846" y="487.009190042645"/>
      <point x="338.32039153060094" y="469.5177042855062"/>
      <point x="337.95000000000005" y="460.7426452636719" type="curve" smooth="yes"/>
      <point x="337.95000000000005" y="55.0" type="line" smooth="yes"/>
      <point x="339.183179256182" y="-0.07388882136500641"/>
      <point x="381.49453158991645" y="-42.931824334009775"/>
      <point x="445.95000000000005" y="-44.0" type="curve" smooth="yes"/>
      <point x="447.95000000000005" y="-44.0" type="line" smooth="yes"/>
      <point x="512.4054684100836" y="-42.931824334009775"/>
      <point x="554.7168207438182" y="-0.07388882136500641"/>
      <point x="555.95" y="55.0" type="curve" smooth="yes"/>
      <point x="555.95" y="461.4532470703125" type="line" smooth="yes"/>
      <point x="555.5788785145662" y="470.22340377410586"/>
      <point x="559.7349796735882" y="487.706784495206"/>
      <point x="564.0130147332977" y="495.37175649736866" type="curve" smooth="yes"/>
      <point x="858.9692006979994" y="1080.7065711370133" type="line" smooth="yes"/>
      <point x="881.8054676238239" y="1128.7597322610739"/>
      <point x="868.6145521992255" y="1185.5915247557286"/>
      <point x="820.7237968529729" y="1216.1605813550934" type="curve" smooth="yes"/>
      <point x="774.5906874840933" y="1242.5637239868001"/>
      <point x="719.3867397812425" y="1229.1757873750573"/>
    </contour>
  </outline>
</glyph>
<glyph name="Z" format="2">
  <advance width="1016"/>
  <unicode hex="005A"/>
  <outline>
    <contour>
      <point x="151.0" y="1221.0" type="line" smooth="yes"/>
      <point x="95.71230949748747" y="1219.4062250829145"/>
      <point x="55.015154995058715" y="1175.2462112512353"/>
      <point x="54.0" y="1115.0" type="curve" smooth="yes"/>
      <point x="55.015154995058715" y="1054.7537887487647"/>
      <point x="95.71230949748747" y="1010.5937749170855"/>
      <point x="151.0" y="1009.0" type="curve" smooth="yes"/>
      <point x="668.5021362304688" y="1009.0" type="line" smooth="yes"/>
      <point x="678.0703013019763" y="1012.9319961420335"/>
      <point x="669.9547423150959" y="1028.3565403110913"/>
      <point x="661.294993220073" y="1022.6979961425058" type="curve" smooth="yes"/>
      <point x="47.97552687178945" y="130.25172475094647" type="line" smooth="yes"/>
      <point x="38.33479545770952" y="115.61251454368266"/>
      <point x="28.619485079930435" y="92.46074482323927"/>
      <point x="28.0" y="68.0" type="curve" smooth="yes"/>
      <point x="29.132022252708595" y="9.299652949246394"/>
      <point x="70.65948165148914" y="-32.691814219787986"/>
      <point x="125.0" y="-34.0" type="curve" smooth="yes"/>
      <point x="891.0" y="-34.0" type="line" smooth="yes"/>
      <point x="946.2876905025125" y="-32.40622508291445"/>
      <point x="986.9848450049412" y="11.753788748764679"/>
      <point x="988.0" y="72.0" type="curve" smooth="yes"/>
      <point x="986.9848450049412" y="132.2462112512353"/>
      <point x="946.2876905025125" y="176.40622508291446"/>
      <point x="891.0" y="178.0" type="curve" smooth="yes"/>
      <point x="330.5" y="178.0" type="line" smooth="yes"/>
      <point x="320.9314773149392" y="174.06819262678374"/>
      <point x="329.0499909144155" y="158.63465074123351"/>
      <point x="337.7108089213576" y="164.29203238340943" type="curve" smooth="yes"/>
      <point x="954.0156217022925" y="1060.7353966914957" type="line" smooth="yes"/>
      <point x="964.18038191261" y="1076.4433122119087"/>
      <point x="969.8195209901028" y="1099.5014288630928"/>
      <point x="970.0" y="1119.0" type="curve" smooth="yes"/>
      <point x="968.8679777472914" y="1177.7003470507536"/>
      <point x="927.3405183485108" y="1219.691814219788"/>
      <point x="873.0" y="1221.0" type="curve" smooth="yes"/>
    </contour>
  </outline>
</glyph>
<glyph name="bracketleft" format="2">
  <advance width="681"/>
  <unicode hex="005B"/>
  <outline>
    <contour>
      <point x="144.0" y="1406.0" type="line" smooth="yes"/>
      <point x="89.65948165148914" y="1404.691814219788"/>
      <point x="48.132022252708595" y="1362.7003470507536"/>
      <point x="47.0" y="1304.0" type="curve" smooth="yes"/>
      <point x="47.0" y="-265.0" type="line" smooth="yes"/>
      <point x="48.132022252708595" y="-323.70034705075363"/>
      <point x="89.65948165148914" y="-365.691814219788"/>
      <point x="144.0" y="-367.0" type="curve" smooth="yes"/>
      <point x="558.0" y="-367.0" type="line" smooth="yes"/>
      <point x="613.2876905025125" y="-365.40622508291443"/>
      <point x="653.9848450049412" y="-321.2462112512353"/>
      <point x="655.0" y="-261.0" type="curve" smooth="yes"/>
      <point x="653.9848450049412" y="-200.7537887487647"/>
      <point x="613.2876905025125" y="-156.59377491708554"/>
      <point x="558.0" y="-155.0" type="curve" smooth="yes"/>
      <point x="279.0" y="-155.0" type="line" smooth="yes"/>
      <point x="268.0222787539623" y="-158.22919414050568"/>
      <point x="261.7708058594943" y="-151.97772124603767"/>
      <point x="265.0" y="-141.0" type="curve" smooth="yes"/>
      <point x="265.0" y="1180.0" type="line" smooth="yes"/>
      <point x="261.7708058594943" y="1190.9777212460376"/>
      <point x="268.0222787539623" y="1197.2291941405056"/>
      <point x="279.0" y="1194.0" type="curve" smooth="yes"/>
      <point x="558.0" y="1194.0" type="line" smooth="yes"/>
      <point x="613.2876905025125" y="1195.5937749170855"/>
      <point x="653.9848450049412" y="1239.7537887487647"/>
      <point x="655.0" y="1300.0" type="curve" smooth="yes"/>
      <point x="653.9848450049412" y="1360.2462112512353"/>
      <point x="613.2876905025125" y="1404.4062250829145"/>
      <point x="558.0" y="1406.0" type="curve" smooth="yes"/>
    </contour>
  </outline>
</glyph>
<glyph name="backslash" format="2">
  <advance width="1017"/>
  <unicode hex="005C"/>
  <outline>
    <contour>
      <point x="63.94260224272236" y="1311.134493162014" type="curve" smooth="yes"/>
      <point x="735.9476855059467" y="-331.87793461618907" type="line" smooth="yes"/>
      <point x="751.3512335810284" y="-362.9746373695898"/>
      <point x="791.6174474502347" y="-387.8422337511103"/>
      <point x="832.4144743478536" y="-389.0" type="curve" smooth="yes"/>
      <point x="904.7549926963644" y="-387.691814219788"/>
      <point x="969.2869335961856" y="-336.8383420065233"/>
      <point x="952.8863464529848" y="-272.1344931620141" type="curve" smooth="yes"/>
      <point x="280.88126318976055" y="1370.8779346161891" type="line" smooth="yes"/>
      <point x="265.4777151146788" y="1401.9746373695898"/>
      <point x="225.21150124547245" y="1426.8422337511104"/>
      <point x="184.4144743478536" y="1428.0" type="curve" smooth="yes"/>
      <point x="112.07395599934274" y="1426.691814219788"/>
      <point x="47.54201509952158" y="1375.8383420065234"/>
    </contour>
  </outline>
</glyph>
<glyph name="bracketright" format="2">
  <advance width="681"/>
  <unicode hex="005D"/>
  <outline>
    <contour>
      <point x="144.0" y="-155.0" type="line" smooth="yes"/>
      <point x="88.71230949748747" y="-156.59377491708554"/>
      <point x="48.015154995058715" y="-200.7537887487647"/>
      <point x="47.0" y="-261.0" type="curve" smooth="yes"/>
      <point x="48.015154995058715" y="-321.2462112512353"/>
      <point x="88.71230949748747" y="-365.40622508291443"/>
      <point x="144.0" y="-367.0" type="curve" smooth="yes"/>
      <point x="558.0" y="-367.0" type="line" smooth="yes"/>
      <point x="612.3405183485108" y="-365.691814219788"/>
      <point x="653.8679777472914" y="-323.70034705075363"/>
      <point x="655.0" y="-265.0" type="curve" smooth="yes"/>
      <point x="655.0" y="1304.0" type="line" smooth="yes"/>
      <point x="653.8679777472914" y="1362.7003470507536"/>
      <point x="612.3405183485108" y="1404.691814219788"/>
      <point x="558.0" y="1406.0" type="curve" smooth="yes"/>
      <point x="144.0" y="1406.0" type="line" smooth="yes"/>
      <point x="88.71230949748747" y="1404.4062250829145"/>
      <point x="48.015154995058715" y="1360.2462112512353"/>
      <point x="47.0" y="1300.0" type="curve" smooth="yes"/>
      <point x="48.015154995058715" y="1239.7537887487647"/>
      <point x="88.71230949748747" y="1195.5937749170855"/>
      <point x="144.0" y="1194.0" type="curve" smooth="yes"/>
      <point x="445.0" y="1194.0" type="line" smooth="yes"/>
      <point x="444.3177212460376" y="1197.2291941405058"/>
      <point x="440.2291941405057" y="1201.3177212460375"/>
      <point x="437.0" y="1202.0" type="curve" smooth="yes"/>
      <point x="437.0" y="-163.0" type="line" smooth="yes"/>
      <point x="440.2291941405057" y="-162.31772124603765"/>
      <point x="444.31772124603765" y="-158.22919414050568"/>
      <point x="445.0" y="-155.0" type="curve" smooth="yes"/>
    </contour>
  </outline>
</glyph>
<glyph name="asciicircum" format="2">
  <advance width="921"/>
  <unicode hex="005E"/>
  <outline>
    <contour>
      <point x="362.58813238339246" y="1187.7322688273186" type="curve" smooth="yes"/>
      <point x="54.58379045420459" y="596.7239473779985" type="line" smooth="yes"/>
      <point x="33.093522728405276" y="542.0373303073148"/>
      <point x="76.16862730188973" y="490.8860955092888"/>
      <point x="119.3833434673892" y="476.61236013810884" type="curve" smooth="yes"/>
      <point x="161.92837280563035" y="463.2131352506007"/>
      <point x="225.34977433164582" y="469.80060013269775"/>
      <point x="254.19829887881463" y="511.91206104518693" type="curve" smooth="yes"/>
      <point x="469.964968357131" y="948.9077958205553" type="line" smooth="yes"/>
      <point x="470.79218863111834" y="959.312873439478"/>
      <point x="450.6666015487571" y="959.312873439478"/>
      <point x="451.49382182274445" y="948.9077958205552" type="curve" smooth="yes"/>
      <point x="667.2475924426708" y="511.938137320601" type="line" smooth="yes"/>
      <point x="696.3257002536609" y="468.6895037092617"/>
      <point x="763.1440842391578" y="462.2878283150468"/>
      <point x="807.5677370964611" y="478.127540751668" type="curve" smooth="yes"/>
      <point x="847.3622878385074" y="493.5603215942884"/>
      <point x="887.4210860880625" y="543.4316351188984"/>
      <point x="866.8844739516151" y="596.7057702404569" type="curve" smooth="yes"/>
      <point x="558.870657796483" y="1187.7322688273186" type="line" smooth="yes"/>
      <point x="542.4892962050822" y="1216.9739765497077"/>
      <point x="507.5502605235227" y="1242.088276834398"/>
      <point x="460.7293950899377" y="1243.0" type="curve" smooth="yes"/>
      <point x="413.90852965635275" y="1242.088276834398"/>
      <point x="378.9694939747933" y="1216.9739765497077"/>
    </contour>
  </outline>
</glyph>
<glyph name="underscore" format="2">
  <advance width="1272"/>
  <unicode hex="005F"/>
  <outline>
    <contour>
      <point x="155.0" y="-215.0" type="line" smooth="yes"/>
      <point x="99.71230949748747" y="-216.59377491708554"/>
      <point x="59.015154995058715" y="-260.7537887487647"/>
      <point x="58.0" y="-321.0" type="curve" smooth="yes"/>
      <point x="59.015154995058715" y="-381.2462112512353"/>
      <point x="99.71230949748747" y="-425.40622508291443"/>
      <point x="155.0" y="-427.0" type="curve" smooth="yes"/>
      <point x="1117.0" y="-427.0" type="line" smooth="yes"/>
      <point x="1172.2876905025125" y="-425.40622508291443"/>
      <point x="1212.9848450049412" y="-381.2462112512353"/>
      <point x="1214.0" y="-321.0" type="curve" smooth="yes"/>
      <point x="1212.9848450049412" y="-260.7537887487647"/>
      <point x="1172.2876905025125" y="-216.59377491708554"/>
      <point x="1117.0" y="-215.0" type="curve" smooth="yes"/>
    </contour>
  </outline>
</glyph>
<glyph name="b" format="2">
  <advance width="1033"/>
  <unicode hex="0062"/>
  <outline>
    <contour>
      <point x="142.0" y="1356.0" type="line" smooth="yes"/>
      <point x="77.5445315899164" y="1354.93182433401"/>
      <point x="35.23317925618192" y="1312.073888821365"/>
      <point x="34.0" y="1257.0" type="curve" smooth="yes"/>
      <point x="34.0" y="55.0" type="line" smooth="yes"/>
      <point x="34.98549411621796" y="0.873352397838266"/>
      <point x="74.9736383299777" y="-42.77994501218622"/>
      <point x="137.0" y="-44.0" type="curve" smooth="yes"/>
      <point x="139.0" y="-44.0" type="line" smooth="yes"/>
      <point x="201.02636167002228" y="-42.77994501218622"/>
      <point x="241.01450588378205" y="0.873352397838266"/>
      <point x="242.0" y="55.0" type="curve" smooth="yes"/>
      <point x="242.0" y="108.94" type="line" smooth="yes"/>
      <point x="238.93546955103318" y="115.53518014770728"/>
      <point x="203.1932858304141" y="103.41453932864859"/>
      <point x="204.7725776173873" y="96.31569537311921" type="curve" smooth="yes"/>
      <point x="268.49687534926613" y="14.66341650374899"/>
      <point x="393.532604646439" y="-54.92875970829289"/>
      <point x="535.0" y="-56.0" type="curve" smooth="yes"/>
      <point x="795.2525103911009" y="-53.31087619875498"/>
      <point x="996.802670820747" y="147.97543644587455"/>
      <point x="999.0" y="462.0" type="curve" smooth="yes"/>
      <point x="996.802670820747" y="776.0245635541254"/>
      <point x="795.2525103911009" y="977.310876198755"/>
      <point x="535.0" y="980.0" type="curve" smooth="yes"/>
      <point x="393.26536068432944" y="978.8588812351417"/>
      <point x="276.37615134571" y="909.2375526559998"/>
      <point x="220.8697006985921" y="839.7517218292409" type="curve" smooth="yes"/>
      <point x="216.39350039030498" y="828.9978124806047"/>
      <point x="248.88544659098446" y="817.775807710976"/>
      <point x="252.0" y="829.0" type="curve" smooth="yes"/>
      <point x="252.0" y="1257.0" type="line" smooth="yes"/>
      <point x="250.76682074381807" y="1312.073888821365"/>
      <point x="208.4554684100836" y="1354.93182433401"/>
      <point x="144.0" y="1356.0" type="curve" smooth="yes"/>
    </contour>
    <contour>
      <point x="777.0" y="462.0" type="curve" smooth="yes"/>
      <point x="778.547680746809" y="276.14134976662217"/>
      <point x="691.051536981705" y="156.53757445165982"/>
      <point x="525.0" y="160.0" type="curve" smooth="yes"/>
      <point x="360.7334415472566" y="157.52553673393365"/>
      <point x="249.70936463185754" y="262.2685041730401"/>
      <point x="252.0" y="462.0" type="curve" smooth="yes"/>
      <point x="249.70936463185754" y="661.7314958269599"/>
      <point x="360.7334415472566" y="766.4744632660663"/>
      <point x="525.0" y="764.0" type="curve" smooth="yes"/>
      <point x="691.051536981705" y="767.4624255483402"/>
      <point x="778.547680746809" y="647.8586502333778"/>
    </contour>
  </outline>
</glyph>
<glyph name="c" format="2">
  <advance width="1062"/>
  <unicode hex="0063"/>
  <outline>
    <contour>
      <point x="34.0" y="462.0" type="curve" smooth="yes"/>
      <point x="36.35127107853827" y="172.57591220025262"/>
      <point x="244.58328009853028" y="-53.24086469810825"/>
      <point x="550.0" y="-56.0" type="curve" smooth="yes"/>
      <point x="707.4104313637348" y="-55.56675784847733"/>
      <point x="869.0172568543401" y="-3.503802985378318"/>
      <point x="981.9978377209516" y="78.5029731336916" type="curve" smooth="yes"/>
      <point x="1024.7895269786081" y="111.41066131016143"/>
      <point x="1038.0539247692814" y="174.96480114922443"/>
      <point x="1006.235061290585" y="231.35831764128483" type="curve" smooth="yes"/>
      <point x="967.2619799781602" y="291.0174254227785"/>
      <point x="899.8512930074771" y="289.3546089821701"/>
      <point x="865.248503172702" y="263.93279375457814" type="curve" smooth="yes"/>
      <point x="775.3450998528159" y="194.18151920267923"/>
      <point x="666.7044287995993" y="159.5850699814886"/>
      <point x="550.0" y="160.0" type="curve" smooth="yes"/>
      <point x="368.5672423194027" y="157.1757908616062"/>
      <point x="257.7410491094537" y="279.18629564023666"/>
      <point x="260.0" y="462.0" type="curve" smooth="yes"/>
      <point x="257.7410491094537" y="644.8137043597633"/>
      <point x="368.5672423194027" y="766.8242091383938"/>
      <point x="550.0" y="764.0" type="curve" smooth="yes"/>
      <point x="657.5566197239884" y="764.2915979061191"/>
      <point x="755.5730588897609" y="738.2126102080464"/>
      <point x="849.6354196345312" y="673.0533896998348" type="curve" smooth="yes"/>
      <point x="885.3400408873118" y="649.061851126115"/>
      <point x="953.0252722857231" y="651.2803831368935"/>
      <point x="988.1003997709906" y="713.1896890091766" type="curve" smooth="yes"/>
      <point x="1017.3995112583641" y="770.6381883317401"/>
      <point x="1000.8134857096458" y="833.9054295363339"/>
      <point x="956.5024975733668" y="864.5246837589403" type="curve" smooth="yes"/>
      <point x="839.8789126032634" y="940.0382954582074"/>
      <point x="696.5175580402162" y="979.6985410567472"/>
      <point x="550.0" y="980.0" type="curve" smooth="yes"/>
      <point x="244.58328009853028" y="977.2408646981082"/>
      <point x="36.35127107853827" y="751.4240877997473"/>
    </contour>
  </outline>
</glyph>
<glyph name="d" format="2">
  <advance width="1033"/>
  <unicode hex="0064"/>
  <outline>
    <contour>
      <point x="889.0" y="1356.0" type="line" smooth="yes"/>
      <point x="824.5445315899165" y="1354.93182433401"/>
      <point x="782.2331792561819" y="1312.073888821365"/>
      <point x="781.0" y="1257.0" type="curve" smooth="yes"/>
      <point x="781.0" y="829.0" type="line" smooth="yes"/>
      <point x="784.1145534090156" y="817.775807710976"/>
      <point x="816.606499609695" y="828.9978124806047"/>
      <point x="812.1302993014078" y="839.7517218292409" type="curve" smooth="yes"/>
      <point x="756.62384865429" y="909.2375526559998"/>
      <point x="639.7346393156705" y="978.8588812351417"/>
      <point x="498.0" y="980.0" type="curve" smooth="yes"/>
      <point x="237.74748960889906" y="977.310876198755"/>
      <point x="36.19732917925292" y="776.0245635541254"/>
      <point x="34.0" y="462.0" type="curve" smooth="yes"/>
      <point x="36.19732917925292" y="147.97543644587455"/>
      <point x="237.74748960889906" y="-53.31087619875498"/>
      <point x="498.0" y="-56.0" type="curve" smooth="yes"/>
      <point x="639.4673953535611" y="-54.92875970829289"/>
      <point x="764.5031246507339" y="14.663416503748994"/>
      <point x="828.2274223826126" y="96.31569537311921" type="curve" smooth="yes"/>
      <point x="829.8067141695858" y="103.41453932864857"/>
      <point x="794.0645304489668" y="115.53518014770722"/>
      <point x="791.0" y="108.94" type="curve" smooth="yes"/>
      <point x="791.0" y="55.0" type="line" smooth="yes"/>
      <point x="791.985494116218" y="0.873352397838266"/>
      <point x="831.9736383299777" y="-42.77994501218622"/>
      <point x="894.0" y="-44.0" type="curve" smooth="yes"/>
      <point x="896.0" y="-44.0" type="line" smooth="yes"/>
      <point x="958.0263616700223" y="-42.77994501218622"/>
      <point x="998.014505883782" y="0.873352397838266"/>
      <point x="999.0" y="55.0" type="curve" smooth="yes"/>
      <point x="999.0" y="1257.0" type="line" smooth="yes"/>
      <point x="997.7668207438181" y="1312.073888821365"/>
      <point x="955.4554684100835" y="1354.93182433401"/>
      <point x="891.0" y="1356.0" type="curve" smooth="yes"/>
    </contour>
    <contour>
      <point x="781.0" y="462.0" type="curve" smooth="yes"/>
      <point x="783.2906353681425" y="262.2685041730401"/>
      <point x="672.2665584527434" y="157.52553673393365"/>
      <point x="508.0" y="160.0" type="curve" smooth="yes"/>
      <point x="341.948463018295" y="156.53757445165982"/>
      <point x="254.452319253191" y="276.14134976662217"/>
      <point x="256.0" y="462.0" type="curve" smooth="yes"/>
      <point x="254.452319253191" y="647.8586502333778"/>
      <point x="341.948463018295" y="767.4624255483402"/>
      <point x="508.0" y="764.0" type="curve" smooth="yes"/>
      <point x="672.2665584527434" y="766.4744632660663"/>
      <point x="783.2906353681425" y="661.7314958269599"/>
    </contour>
  </outline>
</glyph>
<glyph name="e" format="2">
  <advance width="1077"/>
  <unicode hex="0065"/>
  <outline>
    <contour>
      <point x="34.0" y="462.0" type="curve" smooth="yes"/>
      <point x="35.77820942311792" y="150.1484465619178"/>
      <point x="218.31297410766945" y="-53.54424470497486"/>
      <point x="523.0" y="-56.0" type="curve" smooth="yes"/>
      <point x="682.0423212865361" y="-55.75884533890958"/>
      <point x="842.8640656656439" y="-17.217574042943973"/>
      <point x="950.78146823826" y="34.38124436360433" type="curve" smooth="yes"/>
      <point x="1000.3452001207663" y="60.281552813306206"/>
      <point x="1023.9542164411067" y="117.76385539953802"/>
      <point x="1004.9328783550872" y="173.67438563519318" type="curve" smooth="yes"/>
      <point x="983.721124889683" y="228.68601622600673"/>
      <point x="924.0" y="265.0"/>
      <point x="866.2036801412761" y="238.5615229513541" type="curve" smooth="yes"/>
      <point x="779.9078536753663" y="187.7770356903165"/>
      <point x="652.8600322610545" y="156.7470097507985"/>
      <point x="523.0" y="157.0" type="curve" smooth="yes"/>
      <point x="349.246647499636" y="155.08602374896162"/>
      <point x="263.03834191503387" y="238.87880870843932"/>
      <point x="258.3545851351535" y="378.7577667099558" type="curve" smooth="yes"/>
      <point x="254.46741069052587" y="389.28660241595014"/>
      <point x="259.2901844845677" y="394.35653960384695"/>
      <point x="270.0" y="391.0" type="curve" smooth="yes"/>
      <point x="946.0" y="391.0" type="line" smooth="yes"/>
      <point x="999.4807640251304" y="392.07468084361136"/>
      <point x="1044.6517717096233" y="432.5204533746255"/>
      <point x="1042.9431953730575" y="488.96455793155957" type="curve" smooth="yes"/>
      <point x="1025.9060389040656" y="764.7475393786211"/>
      <point x="853.3765246145073" y="977.258096378978"/>
      <point x="543.0" y="980.0" type="curve" smooth="yes"/>
      <point x="251.20140167504005" y="977.4991409552123"/>
      <point x="36.48596544553877" y="765.761881761724"/>
    </contour>
    <contour>
      <point x="804.7694501130359" y="605.946070095244" type="curve" smooth="yes"/>
      <point x="810.2184193028324" y="596.6904687404439"/>
      <point x="809.0983136619839" y="595.3419290801677"/>
      <point x="799.0" y="599.0" type="curve" smooth="yes"/>
      <point x="280.0" y="599.0" type="line" smooth="yes"/>
      <point x="270.0362752777305" y="595.2735016727155"/>
      <point x="269.8697502742066" y="595.4815543353752"/>
      <point x="275.6881930019039" y="604.387076462063" type="curve" smooth="yes"/>
      <point x="292.7106681089214" y="692.2992671974566"/>
      <point x="387.3666009998516" y="768.6189317083288"/>
      <point x="543.0" y="767.0" type="curve" smooth="yes"/>
      <point x="708.885440570685" y="768.5393209012681"/>
      <point x="790.2492904433786" y="696.8507107579718"/>
    </contour>
  </outline>
</glyph>
<glyph name="f" format="2">
  <advance width="669"/>
  <unicode hex="0066"/>
  <outline>
    <contour>
      <point x="313.70676198411445" y="1346.879771851958"/>
      <point x="169.99856549110183" y="1197.6778469376097"/>
      <point x="167.93017821112835" y="967.0" type="curve" smooth="yes"/>
      <point x="167.93017821112835" y="55.0" type="line" smooth="yes"/>
      <point x="169.16335746731028" y="-0.07388882136500641"/>
      <point x="211.47470980104475" y="-42.931824334009775"/>
      <point x="275.93017821112835" y="-44.0" type="curve" smooth="yes"/>
      <point x="277.93017821112835" y="-44.0" type="line" smooth="yes"/>
      <point x="342.38564662121195" y="-42.931824334009775"/>
      <point x="384.6969989549464" y="-0.07388882136500641"/>
      <point x="385.93017821112835" y="55.0" type="curve" smooth="yes"/>
      <point x="385.93017821112835" y="954.0" type="line" smooth="yes"/>
      <point x="385.65919542877486" y="1086.7159134542233"/>
      <point x="401.9033400101165" y="1145.4314658839478"/>
      <point x="443.20181038985606" y="1137.0" type="curve" smooth="yes"/>
      <point x="470.2041326288705" y="1138.1300833641656"/>
      <point x="495.80398100053105" y="1123.9677174561216"/>
      <point x="528.2047051284862" y="1096.14781620912" type="curve" smooth="yes"/>
      <point x="571.2852296744284" y="1074.3307842678819"/>
      <point x="611.626212873849" y="1117.3166546989032"/>
      <point x="617.5314037920878" y="1169.38643143929" type="curve" smooth="yes"/>
      <point x="622.6889469824929" y="1219.5984482609356"/>
      <point x="612.3057153016417" y="1266.1170901150438"/>
      <point x="585.4505045240235" y="1291.8725052668767" type="curve" smooth="yes"/>
      <point x="545.8979640464778" y="1325.4258660817409"/>
      <point x="493.5461040997383" y="1350.0763020196985"/>
      <point x="443.20181038985606" y="1351.0" type="curve" smooth="yes"/>
    </contour>
    <contour>
      <point x="112.46590508544477" y="878.0" type="line" smooth="yes"/>
      <point x="72.58697573524361" y="871.8199283062581"/>
      <point x="50.21486504241079" y="827.8163668452447"/>
      <point x="50.0" y="772.0" type="curve" smooth="yes"/>
      <point x="50.21486504241079" y="716.1836331547553"/>
      <point x="72.58697573524361" y="672.1800716937419"/>
      <point x="112.46590508544477" y="666.0" type="curve" smooth="yes"/>
      <point x="508.2667362994441" y="666.0" type="line" smooth="yes"/>
      <point x="548.1456656496453" y="672.1800716937419"/>
      <point x="570.5177763424781" y="716.1836331547553"/>
      <point x="570.7326413848889" y="772.0" type="curve" smooth="yes"/>
      <point x="570.5177763424781" y="827.8163668452447"/>
      <point x="548.1456656496453" y="871.8199283062581"/>
      <point x="508.2667362994441" y="878.0" type="curve" smooth="yes"/>
    </contour>
  </outline>
</glyph>
<glyph name="g" format="2">
  <advance width="1017"/>
  <unicode hex="0067"/>
  <outline>
    <contour>
      <point x="26.0" y="487.0" type="curve" smooth="yes"/>
      <point x="28.417576636104904" y="187.40831486798953"/>
      <point x="230.37271700396047" y="-3.5682074900988177"/>
      <point x="490.0" y="-6.0" type="curve" smooth="yes"/>
      <point x="630.918916053525" y="-5.064947732262098"/>
      <point x="749.9872985555954" y="59.06626324211818"/>
      <point x="780.119509509689" y="163.18079658103363" type="curve"/>
      <point x="773.0" y="-17.0" type="line" smooth="yes"/>
      <point x="775.0432169717486" y="-152.3912094305536"/>
      <point x="706.6961836667525" y="-229.93407203425718"/>
      <point x="529.0" y="-228.0" type="curve" smooth="yes"/>
      <point x="424.55928267361344" y="-228.1868146006722"/>
      <point x="309.90829694323145" y="-205.1877729257642"/>
      <point x="211.39032870026338" y="-169.96470053050922" type="curve" smooth="yes"/>
      <point x="165.45168421957916" y="-156.00442161390777"/>
      <point x="110.33306197897102" y="-183.23790141355073"/>
      <point x="88.77681401708554" y="-242.1525908572367" type="curve" smooth="yes"/>
      <point x="70.0662123315818" y="-301.87913827072384"/>
      <point x="93.61084333247038" y="-358.58760762003385"/>
      <point x="140.3637502711622" y="-377.946794710082" type="curve" smooth="yes"/>
      <point x="258.59945737741094" y="-420.94587809796644"/>
      <point x="400.15505023760323" y="-443.88076535217937"/>
      <point x="529.0" y="-444.0" type="curve" smooth="yes"/>
      <point x="810.6385023038167" y="-442.29275876619533"/>
      <point x="988.4236197345091" y="-281.98291657452086"/>
      <point x="991.0" y="-30.0" type="curve" smooth="yes"/>
      <point x="991.0" y="869.0" type="line" smooth="yes"/>
      <point x="990.014505883782" y="923.1266476021617"/>
      <point x="950.0263616700223" y="966.7799450121862"/>
      <point x="888.0" y="968.0" type="curve" smooth="yes"/>
      <point x="886.0" y="968.0" type="line" smooth="yes"/>
      <point x="823.9736383299777" y="966.7799450121862"/>
      <point x="783.985494116218" y="923.1266476021617"/>
      <point x="783.0" y="869.0" type="curve" smooth="yes"/>
      <point x="822.7220797383287" y="809.5150384673539" type="line"/>
      <point x="757.4078141697555" y="908.5712702878387"/>
      <point x="631.4673953535611" y="978.9287597082929"/>
      <point x="490.0" y="980.0" type="curve" smooth="yes"/>
      <point x="230.37271700396047" y="977.5682074900989"/>
      <point x="28.417576636104904" y="786.5916851320104"/>
    </contour>
    <contour>
      <point x="773.0" y="487.0" type="curve" smooth="yes"/>
      <point x="775.6303262173517" y="303.11272537538355"/>
      <point x="665.1642647607334" y="207.873427354867"/>
      <point x="500.0" y="210.0" type="curve" smooth="yes"/>
      <point x="333.06930010624023" y="206.95246023372857"/>
      <point x="246.21356040989738" y="316.87596091009397"/>
      <point x="248.0" y="487.0" type="curve" smooth="yes"/>
      <point x="246.21356040989738" y="657.124039089906"/>
      <point x="333.06930010624023" y="767.0475397662715"/>
      <point x="500.0" y="764.0" type="curve" smooth="yes"/>
      <point x="665.1642647607334" y="766.126572645133"/>
      <point x="775.6303262173517" y="670.8872746246165"/>
    </contour>
  </outline>
</glyph>
<glyph name="h" format="2">
  <advance width="994"/>
  <unicode hex="0068"/>
  <outline>
    <contour>
      <point x="150.0" y="1356.0" type="line" smooth="yes"/>
      <point x="85.5445315899164" y="1354.93182433401"/>
      <point x="43.23317925618192" y="1312.073888821365"/>
      <point x="42.0" y="1257.0" type="curve" smooth="yes"/>
      <point x="42.0" y="55.0" type="line" smooth="yes"/>
      <point x="43.23317925618192" y="-0.07388882136500641"/>
      <point x="85.5445315899164" y="-42.931824334009775"/>
      <point x="150.0" y="-44.0" type="curve" smooth="yes"/>
      <point x="152.0" y="-44.0" type="line" smooth="yes"/>
      <point x="216.4554684100836" y="-42.931824334009775"/>
      <point x="258.7668207438181" y="-0.07388882136500641"/>
      <point x="260.0" y="55.0" type="curve" smooth="yes"/>
      <point x="260.0" y="392.0" type="line" smooth="yes"/>
      <point x="256.8237900767148" y="605.6509942746328"/>
      <point x="430.0696538415155" y="767.5220484104182"/>
      <point x="586.0" y="764.0" type="curve" smooth="yes"/>
      <point x="701.6067438483083" y="766.749068979386"/>
      <point x="735.213761412584" y="710.996525154751"/>
      <point x="734.0" y="605.0" type="curve" smooth="yes"/>
      <point x="734.0" y="55.0" type="line" smooth="yes"/>
      <point x="735.2331792561819" y="-0.07388882136500641"/>
      <point x="777.5445315899165" y="-42.931824334009775"/>
      <point x="842.0" y="-44.0" type="curve" smooth="yes"/>
      <point x="844.0" y="-44.0" type="line" smooth="yes"/>
      <point x="908.4554684100835" y="-42.931824334009775"/>
      <point x="950.7668207438181" y="-0.07388882136500641"/>
      <point x="952.0" y="55.0" type="curve" smooth="yes"/>
      <point x="952.0" y="620.0" type="line" smooth="yes"/>
      <point x="950.1248373461071" y="831.1352963807059"/>
      <point x="817.5585146120962" y="977.5956280320199"/>
      <point x="601.0" y="980.0" type="curve" smooth="yes"/>
      <point x="455.5919856612343" y="978.367780855722"/>
      <point x="295.1509315270617" y="880.1777693594762"/>
      <point x="212.5456866779863" y="760.6322710789476" type="curve" smooth="yes"/>
      <point x="214.70091341840242" y="758.8289112732057"/>
      <point x="257.2034572419674" y="745.7234905172223"/>
      <point x="260.0" y="746.0" type="curve" smooth="yes"/>
      <point x="260.0" y="1257.0" type="line" smooth="yes"/>
      <point x="258.7668207438181" y="1312.073888821365"/>
      <point x="216.4554684100836" y="1354.93182433401"/>
      <point x="152.0" y="1356.0" type="curve" smooth="yes"/>
    </contour>
  </outline>
</glyph>
<glyph name="k" format="2">
  <advance width="956"/>
  <unicode hex="006B"/>
  <outline>
    <contour>
      <point x="710.3886440417527" y="949.3914667108743" type="curve" smooth="yes"/>
      <point x="200.79337708568767" y="495.3290139131032" type="line" smooth="yes"/>
      <point x="204.521305711273" y="493.67060322428443"/>
      <point x="234.28178151196337" y="480.32749861064195"/>
      <point x="238.0" y="478.6474304199219" type="curve" smooth="yes"/>
      <point x="238.0" y="1257.0" type="line" smooth="yes"/>
      <point x="236.76682074381807" y="1312.073888821365"/>
      <point x="194.4554684100836" y="1354.93182433401"/>
      <point x="130.0" y="1356.0" type="curve" smooth="yes"/>
      <point x="128.0" y="1356.0" type="line" smooth="yes"/>
      <point x="63.54453158991641" y="1354.93182433401"/>
      <point x="21.23317925618192" y="1312.073888821365"/>
      <point x="20.0" y="1257.0" type="curve" smooth="yes"/>
      <point x="20.0" y="55.0" type="line" smooth="yes"/>
      <point x="21.23317925618192" y="-0.07388882136500641"/>
      <point x="63.54453158991641" y="-42.931824334009775"/>
      <point x="128.0" y="-44.0" type="curve" smooth="yes"/>
      <point x="130.0" y="-44.0" type="line" smooth="yes"/>
      <point x="194.4554684100836" y="-42.931824334009775"/>
      <point x="236.76682074381807" y="-0.07388882136500641"/>
      <point x="238.0" y="55.0" type="curve" smooth="yes"/>
      <point x="238.0" y="232.556396484375" type="line" smooth="yes"/>
      <point x="236.83044215664404" y="237.4954650968316"/>
      <point x="241.4976117930826" y="247.81722179882155"/>
      <point x="245.97848411917522" y="250.2013458528017" type="curve" smooth="yes"/>
      <point x="387.33466721673096" y="374.55227384087704" type="line" smooth="yes"/>
      <point x="384.77909166014706" y="376.55228860261354"/>
      <point x="379.4397852563766" y="376.85377204314284"/>
      <point x="376.675310245386" y="375.15415344293206" type="curve" smooth="yes"/>
      <point x="734.7977232849453" y="-19.822034273434305" type="line" smooth="yes"/>
      <point x="769.4949650257588" y="-54.75067414539134"/>
      <point x="825.1212203873374" y="-53.765956877160114"/>
      <point x="876.9018077524818" y="-24.50133716796826" type="curve" smooth="yes"/>
      <point x="933.6939755935322" y="9.62891595612136"/>
      <point x="944.1723831639315" y="74.57507008751855"/>
      <point x="907.0974553720831" y="117.93725645857185" type="curve" smooth="yes"/>
      <point x="539.5695268392763" y="519.997990801684" type="line" smooth="yes"/>
      <point x="537.6805742087597" y="517.2050401319048"/>
      <point x="537.3360285439303" y="510.87508161597367"/>
      <point x="538.9106735503229" y="507.89360403128535" type="curve" smooth="yes"/>
      <point x="879.4267193394968" y="807.445308460726" type="line" smooth="yes"/>
      <point x="923.4287137401892" y="850.0294197262712"/>
      <point x="908.0461903755061" y="918.9932239512842"/>
      <point x="853.3962213763032" y="953.212522688509" type="curve" smooth="yes"/>
      <point x="803.2296456107414" y="981.7232889835377"/>
      <point x="745.106403805548" y="977.4603747144629"/>
    </contour>
  </outline>
</glyph>
<glyph name="l" format="2">
  <advance width="507"/>
  <unicode hex="006C"/>
  <outline>
    <contour>
      <point x="99.6463815789474" y="178.0" type="line" smooth="yes"/>
      <point x="61.69146097351414" y="164.94967079691935"/>
      <point x="50.065346484308826" y="126.10696245101535"/>
      <point x="50.0" y="72.0" type="curve" smooth="yes"/>
      <point x="50.065346484308826" y="17.893037548984648"/>
      <point x="61.69146097351414" y="-20.94967079691934"/>
      <point x="99.6463815789474" y="-34.0" type="curve" smooth="yes"/>
      <point x="407.1036184210526" y="-34.0" type="line" smooth="yes"/>
      <point x="445.05853902648585" y="-20.94967079691934"/>
      <point x="456.6846535156912" y="17.893037548984648"/>
      <point x="456.75" y="72.0" type="curve" smooth="yes"/>
      <point x="456.6846535156912" y="126.10696245101535"/>
      <point x="445.05853902648585" y="164.94967079691935"/>
      <point x="407.1036184210526" y="178.0" type="curve" smooth="yes"/>
      <point x="360.8648355263158" y="178.0" type="line" smooth="yes"/>
      <point x="357.580988293436" y="174.77080585949432"/>
      <point x="358.15238480686276" y="174.19940934606757"/>
      <point x="361.38157894736844" y="177.48325657894736" type="curve" smooth="yes"/>
      <point x="361.38157894736844" y="1244.0" type="line" smooth="yes"/>
      <point x="360.2495566946599" y="1302.7003470507536"/>
      <point x="318.7220972958793" y="1344.691814219788"/>
      <point x="264.38157894736844" y="1346.0" type="curve" smooth="yes"/>
      <point x="109.58059210526318" y="1346.0" type="line" smooth="yes"/>
      <point x="71.62567149982998" y="1332.9496707969192"/>
      <point x="59.999557010624606" y="1294.1069624510153"/>
      <point x="59.93421052631578" y="1240.0" type="curve" smooth="yes"/>
      <point x="59.999557010624606" y="1185.8930375489847"/>
      <point x="71.62567149982998" y="1147.0503292030808"/>
      <point x="109.58059210526318" y="1134.0" type="curve" smooth="yes"/>
      <point x="148.90516447368418" y="1134.0" type="line" smooth="yes"/>
      <point x="149.53538539077454" y="1137.2291941405056"/>
      <point x="146.61077308787412" y="1140.153806443406"/>
      <point x="143.38157894736844" y="1139.5235855263159" type="curve" smooth="yes"/>
      <point x="143.38157894736844" y="176.64878289473683" type="line" smooth="yes"/>
      <point x="146.61077308787412" y="173.80720671448864"/>
      <point x="147.5743722328798" y="174.77080585949432"/>
      <point x="144.73279605263156" y="178.0" type="curve" smooth="yes"/>
    </contour>
  </outline>
</glyph>
<glyph name="m" format="2">
  <advance width="1156"/>
  <unicode hex="006D"/>
  <outline>
    <contour>
      <point x="625.6734446144189" y="823.0776666597384" type="curve" smooth="yes"/>
      <point x="623.4528146999116" y="811.5806092457015"/>
      <point x="657.9887796096335" y="807.1260804978934"/>
      <point x="658.7581280399451" y="818.8103275592853" type="curve" smooth="yes"/>
      <point x="638.0817922401446" y="907.1680187964577"/>
      <point x="545.3980822813011" y="978.0325415836566"/>
      <point x="447.0" y="980.0" type="curve" smooth="yes"/>
      <point x="344.808954299425" y="978.1054589770594"/>
      <point x="244.81726861134965" y="905.4230045353881"/>
      <point x="204.95841406372233" y="789.7757490190065" type="curve"/>
      <point x="248.0" y="869.0" type="line" smooth="yes"/>
      <point x="247.2377805599034" y="922.158906582133"/>
      <point x="209.67634180649455" y="966.5939934534553"/>
      <point x="150.0" y="968.0" type="curve" smooth="yes"/>
      <point x="148.0" y="968.0" type="line" smooth="yes"/>
      <point x="88.32365819350547" y="966.5939934534553"/>
      <point x="50.7622194400966" y="922.158906582133"/>
      <point x="50.0" y="869.0" type="curve" smooth="yes"/>
      <point x="50.0" y="55.0" type="line" smooth="yes"/>
      <point x="51.23317925618192" y="-0.07388882136500641"/>
      <point x="93.5445315899164" y="-42.931824334009775"/>
      <point x="158.0" y="-44.0" type="curve" smooth="yes"/>
      <point x="160.0" y="-44.0" type="line" smooth="yes"/>
      <point x="224.4554684100836" y="-42.931824334009775"/>
      <point x="266.7668207438181" y="-0.07388882136500641"/>
      <point x="268.0" y="55.0" type="curve" smooth="yes"/>
      <point x="268.0" y="457.0" type="line" smooth="yes"/>
      <point x="267.12274013237266" y="651.3264033124415"/>
      <point x="334.221008208529" y="771.4355724583882"/>
      <point x="408.0" y="764.0" type="curve" smooth="yes"/>
      <point x="460.4142434878392" y="767.7827169662189"/>
      <point x="469.6326497347593" y="742.4716053828877"/>
      <point x="469.0" y="660.0" type="curve" smooth="yes"/>
      <point x="469.0" y="55.0" type="line" smooth="yes"/>
      <point x="470.2331792561819" y="-0.07388882136500641"/>
      <point x="512.5445315899165" y="-42.931824334009775"/>
      <point x="577.0" y="-44.0" type="curve" smooth="yes"/>
      <point x="579.0" y="-44.0" type="line" smooth="yes"/>
      <point x="643.4554684100835" y="-42.931824334009775"/>
      <point x="685.7668207438181" y="-0.07388882136500641"/>
      <point x="687.0" y="55.0" type="curve" smooth="yes"/>
      <point x="687.0" y="457.0" type="line" smooth="yes"/>
      <point x="686.1227401323727" y="651.3264033124415"/>
      <point x="753.221008208529" y="771.4355724583882"/>
      <point x="827.0" y="764.0" type="curve" smooth="yes"/>
      <point x="879.4142434878393" y="767.7827169662189"/>
      <point x="888.6326497347593" y="742.4716053828877"/>
      <point x="888.0" y="660.0" type="curve" smooth="yes"/>
      <point x="888.0" y="55.0" type="line" smooth="yes"/>
      <point x="889.2331792561819" y="-0.07388882136500641"/>
      <point x="931.5445315899165" y="-42.931824334009775"/>
      <point x="996.0" y="-44.0" type="curve" smooth="yes"/>
      <point x="998.0" y="-44.0" type="line" smooth="yes"/>
      <point x="1062.4554684100835" y="-42.931824334009775"/>
      <point x="1104.766820743818" y="-0.07388882136500641"/>
      <point x="1106.0" y="55.0" type="curve" smooth="yes"/>
      <point x="1106.0" y="678.0" type="line" smooth="yes"/>
      <point x="1104.1209672871232" y="872.1464550660539"/>
      <point x="991.9149194030812" y="977.4516272522094"/>
      <point x="865.0" y="980.0" type="curve" smooth="yes"/>
      <point x="761.8522864565074" y="978.1205305490465"/>
      <point x="669.0549817174891" y="908.9739852170738"/>
    </contour>
  </outline>
</glyph>
<glyph name="n" format="2">
  <advance width="1010"/>
  <unicode hex="006E"/>
  <outline>
    <contour>
      <point x="221.53067600837605" y="764.7699110006505" type="curve" smooth="yes"/>
      <point x="217.1315720793212" y="753.0523704904157"/>
      <point x="255.32778751800052" y="741.7724838401797"/>
      <point x="258.0" y="754.0" type="curve" smooth="yes"/>
      <point x="258.0" y="869.0" type="line" smooth="yes"/>
      <point x="257.014505883782" y="923.1266476021617"/>
      <point x="217.02636167002228" y="966.7799450121862"/>
      <point x="155.0" y="968.0" type="curve" smooth="yes"/>
      <point x="153.0" y="968.0" type="line" smooth="yes"/>
      <point x="90.9736383299777" y="966.7799450121862"/>
      <point x="50.98549411621796" y="923.1266476021617"/>
      <point x="50.0" y="869.0" type="curve" smooth="yes"/>
      <point x="50.0" y="55.0" type="line" smooth="yes"/>
      <point x="51.23317925618192" y="-0.07388882136500641"/>
      <point x="93.5445315899164" y="-42.931824334009775"/>
      <point x="158.0" y="-44.0" type="curve" smooth="yes"/>
      <point x="160.0" y="-44.0" type="line" smooth="yes"/>
      <point x="224.4554684100836" y="-42.931824334009775"/>
      <point x="266.7668207438181" y="-0.07388882136500641"/>
      <point x="268.0" y="55.0" type="curve" smooth="yes"/>
      <point x="268.0" y="392.0" type="line" smooth="yes"/>
      <point x="264.8237900767148" y="605.6509942746328"/>
      <point x="438.0696538415155" y="767.5220484104182"/>
      <point x="594.0" y="764.0" type="curve" smooth="yes"/>
      <point x="709.6067438483083" y="766.749068979386"/>
      <point x="743.213761412584" y="710.996525154751"/>
      <point x="742.0" y="605.0" type="curve" smooth="yes"/>
      <point x="742.0" y="55.0" type="line" smooth="yes"/>
      <point x="743.2331792561819" y="-0.07388882136500641"/>
      <point x="785.5445315899165" y="-42.931824334009775"/>
      <point x="850.0" y="-44.0" type="curve" smooth="yes"/>
      <point x="852.0" y="-44.0" type="line" smooth="yes"/>
      <point x="916.4554684100835" y="-42.931824334009775"/>
      <point x="958.7668207438181" y="-0.07388882136500641"/>
      <point x="960.0" y="55.0" type="curve" smooth="yes"/>
      <point x="960.0" y="620.0" type="line" smooth="yes"/>
      <point x="958.1248373461071" y="831.1352963807059"/>
      <point x="825.5585146120962" y="977.5956280320199"/>
      <point x="609.0" y="980.0" type="curve" smooth="yes"/>
      <point x="451.76327297053257" y="978.089499305306"/>
      <point x="288.7407678321619" y="866.7993572288196"/>
    </contour>
  </outline>
</glyph>
<glyph name="o" format="2">
  <advance width="1080"/>
  <unicode hex="006F"/>
  <outline>
    <contour>
      <point x="26.0" y="462.0" type="curve" smooth="yes"/>
      <point x="28.66927339047936" y="166.79448713152436"/>
      <point x="250.81189970874527" y="-53.338060098031065"/>
      <point x="540.0" y="-56.0" type="curve" smooth="yes"/>
      <point x="829.1881002912547" y="-53.338060098031065"/>
      <point x="1051.3307266095208" y="166.79448713152436"/>
      <point x="1054.0" y="462.0" type="curve" smooth="yes"/>
      <point x="1051.3307266095208" y="757.2055128684757"/>
      <point x="829.1881002912547" y="977.3380600980311"/>
      <point x="540.0" y="980.0" type="curve" smooth="yes"/>
      <point x="250.81189970874527" y="977.3380600980311"/>
      <point x="28.66927339047936" y="757.2055128684757"/>
    </contour>
    <contour>
      <point x="832.0" y="462.0" type="curve" smooth="yes"/>
      <point x="834.2906353681425" y="277.2685041730401"/>
      <point x="722.6646602675778" y="157.27568886884637"/>
      <point x="540.0" y="160.0" type="curve" smooth="yes"/>
      <point x="357.33533973242226" y="157.27568886884637"/>
      <point x="245.70936463185754" y="277.2685041730401"/>
      <point x="248.0" y="462.0" type="curve" smooth="yes"/>
      <point x="245.70936463185754" y="646.7314958269599"/>
      <point x="357.33533973242226" y="766.7243111311536"/>
      <point x="540.0" y="764.0" type="curve" smooth="yes"/>
      <point x="722.6646602675778" y="766.7243111311536"/>
      <point x="834.2906353681425" y="646.7314958269599"/>
    </contour>
  </outline>
</glyph>
<glyph name="p" format="2">
  <advance width="1017"/>
  <unicode hex="0070"/>
  <outline>
    <contour>
      <point x="188.82849566007468" y="817.3182464630704" type="curve" smooth="yes"/>
      <point x="191.4595673104772" y="815.7134133343606"/>
      <point x="230.93546955103318" y="802.3266198522928"/>
      <point x="234.0" y="802.0" type="curve" smooth="yes"/>
      <point x="234.0" y="869.0" type="line" smooth="yes"/>
      <point x="233.01450588378205" y="923.1266476021617"/>
      <point x="193.02636167002228" y="966.7799450121862"/>
      <point x="131.0" y="968.0" type="curve" smooth="yes"/>
      <point x="129.0" y="968.0" type="line" smooth="yes"/>
      <point x="66.9736383299777" y="966.7799450121862"/>
      <point x="26.985494116217957" y="923.1266476021617"/>
      <point x="26.0" y="869.0" type="curve" smooth="yes"/>
      <point x="26.0" y="-333.0" type="line" smooth="yes"/>
      <point x="27.23317925618192" y="-388.073888821365"/>
      <point x="69.5445315899164" y="-430.9318243340098"/>
      <point x="134.0" y="-432.0" type="curve" smooth="yes"/>
      <point x="136.0" y="-432.0" type="line" smooth="yes"/>
      <point x="200.4554684100836" y="-430.9318243340098"/>
      <point x="242.76682074381807" y="-388.073888821365"/>
      <point x="244.0" y="-333.0" type="curve" smooth="yes"/>
      <point x="244.0" y="117.0" type="line" smooth="yes"/>
      <point x="240.88544659098446" y="116.56419228902395"/>
      <point x="202.01227346053244" y="103.13825185485538"/>
      <point x="199.29262212460787" y="101.55905335258902" type="curve" smooth="yes"/>
      <point x="267.821752361163" y="15.229370755248862"/>
      <point x="385.26536068432944" y="-54.858881235141624"/>
      <point x="527.0" y="-56.0" type="curve" smooth="yes"/>
      <point x="787.2525103911009" y="-53.31087619875498"/>
      <point x="988.802670820747" y="147.97543644587455"/>
      <point x="991.0" y="462.0" type="curve" smooth="yes"/>
      <point x="988.802670820747" y="776.0245635541254"/>
      <point x="787.2525103911009" y="977.310876198755"/>
      <point x="527.0" y="980.0" type="curve" smooth="yes"/>
      <point x="385.532604646439" y="978.9287597082929"/>
      <point x="260.1582412619002" y="909.0564305925934"/>
    </contour>
    <contour>
      <point x="769.0" y="462.0" type="curve" smooth="yes"/>
      <point x="770.547680746809" y="276.14134976662217"/>
      <point x="683.051536981705" y="156.53757445165982"/>
      <point x="517.0" y="160.0" type="curve" smooth="yes"/>
      <point x="352.7334415472566" y="157.52553673393365"/>
      <point x="241.70936463185754" y="262.2685041730401"/>
      <point x="244.0" y="462.0" type="curve" smooth="yes"/>
      <point x="241.70936463185754" y="661.7314958269599"/>
      <point x="352.7334415472566" y="766.4744632660663"/>
      <point x="517.0" y="764.0" type="curve" smooth="yes"/>
      <point x="683.051536981705" y="767.4624255483402"/>
      <point x="770.547680746809" y="647.8586502333778"/>
    </contour>
  </outline>
</glyph>
<glyph name="q" format="2">
  <advance width="1033"/>
  <unicode hex="0071"/>
  <outline>
    <contour>
      <point x="34.0" y="462.0" type="curve" smooth="yes"/>
      <point x="36.19732917925292" y="147.97543644587455"/>
      <point x="237.74748960889906" y="-53.31087619875498"/>
      <point x="498.0" y="-56.0" type="curve" smooth="yes"/>
      <point x="639.7346393156705" y="-54.858881235141624"/>
      <point x="756.62384865429" y="14.7624473440002"/>
      <point x="812.1302993014078" y="84.24827817075912" type="curve" smooth="yes"/>
      <point x="816.606499609695" y="95.0021875193953"/>
      <point x="784.1145534090156" y="106.22419228902393"/>
      <point x="781.0" y="95.0" type="curve" smooth="yes"/>
      <point x="781.0" y="-333.0" type="line" smooth="yes"/>
      <point x="782.2331792561819" y="-388.073888821365"/>
      <point x="824.5445315899165" y="-430.9318243340098"/>
      <point x="889.0" y="-432.0" type="curve" smooth="yes"/>
      <point x="891.0" y="-432.0" type="line" smooth="yes"/>
      <point x="955.4554684100835" y="-430.9318243340098"/>
      <point x="997.7668207438181" y="-388.073888821365"/>
      <point x="999.0" y="-333.0" type="curve" smooth="yes"/>
      <point x="999.0" y="869.0" type="line" smooth="yes"/>
      <point x="998.014505883782" y="923.1266476021617"/>
      <point x="958.0263616700223" y="966.7799450121862"/>
      <point x="896.0" y="968.0" type="curve" smooth="yes"/>
      <point x="894.0" y="968.0" type="line" smooth="yes"/>
      <point x="831.9736383299777" y="966.7799450121862"/>
      <point x="791.985494116218" y="923.1266476021617"/>
      <point x="791.0" y="869.0" type="curve" smooth="yes"/>
      <point x="791.0" y="815.06" type="line" smooth="yes"/>
      <point x="794.0645304489668" y="808.4648198522929"/>
      <point x="829.8067141695858" y="820.5854606713515"/>
      <point x="828.2274223826126" y="827.6843046268808" type="curve" smooth="yes"/>
      <point x="764.5031246507339" y="909.336583496251"/>
      <point x="639.4673953535611" y="978.9287597082929"/>
      <point x="498.0" y="980.0" type="curve" smooth="yes"/>
      <point x="237.74748960889906" y="977.310876198755"/>
      <point x="36.19732917925292" y="776.0245635541254"/>
    </contour>
    <contour>
      <point x="781.0" y="462.0" type="curve" smooth="yes"/>
      <point x="783.2906353681425" y="262.2685041730401"/>
      <point x="672.2665584527434" y="157.52553673393365"/>
      <point x="508.0" y="160.0" type="curve" smooth="yes"/>
      <point x="341.948463018295" y="156.53757445165982"/>
      <point x="254.452319253191" y="276.14134976662217"/>
      <point x="256.0" y="462.0" type="curve" smooth="yes"/>
      <point x="254.452319253191" y="647.8586502333778"/>
      <point x="341.948463018295" y="767.4624255483402"/>
      <point x="508.0" y="764.0" type="curve" smooth="yes"/>
      <point x="672.2665584527434" y="766.4744632660663"/>
      <point x="783.2906353681425" y="661.7314958269599"/>
    </contour>
  </outline>
</glyph>
<glyph name="r" format="2">
  <advance width="613"/>
  <unicode hex="0072"/>
  <outline>
    <contour>
      <point x="234.10221820805273" y="662.7803699758715" type="curve"/>
      <point x="250.0" y="869.0" type="line" smooth="yes"/>
      <point x="249.01450588378205" y="923.1266476021617"/>
      <point x="209.02636167002228" y="966.7799450121862"/>
      <point x="147.0" y="968.0" type="curve" smooth="yes"/>
      <point x="145.0" y="968.0" type="line" smooth="yes"/>
      <point x="82.9736383299777" y="966.7799450121862"/>
      <point x="42.98549411621796" y="923.1266476021617"/>
      <point x="42.0" y="869.0" type="curve" smooth="yes"/>
      <point x="42.0" y="55.0" type="line" smooth="yes"/>
      <point x="43.23317925618192" y="-0.07388882136500641"/>
      <point x="85.5445315899164" y="-42.931824334009775"/>
      <point x="150.0" y="-44.0" type="curve" smooth="yes"/>
      <point x="152.0" y="-44.0" type="line" smooth="yes"/>
      <point x="216.4554684100836" y="-42.931824334009775"/>
      <point x="258.7668207438181" y="-0.07388882136500641"/>
      <point x="260.0" y="55.0" type="curve" smooth="yes"/>
      <point x="260.0" y="270.0" type="line" smooth="yes"/>
      <point x="259.3183203236396" y="547.2258188087901"/>
      <point x="355.6624156933895" y="762.6891455705268"/>
      <point x="444.50241420385703" y="752.0" type="curve" smooth="yes"/>
      <point x="456.40051724036175" y="752.4731416587136"/>
      <point x="464.91136021073055" y="749.576657846374"/>
      <point x="479.10525512204714" y="739.8202642957657" type="curve" smooth="yes"/>
      <point x="529.28393872343" y="721.7207256612014"/>
      <point x="561.61778883595" y="770.9587789849179"/>
      <point x="568.4524144775924" y="825.9660758724968" type="curve" smooth="yes"/>
      <point x="574.5402736262795" y="880.4092416386954"/>
      <point x="562.6463351452578" y="928.8640584250404"/>
      <point x="531.4862831232605" y="953.3745890494512" type="curve" smooth="yes"/>
      <point x="506.2518982312776" y="969.5377479268162"/>
      <point x="475.3896512816434" y="979.5461958433539"/>
      <point x="448.89004314754095" y="980.0" type="curve" smooth="yes"/>
      <point x="342.0598195627091" y="973.8065559141868"/>
      <point x="250.3758331621396" y="842.3801312659056"/>
    </contour>
  </outline>
</glyph>
